G04 #@! TF.FileFunction,Copper,L2,Bot,Signal*
%FSLAX46Y46*%
G04 Gerber Fmt 4.6, Leading zero omitted, Abs format (unit mm)*
G04 Created by KiCad (PCBNEW 4.0.6) date Monday, December 04, 2017 'PMt' 08:22:42 PM*
%MOMM*%
%LPD*%
G01*
G04 APERTURE LIST*
%ADD10C,0.100000*%
%ADD11C,1.597660*%
%ADD12C,1.879600*%
%ADD13C,0.600000*%
%ADD14C,0.250000*%
%ADD15C,0.254000*%
G04 APERTURE END LIST*
D10*
D11*
X177800000Y-129176780D03*
X177800000Y-131173220D03*
D12*
X165100000Y-111125000D03*
X167640000Y-111125000D03*
X170180000Y-111125000D03*
X172720000Y-111125000D03*
X175260000Y-111125000D03*
X177800000Y-111125000D03*
X180340000Y-111125000D03*
X182880000Y-111125000D03*
X149860000Y-111125000D03*
X152400000Y-111125000D03*
X154940000Y-111125000D03*
X157480000Y-111125000D03*
X160020000Y-111125000D03*
X162560000Y-111125000D03*
X157480000Y-133985000D03*
X160020000Y-133985000D03*
X162560000Y-133985000D03*
X165100000Y-133985000D03*
D13*
X165100000Y-117475000D03*
X173355000Y-121920000D03*
X152400000Y-125730000D03*
X172720000Y-129540000D03*
X170040000Y-126505000D03*
X170040000Y-124955000D03*
X171590000Y-124955000D03*
X171590000Y-126505000D03*
X178435000Y-116840000D03*
X173355000Y-116840000D03*
X167640000Y-116205000D03*
X168910000Y-118745000D03*
X170815000Y-121285000D03*
X164465000Y-125095000D03*
X174625000Y-124460000D03*
X159385000Y-127635000D03*
X166370000Y-127635000D03*
X167640000Y-131445000D03*
X175260000Y-120650000D03*
X174625000Y-126365000D03*
X163830000Y-129540000D03*
X167005000Y-129540000D03*
X171450000Y-129540000D03*
X158115000Y-114935000D03*
X162560000Y-121285000D03*
X162560000Y-116205000D03*
X167640000Y-120650000D03*
D14*
X170815000Y-117475000D02*
X165100000Y-117475000D01*
X171450000Y-118110000D02*
X170815000Y-117475000D01*
X171450000Y-120015000D02*
X171450000Y-118110000D01*
X173355000Y-121920000D02*
X171450000Y-120015000D01*
X170040000Y-126505000D02*
X170180000Y-126365000D01*
X170040000Y-124955000D02*
X170180000Y-125095000D01*
X171590000Y-124955000D02*
X171450000Y-125095000D01*
X171590000Y-126505000D02*
X171450000Y-126365000D01*
X167640000Y-116205000D02*
X168275000Y-116205000D01*
X168910000Y-119380000D02*
X168910000Y-118745000D01*
X170815000Y-121285000D02*
X168910000Y-119380000D01*
X166370000Y-123190000D02*
X164465000Y-125095000D01*
X173355000Y-123190000D02*
X166370000Y-123190000D01*
X174625000Y-124460000D02*
X173355000Y-123190000D01*
X166370000Y-127635000D02*
X159385000Y-127635000D01*
X175260000Y-130810000D02*
X175260000Y-125730000D01*
X174625000Y-131445000D02*
X175260000Y-130810000D01*
X167640000Y-131445000D02*
X174625000Y-131445000D01*
X176530000Y-124460000D02*
X175260000Y-125730000D01*
X176530000Y-121920000D02*
X176530000Y-124460000D01*
X175260000Y-120650000D02*
X176530000Y-121920000D01*
X175260000Y-125730000D02*
X174625000Y-126365000D01*
X163830000Y-129540000D02*
X167005000Y-129540000D01*
X163830000Y-130175000D02*
X160020000Y-133985000D01*
X170815000Y-130175000D02*
X163830000Y-130175000D01*
X171450000Y-129540000D02*
X170815000Y-130175000D01*
X158115000Y-116840000D02*
X158115000Y-114935000D01*
X162560000Y-121285000D02*
X158115000Y-116840000D01*
X162560000Y-119380000D02*
X162560000Y-116205000D01*
X163830000Y-120650000D02*
X162560000Y-119380000D01*
X167640000Y-120650000D02*
X163830000Y-120650000D01*
D15*
G36*
X148525728Y-110231783D02*
X148285474Y-110810379D01*
X148284927Y-111436873D01*
X148524171Y-112015887D01*
X148966783Y-112459272D01*
X149545379Y-112699526D01*
X150171873Y-112700073D01*
X150750887Y-112460829D01*
X151130273Y-112082104D01*
X151506783Y-112459272D01*
X152085379Y-112699526D01*
X152711873Y-112700073D01*
X153290887Y-112460829D01*
X153670273Y-112082104D01*
X154046783Y-112459272D01*
X154625379Y-112699526D01*
X155251873Y-112700073D01*
X155830887Y-112460829D01*
X156210273Y-112082104D01*
X156586783Y-112459272D01*
X157165379Y-112699526D01*
X157791873Y-112700073D01*
X158370887Y-112460829D01*
X158750273Y-112082104D01*
X159126783Y-112459272D01*
X159705379Y-112699526D01*
X160331873Y-112700073D01*
X160910887Y-112460829D01*
X161138144Y-112233968D01*
X161630637Y-112233968D01*
X161721923Y-112494580D01*
X162309833Y-112711045D01*
X162935828Y-112686049D01*
X163398077Y-112494580D01*
X163489363Y-112233968D01*
X162560000Y-111304605D01*
X161630637Y-112233968D01*
X161138144Y-112233968D01*
X161352601Y-112019885D01*
X161451032Y-112054363D01*
X162380395Y-111125000D01*
X161451032Y-110195637D01*
X161352036Y-110230313D01*
X161027290Y-109905000D01*
X161669529Y-109905000D01*
X161630637Y-110016032D01*
X162560000Y-110945395D01*
X163489363Y-110016032D01*
X163450471Y-109905000D01*
X164093082Y-109905000D01*
X163767399Y-110230115D01*
X163668968Y-110195637D01*
X162739605Y-111125000D01*
X163668968Y-112054363D01*
X163767964Y-112019687D01*
X164206783Y-112459272D01*
X164785379Y-112699526D01*
X165411873Y-112700073D01*
X165990887Y-112460829D01*
X166370273Y-112082104D01*
X166746783Y-112459272D01*
X167325379Y-112699526D01*
X167951873Y-112700073D01*
X168530887Y-112460829D01*
X168910273Y-112082104D01*
X169286783Y-112459272D01*
X169865379Y-112699526D01*
X170491873Y-112700073D01*
X171070887Y-112460829D01*
X171450273Y-112082104D01*
X171826783Y-112459272D01*
X172405379Y-112699526D01*
X173031873Y-112700073D01*
X173610887Y-112460829D01*
X173990273Y-112082104D01*
X174366783Y-112459272D01*
X174945379Y-112699526D01*
X175571873Y-112700073D01*
X176150887Y-112460829D01*
X176530273Y-112082104D01*
X176906783Y-112459272D01*
X177485379Y-112699526D01*
X178111873Y-112700073D01*
X178690887Y-112460829D01*
X178918144Y-112233968D01*
X179410637Y-112233968D01*
X179501923Y-112494580D01*
X180089833Y-112711045D01*
X180715828Y-112686049D01*
X181178077Y-112494580D01*
X181269363Y-112233968D01*
X181950637Y-112233968D01*
X182041923Y-112494580D01*
X182629833Y-112711045D01*
X183255828Y-112686049D01*
X183718077Y-112494580D01*
X183809363Y-112233968D01*
X182880000Y-111304605D01*
X181950637Y-112233968D01*
X181269363Y-112233968D01*
X180340000Y-111304605D01*
X179410637Y-112233968D01*
X178918144Y-112233968D01*
X179132601Y-112019885D01*
X179231032Y-112054363D01*
X180160395Y-111125000D01*
X180519605Y-111125000D01*
X181448968Y-112054363D01*
X181610000Y-111997957D01*
X181771032Y-112054363D01*
X182700395Y-111125000D01*
X183059605Y-111125000D01*
X183988968Y-112054363D01*
X184249580Y-111963077D01*
X184466045Y-111375167D01*
X184441049Y-110749172D01*
X184249580Y-110286923D01*
X183988968Y-110195637D01*
X183059605Y-111125000D01*
X182700395Y-111125000D01*
X181771032Y-110195637D01*
X181610000Y-110252043D01*
X181448968Y-110195637D01*
X180519605Y-111125000D01*
X180160395Y-111125000D01*
X179231032Y-110195637D01*
X179132036Y-110230313D01*
X178807290Y-109905000D01*
X179449529Y-109905000D01*
X179410637Y-110016032D01*
X180340000Y-110945395D01*
X181269363Y-110016032D01*
X181230471Y-109905000D01*
X181989529Y-109905000D01*
X181950637Y-110016032D01*
X182880000Y-110945395D01*
X183809363Y-110016032D01*
X183770471Y-109905000D01*
X186005000Y-109905000D01*
X186005000Y-135840000D01*
X146735000Y-135840000D01*
X146735000Y-134296873D01*
X155904927Y-134296873D01*
X156144171Y-134875887D01*
X156586783Y-135319272D01*
X157165379Y-135559526D01*
X157791873Y-135560073D01*
X158370887Y-135320829D01*
X158750273Y-134942104D01*
X159126783Y-135319272D01*
X159705379Y-135559526D01*
X160331873Y-135560073D01*
X160910887Y-135320829D01*
X161138144Y-135093968D01*
X161630637Y-135093968D01*
X161721923Y-135354580D01*
X162309833Y-135571045D01*
X162935828Y-135546049D01*
X163398077Y-135354580D01*
X163489363Y-135093968D01*
X164170637Y-135093968D01*
X164261923Y-135354580D01*
X164849833Y-135571045D01*
X165475828Y-135546049D01*
X165938077Y-135354580D01*
X166029363Y-135093968D01*
X165100000Y-134164605D01*
X164170637Y-135093968D01*
X163489363Y-135093968D01*
X162560000Y-134164605D01*
X161630637Y-135093968D01*
X161138144Y-135093968D01*
X161352601Y-134879885D01*
X161451032Y-134914363D01*
X162380395Y-133985000D01*
X162739605Y-133985000D01*
X163668968Y-134914363D01*
X163830000Y-134857957D01*
X163991032Y-134914363D01*
X164920395Y-133985000D01*
X165279605Y-133985000D01*
X166208968Y-134914363D01*
X166469580Y-134823077D01*
X166686045Y-134235167D01*
X166661049Y-133609172D01*
X166469580Y-133146923D01*
X166208968Y-133055637D01*
X165279605Y-133985000D01*
X164920395Y-133985000D01*
X163991032Y-133055637D01*
X163830000Y-133112043D01*
X163668968Y-133055637D01*
X162739605Y-133985000D01*
X162380395Y-133985000D01*
X162366253Y-133970858D01*
X162545858Y-133791253D01*
X162560000Y-133805395D01*
X163489363Y-132876032D01*
X164170637Y-132876032D01*
X165100000Y-133805395D01*
X166029363Y-132876032D01*
X165938077Y-132615420D01*
X165350167Y-132398955D01*
X164724172Y-132423951D01*
X164261923Y-132615420D01*
X164170637Y-132876032D01*
X163489363Y-132876032D01*
X163398077Y-132615420D01*
X162810167Y-132398955D01*
X162675468Y-132404334D01*
X164144802Y-130935000D01*
X166839367Y-130935000D01*
X166705162Y-131258201D01*
X166704838Y-131630167D01*
X166846883Y-131973943D01*
X167109673Y-132237192D01*
X167453201Y-132379838D01*
X167825167Y-132380162D01*
X168168943Y-132238117D01*
X168202118Y-132205000D01*
X174625000Y-132205000D01*
X174915839Y-132147148D01*
X175162401Y-131982401D01*
X175797401Y-131347401D01*
X175962148Y-131100839D01*
X176020000Y-130810000D01*
X176020000Y-128960282D01*
X176354200Y-128960282D01*
X176381404Y-129530046D01*
X176547105Y-129930081D01*
X176793101Y-130004071D01*
X176678222Y-130118950D01*
X176752345Y-130193073D01*
X176585167Y-130359960D01*
X176366420Y-130886762D01*
X176365922Y-131457175D01*
X176583750Y-131984358D01*
X176986740Y-132388053D01*
X177513542Y-132606800D01*
X178083955Y-132607298D01*
X178611138Y-132389470D01*
X179014833Y-131986480D01*
X179233580Y-131459678D01*
X179234078Y-130889265D01*
X179016250Y-130362082D01*
X178847596Y-130193132D01*
X178921778Y-130118950D01*
X178806899Y-130004071D01*
X179052895Y-129930081D01*
X179245800Y-129393278D01*
X179218596Y-128823514D01*
X179052895Y-128423479D01*
X178806897Y-128349488D01*
X177979605Y-129176780D01*
X177993748Y-129190923D01*
X177814143Y-129370528D01*
X177800000Y-129356385D01*
X177785858Y-129370528D01*
X177606253Y-129190923D01*
X177620395Y-129176780D01*
X176793103Y-128349488D01*
X176547105Y-128423479D01*
X176354200Y-128960282D01*
X176020000Y-128960282D01*
X176020000Y-128169883D01*
X176972708Y-128169883D01*
X177800000Y-128997175D01*
X178627292Y-128169883D01*
X178553301Y-127923885D01*
X178016498Y-127730980D01*
X177446734Y-127758184D01*
X177046699Y-127923885D01*
X176972708Y-128169883D01*
X176020000Y-128169883D01*
X176020000Y-126044802D01*
X177067401Y-124997401D01*
X177232148Y-124750840D01*
X177290000Y-124460000D01*
X177290000Y-121920000D01*
X177232148Y-121629161D01*
X177232148Y-121629160D01*
X177067401Y-121382599D01*
X176195122Y-120510320D01*
X176195162Y-120464833D01*
X176053117Y-120121057D01*
X175790327Y-119857808D01*
X175446799Y-119715162D01*
X175074833Y-119714838D01*
X174731057Y-119856883D01*
X174467808Y-120119673D01*
X174325162Y-120463201D01*
X174324838Y-120835167D01*
X174466883Y-121178943D01*
X174729673Y-121442192D01*
X175073201Y-121584838D01*
X175120077Y-121584879D01*
X175770000Y-122234802D01*
X175770000Y-124145198D01*
X175560092Y-124355106D01*
X175560162Y-124274833D01*
X175418117Y-123931057D01*
X175155327Y-123667808D01*
X174811799Y-123525162D01*
X174764923Y-123525121D01*
X173918461Y-122678659D01*
X174147192Y-122450327D01*
X174289838Y-122106799D01*
X174290162Y-121734833D01*
X174148117Y-121391057D01*
X173885327Y-121127808D01*
X173541799Y-120985162D01*
X173494923Y-120985121D01*
X172210000Y-119700198D01*
X172210000Y-118110000D01*
X172152148Y-117819161D01*
X171987401Y-117572599D01*
X171352401Y-116937599D01*
X171105839Y-116772852D01*
X170815000Y-116715000D01*
X165662463Y-116715000D01*
X165630327Y-116682808D01*
X165286799Y-116540162D01*
X164914833Y-116539838D01*
X164571057Y-116681883D01*
X164307808Y-116944673D01*
X164165162Y-117288201D01*
X164164838Y-117660167D01*
X164306883Y-118003943D01*
X164569673Y-118267192D01*
X164913201Y-118409838D01*
X165285167Y-118410162D01*
X165628943Y-118268117D01*
X165662118Y-118235000D01*
X168109367Y-118235000D01*
X167975162Y-118558201D01*
X167974838Y-118930167D01*
X168116883Y-119273943D01*
X168150000Y-119307118D01*
X168150000Y-119380000D01*
X168207852Y-119670839D01*
X168372599Y-119917401D01*
X169879878Y-121424680D01*
X169879838Y-121470167D01*
X170021883Y-121813943D01*
X170284673Y-122077192D01*
X170628201Y-122219838D01*
X171000167Y-122220162D01*
X171343943Y-122078117D01*
X171607192Y-121815327D01*
X171749838Y-121471799D01*
X171749910Y-121389712D01*
X172419878Y-122059680D01*
X172419838Y-122105167D01*
X172554056Y-122430000D01*
X166370000Y-122430000D01*
X166079161Y-122487852D01*
X165832599Y-122652599D01*
X164325320Y-124159878D01*
X164279833Y-124159838D01*
X163936057Y-124301883D01*
X163672808Y-124564673D01*
X163530162Y-124908201D01*
X163529838Y-125280167D01*
X163671883Y-125623943D01*
X163934673Y-125887192D01*
X164278201Y-126029838D01*
X164650167Y-126030162D01*
X164993943Y-125888117D01*
X165257192Y-125625327D01*
X165399838Y-125281799D01*
X165399879Y-125234923D01*
X166684802Y-123950000D01*
X173040198Y-123950000D01*
X173689878Y-124599680D01*
X173689838Y-124645167D01*
X173831883Y-124988943D01*
X174094673Y-125252192D01*
X174438201Y-125394838D01*
X174520288Y-125394910D01*
X174485320Y-125429878D01*
X174439833Y-125429838D01*
X174096057Y-125571883D01*
X173832808Y-125834673D01*
X173690162Y-126178201D01*
X173689838Y-126550167D01*
X173831883Y-126893943D01*
X174094673Y-127157192D01*
X174438201Y-127299838D01*
X174500000Y-127299892D01*
X174500000Y-130495198D01*
X174310198Y-130685000D01*
X171379802Y-130685000D01*
X171589680Y-130475122D01*
X171635167Y-130475162D01*
X171978943Y-130333117D01*
X172242192Y-130070327D01*
X172384838Y-129726799D01*
X172385162Y-129354833D01*
X172243117Y-129011057D01*
X171980327Y-128747808D01*
X171636799Y-128605162D01*
X171264833Y-128604838D01*
X170921057Y-128746883D01*
X170657808Y-129009673D01*
X170515162Y-129353201D01*
X170515121Y-129400077D01*
X170500198Y-129415000D01*
X167940110Y-129415000D01*
X167940162Y-129354833D01*
X167798117Y-129011057D01*
X167535327Y-128747808D01*
X167191799Y-128605162D01*
X166819833Y-128604838D01*
X166476057Y-128746883D01*
X166442882Y-128780000D01*
X164392463Y-128780000D01*
X164360327Y-128747808D01*
X164016799Y-128605162D01*
X163644833Y-128604838D01*
X163301057Y-128746883D01*
X163037808Y-129009673D01*
X162895162Y-129353201D01*
X162894838Y-129725167D01*
X162985533Y-129944665D01*
X160465414Y-132464784D01*
X160334621Y-132410474D01*
X159708127Y-132409927D01*
X159129113Y-132649171D01*
X158749727Y-133027896D01*
X158373217Y-132650728D01*
X157794621Y-132410474D01*
X157168127Y-132409927D01*
X156589113Y-132649171D01*
X156145728Y-133091783D01*
X155905474Y-133670379D01*
X155904927Y-134296873D01*
X146735000Y-134296873D01*
X146735000Y-127820167D01*
X158449838Y-127820167D01*
X158591883Y-128163943D01*
X158854673Y-128427192D01*
X159198201Y-128569838D01*
X159570167Y-128570162D01*
X159913943Y-128428117D01*
X159947118Y-128395000D01*
X165807537Y-128395000D01*
X165839673Y-128427192D01*
X166183201Y-128569838D01*
X166555167Y-128570162D01*
X166898943Y-128428117D01*
X167162192Y-128165327D01*
X167304838Y-127821799D01*
X167305162Y-127449833D01*
X167163117Y-127106057D01*
X166900327Y-126842808D01*
X166556799Y-126700162D01*
X166184833Y-126699838D01*
X165841057Y-126841883D01*
X165807882Y-126875000D01*
X159947463Y-126875000D01*
X159915327Y-126842808D01*
X159571799Y-126700162D01*
X159199833Y-126699838D01*
X158856057Y-126841883D01*
X158592808Y-127104673D01*
X158450162Y-127448201D01*
X158449838Y-127820167D01*
X146735000Y-127820167D01*
X146735000Y-115120167D01*
X157179838Y-115120167D01*
X157321883Y-115463943D01*
X157355000Y-115497118D01*
X157355000Y-116840000D01*
X157412852Y-117130839D01*
X157577599Y-117377401D01*
X161624878Y-121424680D01*
X161624838Y-121470167D01*
X161766883Y-121813943D01*
X162029673Y-122077192D01*
X162373201Y-122219838D01*
X162745167Y-122220162D01*
X163088943Y-122078117D01*
X163352192Y-121815327D01*
X163494838Y-121471799D01*
X163494968Y-121322620D01*
X163539160Y-121352148D01*
X163830000Y-121410000D01*
X167077537Y-121410000D01*
X167109673Y-121442192D01*
X167453201Y-121584838D01*
X167825167Y-121585162D01*
X168168943Y-121443117D01*
X168432192Y-121180327D01*
X168574838Y-120836799D01*
X168575162Y-120464833D01*
X168433117Y-120121057D01*
X168170327Y-119857808D01*
X167826799Y-119715162D01*
X167454833Y-119714838D01*
X167111057Y-119856883D01*
X167077882Y-119890000D01*
X164144802Y-119890000D01*
X163320000Y-119065198D01*
X163320000Y-116767463D01*
X163352192Y-116735327D01*
X163494838Y-116391799D01*
X163495162Y-116019833D01*
X163353117Y-115676057D01*
X163090327Y-115412808D01*
X162746799Y-115270162D01*
X162374833Y-115269838D01*
X162031057Y-115411883D01*
X161767808Y-115674673D01*
X161625162Y-116018201D01*
X161624838Y-116390167D01*
X161766883Y-116733943D01*
X161800000Y-116767118D01*
X161800000Y-119380000D01*
X161817431Y-119467629D01*
X158875000Y-116525198D01*
X158875000Y-115497463D01*
X158907192Y-115465327D01*
X159049838Y-115121799D01*
X159050162Y-114749833D01*
X158908117Y-114406057D01*
X158645327Y-114142808D01*
X158301799Y-114000162D01*
X157929833Y-113999838D01*
X157586057Y-114141883D01*
X157322808Y-114404673D01*
X157180162Y-114748201D01*
X157179838Y-115120167D01*
X146735000Y-115120167D01*
X146735000Y-109905000D01*
X148853082Y-109905000D01*
X148525728Y-110231783D01*
X148525728Y-110231783D01*
G37*
X148525728Y-110231783D02*
X148285474Y-110810379D01*
X148284927Y-111436873D01*
X148524171Y-112015887D01*
X148966783Y-112459272D01*
X149545379Y-112699526D01*
X150171873Y-112700073D01*
X150750887Y-112460829D01*
X151130273Y-112082104D01*
X151506783Y-112459272D01*
X152085379Y-112699526D01*
X152711873Y-112700073D01*
X153290887Y-112460829D01*
X153670273Y-112082104D01*
X154046783Y-112459272D01*
X154625379Y-112699526D01*
X155251873Y-112700073D01*
X155830887Y-112460829D01*
X156210273Y-112082104D01*
X156586783Y-112459272D01*
X157165379Y-112699526D01*
X157791873Y-112700073D01*
X158370887Y-112460829D01*
X158750273Y-112082104D01*
X159126783Y-112459272D01*
X159705379Y-112699526D01*
X160331873Y-112700073D01*
X160910887Y-112460829D01*
X161138144Y-112233968D01*
X161630637Y-112233968D01*
X161721923Y-112494580D01*
X162309833Y-112711045D01*
X162935828Y-112686049D01*
X163398077Y-112494580D01*
X163489363Y-112233968D01*
X162560000Y-111304605D01*
X161630637Y-112233968D01*
X161138144Y-112233968D01*
X161352601Y-112019885D01*
X161451032Y-112054363D01*
X162380395Y-111125000D01*
X161451032Y-110195637D01*
X161352036Y-110230313D01*
X161027290Y-109905000D01*
X161669529Y-109905000D01*
X161630637Y-110016032D01*
X162560000Y-110945395D01*
X163489363Y-110016032D01*
X163450471Y-109905000D01*
X164093082Y-109905000D01*
X163767399Y-110230115D01*
X163668968Y-110195637D01*
X162739605Y-111125000D01*
X163668968Y-112054363D01*
X163767964Y-112019687D01*
X164206783Y-112459272D01*
X164785379Y-112699526D01*
X165411873Y-112700073D01*
X165990887Y-112460829D01*
X166370273Y-112082104D01*
X166746783Y-112459272D01*
X167325379Y-112699526D01*
X167951873Y-112700073D01*
X168530887Y-112460829D01*
X168910273Y-112082104D01*
X169286783Y-112459272D01*
X169865379Y-112699526D01*
X170491873Y-112700073D01*
X171070887Y-112460829D01*
X171450273Y-112082104D01*
X171826783Y-112459272D01*
X172405379Y-112699526D01*
X173031873Y-112700073D01*
X173610887Y-112460829D01*
X173990273Y-112082104D01*
X174366783Y-112459272D01*
X174945379Y-112699526D01*
X175571873Y-112700073D01*
X176150887Y-112460829D01*
X176530273Y-112082104D01*
X176906783Y-112459272D01*
X177485379Y-112699526D01*
X178111873Y-112700073D01*
X178690887Y-112460829D01*
X178918144Y-112233968D01*
X179410637Y-112233968D01*
X179501923Y-112494580D01*
X180089833Y-112711045D01*
X180715828Y-112686049D01*
X181178077Y-112494580D01*
X181269363Y-112233968D01*
X181950637Y-112233968D01*
X182041923Y-112494580D01*
X182629833Y-112711045D01*
X183255828Y-112686049D01*
X183718077Y-112494580D01*
X183809363Y-112233968D01*
X182880000Y-111304605D01*
X181950637Y-112233968D01*
X181269363Y-112233968D01*
X180340000Y-111304605D01*
X179410637Y-112233968D01*
X178918144Y-112233968D01*
X179132601Y-112019885D01*
X179231032Y-112054363D01*
X180160395Y-111125000D01*
X180519605Y-111125000D01*
X181448968Y-112054363D01*
X181610000Y-111997957D01*
X181771032Y-112054363D01*
X182700395Y-111125000D01*
X183059605Y-111125000D01*
X183988968Y-112054363D01*
X184249580Y-111963077D01*
X184466045Y-111375167D01*
X184441049Y-110749172D01*
X184249580Y-110286923D01*
X183988968Y-110195637D01*
X183059605Y-111125000D01*
X182700395Y-111125000D01*
X181771032Y-110195637D01*
X181610000Y-110252043D01*
X181448968Y-110195637D01*
X180519605Y-111125000D01*
X180160395Y-111125000D01*
X179231032Y-110195637D01*
X179132036Y-110230313D01*
X178807290Y-109905000D01*
X179449529Y-109905000D01*
X179410637Y-110016032D01*
X180340000Y-110945395D01*
X181269363Y-110016032D01*
X181230471Y-109905000D01*
X181989529Y-109905000D01*
X181950637Y-110016032D01*
X182880000Y-110945395D01*
X183809363Y-110016032D01*
X183770471Y-109905000D01*
X186005000Y-109905000D01*
X186005000Y-135840000D01*
X146735000Y-135840000D01*
X146735000Y-134296873D01*
X155904927Y-134296873D01*
X156144171Y-134875887D01*
X156586783Y-135319272D01*
X157165379Y-135559526D01*
X157791873Y-135560073D01*
X158370887Y-135320829D01*
X158750273Y-134942104D01*
X159126783Y-135319272D01*
X159705379Y-135559526D01*
X160331873Y-135560073D01*
X160910887Y-135320829D01*
X161138144Y-135093968D01*
X161630637Y-135093968D01*
X161721923Y-135354580D01*
X162309833Y-135571045D01*
X162935828Y-135546049D01*
X163398077Y-135354580D01*
X163489363Y-135093968D01*
X164170637Y-135093968D01*
X164261923Y-135354580D01*
X164849833Y-135571045D01*
X165475828Y-135546049D01*
X165938077Y-135354580D01*
X166029363Y-135093968D01*
X165100000Y-134164605D01*
X164170637Y-135093968D01*
X163489363Y-135093968D01*
X162560000Y-134164605D01*
X161630637Y-135093968D01*
X161138144Y-135093968D01*
X161352601Y-134879885D01*
X161451032Y-134914363D01*
X162380395Y-133985000D01*
X162739605Y-133985000D01*
X163668968Y-134914363D01*
X163830000Y-134857957D01*
X163991032Y-134914363D01*
X164920395Y-133985000D01*
X165279605Y-133985000D01*
X166208968Y-134914363D01*
X166469580Y-134823077D01*
X166686045Y-134235167D01*
X166661049Y-133609172D01*
X166469580Y-133146923D01*
X166208968Y-133055637D01*
X165279605Y-133985000D01*
X164920395Y-133985000D01*
X163991032Y-133055637D01*
X163830000Y-133112043D01*
X163668968Y-133055637D01*
X162739605Y-133985000D01*
X162380395Y-133985000D01*
X162366253Y-133970858D01*
X162545858Y-133791253D01*
X162560000Y-133805395D01*
X163489363Y-132876032D01*
X164170637Y-132876032D01*
X165100000Y-133805395D01*
X166029363Y-132876032D01*
X165938077Y-132615420D01*
X165350167Y-132398955D01*
X164724172Y-132423951D01*
X164261923Y-132615420D01*
X164170637Y-132876032D01*
X163489363Y-132876032D01*
X163398077Y-132615420D01*
X162810167Y-132398955D01*
X162675468Y-132404334D01*
X164144802Y-130935000D01*
X166839367Y-130935000D01*
X166705162Y-131258201D01*
X166704838Y-131630167D01*
X166846883Y-131973943D01*
X167109673Y-132237192D01*
X167453201Y-132379838D01*
X167825167Y-132380162D01*
X168168943Y-132238117D01*
X168202118Y-132205000D01*
X174625000Y-132205000D01*
X174915839Y-132147148D01*
X175162401Y-131982401D01*
X175797401Y-131347401D01*
X175962148Y-131100839D01*
X176020000Y-130810000D01*
X176020000Y-128960282D01*
X176354200Y-128960282D01*
X176381404Y-129530046D01*
X176547105Y-129930081D01*
X176793101Y-130004071D01*
X176678222Y-130118950D01*
X176752345Y-130193073D01*
X176585167Y-130359960D01*
X176366420Y-130886762D01*
X176365922Y-131457175D01*
X176583750Y-131984358D01*
X176986740Y-132388053D01*
X177513542Y-132606800D01*
X178083955Y-132607298D01*
X178611138Y-132389470D01*
X179014833Y-131986480D01*
X179233580Y-131459678D01*
X179234078Y-130889265D01*
X179016250Y-130362082D01*
X178847596Y-130193132D01*
X178921778Y-130118950D01*
X178806899Y-130004071D01*
X179052895Y-129930081D01*
X179245800Y-129393278D01*
X179218596Y-128823514D01*
X179052895Y-128423479D01*
X178806897Y-128349488D01*
X177979605Y-129176780D01*
X177993748Y-129190923D01*
X177814143Y-129370528D01*
X177800000Y-129356385D01*
X177785858Y-129370528D01*
X177606253Y-129190923D01*
X177620395Y-129176780D01*
X176793103Y-128349488D01*
X176547105Y-128423479D01*
X176354200Y-128960282D01*
X176020000Y-128960282D01*
X176020000Y-128169883D01*
X176972708Y-128169883D01*
X177800000Y-128997175D01*
X178627292Y-128169883D01*
X178553301Y-127923885D01*
X178016498Y-127730980D01*
X177446734Y-127758184D01*
X177046699Y-127923885D01*
X176972708Y-128169883D01*
X176020000Y-128169883D01*
X176020000Y-126044802D01*
X177067401Y-124997401D01*
X177232148Y-124750840D01*
X177290000Y-124460000D01*
X177290000Y-121920000D01*
X177232148Y-121629161D01*
X177232148Y-121629160D01*
X177067401Y-121382599D01*
X176195122Y-120510320D01*
X176195162Y-120464833D01*
X176053117Y-120121057D01*
X175790327Y-119857808D01*
X175446799Y-119715162D01*
X175074833Y-119714838D01*
X174731057Y-119856883D01*
X174467808Y-120119673D01*
X174325162Y-120463201D01*
X174324838Y-120835167D01*
X174466883Y-121178943D01*
X174729673Y-121442192D01*
X175073201Y-121584838D01*
X175120077Y-121584879D01*
X175770000Y-122234802D01*
X175770000Y-124145198D01*
X175560092Y-124355106D01*
X175560162Y-124274833D01*
X175418117Y-123931057D01*
X175155327Y-123667808D01*
X174811799Y-123525162D01*
X174764923Y-123525121D01*
X173918461Y-122678659D01*
X174147192Y-122450327D01*
X174289838Y-122106799D01*
X174290162Y-121734833D01*
X174148117Y-121391057D01*
X173885327Y-121127808D01*
X173541799Y-120985162D01*
X173494923Y-120985121D01*
X172210000Y-119700198D01*
X172210000Y-118110000D01*
X172152148Y-117819161D01*
X171987401Y-117572599D01*
X171352401Y-116937599D01*
X171105839Y-116772852D01*
X170815000Y-116715000D01*
X165662463Y-116715000D01*
X165630327Y-116682808D01*
X165286799Y-116540162D01*
X164914833Y-116539838D01*
X164571057Y-116681883D01*
X164307808Y-116944673D01*
X164165162Y-117288201D01*
X164164838Y-117660167D01*
X164306883Y-118003943D01*
X164569673Y-118267192D01*
X164913201Y-118409838D01*
X165285167Y-118410162D01*
X165628943Y-118268117D01*
X165662118Y-118235000D01*
X168109367Y-118235000D01*
X167975162Y-118558201D01*
X167974838Y-118930167D01*
X168116883Y-119273943D01*
X168150000Y-119307118D01*
X168150000Y-119380000D01*
X168207852Y-119670839D01*
X168372599Y-119917401D01*
X169879878Y-121424680D01*
X169879838Y-121470167D01*
X170021883Y-121813943D01*
X170284673Y-122077192D01*
X170628201Y-122219838D01*
X171000167Y-122220162D01*
X171343943Y-122078117D01*
X171607192Y-121815327D01*
X171749838Y-121471799D01*
X171749910Y-121389712D01*
X172419878Y-122059680D01*
X172419838Y-122105167D01*
X172554056Y-122430000D01*
X166370000Y-122430000D01*
X166079161Y-122487852D01*
X165832599Y-122652599D01*
X164325320Y-124159878D01*
X164279833Y-124159838D01*
X163936057Y-124301883D01*
X163672808Y-124564673D01*
X163530162Y-124908201D01*
X163529838Y-125280167D01*
X163671883Y-125623943D01*
X163934673Y-125887192D01*
X164278201Y-126029838D01*
X164650167Y-126030162D01*
X164993943Y-125888117D01*
X165257192Y-125625327D01*
X165399838Y-125281799D01*
X165399879Y-125234923D01*
X166684802Y-123950000D01*
X173040198Y-123950000D01*
X173689878Y-124599680D01*
X173689838Y-124645167D01*
X173831883Y-124988943D01*
X174094673Y-125252192D01*
X174438201Y-125394838D01*
X174520288Y-125394910D01*
X174485320Y-125429878D01*
X174439833Y-125429838D01*
X174096057Y-125571883D01*
X173832808Y-125834673D01*
X173690162Y-126178201D01*
X173689838Y-126550167D01*
X173831883Y-126893943D01*
X174094673Y-127157192D01*
X174438201Y-127299838D01*
X174500000Y-127299892D01*
X174500000Y-130495198D01*
X174310198Y-130685000D01*
X171379802Y-130685000D01*
X171589680Y-130475122D01*
X171635167Y-130475162D01*
X171978943Y-130333117D01*
X172242192Y-130070327D01*
X172384838Y-129726799D01*
X172385162Y-129354833D01*
X172243117Y-129011057D01*
X171980327Y-128747808D01*
X171636799Y-128605162D01*
X171264833Y-128604838D01*
X170921057Y-128746883D01*
X170657808Y-129009673D01*
X170515162Y-129353201D01*
X170515121Y-129400077D01*
X170500198Y-129415000D01*
X167940110Y-129415000D01*
X167940162Y-129354833D01*
X167798117Y-129011057D01*
X167535327Y-128747808D01*
X167191799Y-128605162D01*
X166819833Y-128604838D01*
X166476057Y-128746883D01*
X166442882Y-128780000D01*
X164392463Y-128780000D01*
X164360327Y-128747808D01*
X164016799Y-128605162D01*
X163644833Y-128604838D01*
X163301057Y-128746883D01*
X163037808Y-129009673D01*
X162895162Y-129353201D01*
X162894838Y-129725167D01*
X162985533Y-129944665D01*
X160465414Y-132464784D01*
X160334621Y-132410474D01*
X159708127Y-132409927D01*
X159129113Y-132649171D01*
X158749727Y-133027896D01*
X158373217Y-132650728D01*
X157794621Y-132410474D01*
X157168127Y-132409927D01*
X156589113Y-132649171D01*
X156145728Y-133091783D01*
X155905474Y-133670379D01*
X155904927Y-134296873D01*
X146735000Y-134296873D01*
X146735000Y-127820167D01*
X158449838Y-127820167D01*
X158591883Y-128163943D01*
X158854673Y-128427192D01*
X159198201Y-128569838D01*
X159570167Y-128570162D01*
X159913943Y-128428117D01*
X159947118Y-128395000D01*
X165807537Y-128395000D01*
X165839673Y-128427192D01*
X166183201Y-128569838D01*
X166555167Y-128570162D01*
X166898943Y-128428117D01*
X167162192Y-128165327D01*
X167304838Y-127821799D01*
X167305162Y-127449833D01*
X167163117Y-127106057D01*
X166900327Y-126842808D01*
X166556799Y-126700162D01*
X166184833Y-126699838D01*
X165841057Y-126841883D01*
X165807882Y-126875000D01*
X159947463Y-126875000D01*
X159915327Y-126842808D01*
X159571799Y-126700162D01*
X159199833Y-126699838D01*
X158856057Y-126841883D01*
X158592808Y-127104673D01*
X158450162Y-127448201D01*
X158449838Y-127820167D01*
X146735000Y-127820167D01*
X146735000Y-115120167D01*
X157179838Y-115120167D01*
X157321883Y-115463943D01*
X157355000Y-115497118D01*
X157355000Y-116840000D01*
X157412852Y-117130839D01*
X157577599Y-117377401D01*
X161624878Y-121424680D01*
X161624838Y-121470167D01*
X161766883Y-121813943D01*
X162029673Y-122077192D01*
X162373201Y-122219838D01*
X162745167Y-122220162D01*
X163088943Y-122078117D01*
X163352192Y-121815327D01*
X163494838Y-121471799D01*
X163494968Y-121322620D01*
X163539160Y-121352148D01*
X163830000Y-121410000D01*
X167077537Y-121410000D01*
X167109673Y-121442192D01*
X167453201Y-121584838D01*
X167825167Y-121585162D01*
X168168943Y-121443117D01*
X168432192Y-121180327D01*
X168574838Y-120836799D01*
X168575162Y-120464833D01*
X168433117Y-120121057D01*
X168170327Y-119857808D01*
X167826799Y-119715162D01*
X167454833Y-119714838D01*
X167111057Y-119856883D01*
X167077882Y-119890000D01*
X164144802Y-119890000D01*
X163320000Y-119065198D01*
X163320000Y-116767463D01*
X163352192Y-116735327D01*
X163494838Y-116391799D01*
X163495162Y-116019833D01*
X163353117Y-115676057D01*
X163090327Y-115412808D01*
X162746799Y-115270162D01*
X162374833Y-115269838D01*
X162031057Y-115411883D01*
X161767808Y-115674673D01*
X161625162Y-116018201D01*
X161624838Y-116390167D01*
X161766883Y-116733943D01*
X161800000Y-116767118D01*
X161800000Y-119380000D01*
X161817431Y-119467629D01*
X158875000Y-116525198D01*
X158875000Y-115497463D01*
X158907192Y-115465327D01*
X159049838Y-115121799D01*
X159050162Y-114749833D01*
X158908117Y-114406057D01*
X158645327Y-114142808D01*
X158301799Y-114000162D01*
X157929833Y-113999838D01*
X157586057Y-114141883D01*
X157322808Y-114404673D01*
X157180162Y-114748201D01*
X157179838Y-115120167D01*
X146735000Y-115120167D01*
X146735000Y-109905000D01*
X148853082Y-109905000D01*
X148525728Y-110231783D01*
M02*
