G04 #@! TF.FileFunction,Legend,Top*
%FSLAX46Y46*%
G04 Gerber Fmt 4.6, Leading zero omitted, Abs format (unit mm)*
G04 Created by KiCad (PCBNEW 4.0.6) date Monday, December 04, 2017 'PMt' 08:22:42 PM*
%MOMM*%
%LPD*%
G01*
G04 APERTURE LIST*
%ADD10C,0.100000*%
%ADD11C,0.120000*%
%ADD12C,0.203200*%
%ADD13C,0.150000*%
%ADD14C,0.127000*%
G04 APERTURE END LIST*
D10*
D11*
X166235000Y-117895000D02*
X165235000Y-117895000D01*
X165235000Y-119595000D02*
X166235000Y-119595000D01*
X171950000Y-117895000D02*
X170950000Y-117895000D01*
X170950000Y-119595000D02*
X171950000Y-119595000D01*
X177030000Y-117895000D02*
X176030000Y-117895000D01*
X176030000Y-119595000D02*
X177030000Y-119595000D01*
X160155000Y-126580000D02*
X161155000Y-126580000D01*
X161155000Y-124880000D02*
X160155000Y-124880000D01*
X155710000Y-129120000D02*
X156710000Y-129120000D01*
X156710000Y-127420000D02*
X155710000Y-127420000D01*
X161155000Y-129960000D02*
X160155000Y-129960000D01*
X160155000Y-131660000D02*
X161155000Y-131660000D01*
X182745000Y-117895000D02*
X181745000Y-117895000D01*
X181745000Y-119595000D02*
X182745000Y-119595000D01*
X179570000Y-121705000D02*
X178570000Y-121705000D01*
X178570000Y-123405000D02*
X179570000Y-123405000D01*
X152535000Y-133565000D02*
X153535000Y-133565000D01*
X153535000Y-131865000D02*
X152535000Y-131865000D01*
D12*
X176202340Y-127226060D02*
X183799480Y-127226060D01*
X183799480Y-127226060D02*
X183799480Y-133123940D01*
X183799480Y-133123940D02*
X176202340Y-133123940D01*
X176202340Y-127226060D02*
X176202340Y-127876300D01*
X176202340Y-133123940D02*
X176202340Y-132473700D01*
X176202340Y-127876300D02*
X177800000Y-127876300D01*
X176202340Y-132473700D02*
X177800000Y-132473700D01*
X179705000Y-109855000D02*
X180975000Y-109855000D01*
X180975000Y-109855000D02*
X181610000Y-110490000D01*
X181610000Y-111760000D02*
X180975000Y-112395000D01*
X176530000Y-110490000D02*
X177165000Y-109855000D01*
X177165000Y-109855000D02*
X178435000Y-109855000D01*
X178435000Y-109855000D02*
X179070000Y-110490000D01*
X179070000Y-111760000D02*
X178435000Y-112395000D01*
X178435000Y-112395000D02*
X177165000Y-112395000D01*
X177165000Y-112395000D02*
X176530000Y-111760000D01*
X179705000Y-109855000D02*
X179070000Y-110490000D01*
X179070000Y-111760000D02*
X179705000Y-112395000D01*
X180975000Y-112395000D02*
X179705000Y-112395000D01*
X172085000Y-109855000D02*
X173355000Y-109855000D01*
X173355000Y-109855000D02*
X173990000Y-110490000D01*
X173990000Y-111760000D02*
X173355000Y-112395000D01*
X173990000Y-110490000D02*
X174625000Y-109855000D01*
X174625000Y-109855000D02*
X175895000Y-109855000D01*
X175895000Y-109855000D02*
X176530000Y-110490000D01*
X176530000Y-111760000D02*
X175895000Y-112395000D01*
X175895000Y-112395000D02*
X174625000Y-112395000D01*
X174625000Y-112395000D02*
X173990000Y-111760000D01*
X168910000Y-110490000D02*
X169545000Y-109855000D01*
X169545000Y-109855000D02*
X170815000Y-109855000D01*
X170815000Y-109855000D02*
X171450000Y-110490000D01*
X171450000Y-111760000D02*
X170815000Y-112395000D01*
X170815000Y-112395000D02*
X169545000Y-112395000D01*
X169545000Y-112395000D02*
X168910000Y-111760000D01*
X172085000Y-109855000D02*
X171450000Y-110490000D01*
X171450000Y-111760000D02*
X172085000Y-112395000D01*
X173355000Y-112395000D02*
X172085000Y-112395000D01*
X164465000Y-109855000D02*
X165735000Y-109855000D01*
X165735000Y-109855000D02*
X166370000Y-110490000D01*
X166370000Y-111760000D02*
X165735000Y-112395000D01*
X166370000Y-110490000D02*
X167005000Y-109855000D01*
X167005000Y-109855000D02*
X168275000Y-109855000D01*
X168275000Y-109855000D02*
X168910000Y-110490000D01*
X168910000Y-111760000D02*
X168275000Y-112395000D01*
X168275000Y-112395000D02*
X167005000Y-112395000D01*
X167005000Y-112395000D02*
X166370000Y-111760000D01*
X163830000Y-110490000D02*
X163830000Y-111760000D01*
X164465000Y-109855000D02*
X163830000Y-110490000D01*
X163830000Y-111760000D02*
X164465000Y-112395000D01*
X165735000Y-112395000D02*
X164465000Y-112395000D01*
X182245000Y-109855000D02*
X183515000Y-109855000D01*
X183515000Y-109855000D02*
X184150000Y-110490000D01*
X184150000Y-110490000D02*
X184150000Y-111760000D01*
X184150000Y-111760000D02*
X183515000Y-112395000D01*
X182245000Y-109855000D02*
X181610000Y-110490000D01*
X181610000Y-111760000D02*
X182245000Y-112395000D01*
X183515000Y-112395000D02*
X182245000Y-112395000D01*
X161290000Y-110490000D02*
X161925000Y-109855000D01*
X161925000Y-109855000D02*
X163195000Y-109855000D01*
X163195000Y-109855000D02*
X163830000Y-110490000D01*
X163830000Y-111760000D02*
X163195000Y-112395000D01*
X163195000Y-112395000D02*
X161925000Y-112395000D01*
X161925000Y-112395000D02*
X161290000Y-111760000D01*
X156845000Y-109855000D02*
X158115000Y-109855000D01*
X158115000Y-109855000D02*
X158750000Y-110490000D01*
X158750000Y-111760000D02*
X158115000Y-112395000D01*
X158750000Y-110490000D02*
X159385000Y-109855000D01*
X159385000Y-109855000D02*
X160655000Y-109855000D01*
X160655000Y-109855000D02*
X161290000Y-110490000D01*
X161290000Y-111760000D02*
X160655000Y-112395000D01*
X160655000Y-112395000D02*
X159385000Y-112395000D01*
X159385000Y-112395000D02*
X158750000Y-111760000D01*
X153670000Y-110490000D02*
X154305000Y-109855000D01*
X154305000Y-109855000D02*
X155575000Y-109855000D01*
X155575000Y-109855000D02*
X156210000Y-110490000D01*
X156210000Y-111760000D02*
X155575000Y-112395000D01*
X155575000Y-112395000D02*
X154305000Y-112395000D01*
X154305000Y-112395000D02*
X153670000Y-111760000D01*
X156845000Y-109855000D02*
X156210000Y-110490000D01*
X156210000Y-111760000D02*
X156845000Y-112395000D01*
X158115000Y-112395000D02*
X156845000Y-112395000D01*
X149225000Y-109855000D02*
X150495000Y-109855000D01*
X150495000Y-109855000D02*
X151130000Y-110490000D01*
X151130000Y-111760000D02*
X150495000Y-112395000D01*
X151130000Y-110490000D02*
X151765000Y-109855000D01*
X151765000Y-109855000D02*
X153035000Y-109855000D01*
X153035000Y-109855000D02*
X153670000Y-110490000D01*
X153670000Y-111760000D02*
X153035000Y-112395000D01*
X153035000Y-112395000D02*
X151765000Y-112395000D01*
X151765000Y-112395000D02*
X151130000Y-111760000D01*
X148590000Y-110490000D02*
X148590000Y-111760000D01*
X149225000Y-109855000D02*
X148590000Y-110490000D01*
X148590000Y-111760000D02*
X149225000Y-112395000D01*
X150495000Y-112395000D02*
X149225000Y-112395000D01*
X163830000Y-110490000D02*
X163830000Y-111760000D01*
X164465000Y-132715000D02*
X165735000Y-132715000D01*
X165735000Y-132715000D02*
X166370000Y-133350000D01*
X166370000Y-134620000D02*
X165735000Y-135255000D01*
X161290000Y-133350000D02*
X161925000Y-132715000D01*
X161925000Y-132715000D02*
X163195000Y-132715000D01*
X163195000Y-132715000D02*
X163830000Y-133350000D01*
X163830000Y-134620000D02*
X163195000Y-135255000D01*
X163195000Y-135255000D02*
X161925000Y-135255000D01*
X161925000Y-135255000D02*
X161290000Y-134620000D01*
X164465000Y-132715000D02*
X163830000Y-133350000D01*
X163830000Y-134620000D02*
X164465000Y-135255000D01*
X165735000Y-135255000D02*
X164465000Y-135255000D01*
X156845000Y-132715000D02*
X158115000Y-132715000D01*
X158115000Y-132715000D02*
X158750000Y-133350000D01*
X158750000Y-134620000D02*
X158115000Y-135255000D01*
X158750000Y-133350000D02*
X159385000Y-132715000D01*
X159385000Y-132715000D02*
X160655000Y-132715000D01*
X160655000Y-132715000D02*
X161290000Y-133350000D01*
X161290000Y-134620000D02*
X160655000Y-135255000D01*
X160655000Y-135255000D02*
X159385000Y-135255000D01*
X159385000Y-135255000D02*
X158750000Y-134620000D01*
X156210000Y-133350000D02*
X156210000Y-134620000D01*
X156845000Y-132715000D02*
X156210000Y-133350000D01*
X156210000Y-134620000D02*
X156845000Y-135255000D01*
X158115000Y-135255000D02*
X156845000Y-135255000D01*
X166370000Y-133350000D02*
X166370000Y-134620000D01*
D11*
X171415000Y-133595000D02*
X170215000Y-133595000D01*
X170215000Y-131835000D02*
X171415000Y-131835000D01*
X154340000Y-122310000D02*
X155540000Y-122310000D01*
X155540000Y-124070000D02*
X154340000Y-124070000D01*
X165135000Y-113420000D02*
X166335000Y-113420000D01*
X166335000Y-115180000D02*
X165135000Y-115180000D01*
X170850000Y-113420000D02*
X172050000Y-113420000D01*
X172050000Y-115180000D02*
X170850000Y-115180000D01*
X175930000Y-113420000D02*
X177130000Y-113420000D01*
X177130000Y-115180000D02*
X175930000Y-115180000D01*
X155330000Y-118075000D02*
X155330000Y-116875000D01*
X157090000Y-116875000D02*
X157090000Y-118075000D01*
X159140000Y-118075000D02*
X159140000Y-116875000D01*
X160900000Y-116875000D02*
X160900000Y-118075000D01*
X168656000Y-123063000D02*
X168148000Y-123063000D01*
X168656000Y-128397000D02*
X168148000Y-128397000D01*
X168148000Y-128397000D02*
X168148000Y-127889000D01*
X173482000Y-127889000D02*
X173482000Y-128397000D01*
X173482000Y-128397000D02*
X172974000Y-128397000D01*
X172974000Y-123063000D02*
X173482000Y-123063000D01*
X173482000Y-123063000D02*
X173482000Y-123571000D01*
D13*
X165568334Y-117352143D02*
X165520715Y-117399762D01*
X165377858Y-117447381D01*
X165282620Y-117447381D01*
X165139762Y-117399762D01*
X165044524Y-117304524D01*
X164996905Y-117209286D01*
X164949286Y-117018810D01*
X164949286Y-116875952D01*
X164996905Y-116685476D01*
X165044524Y-116590238D01*
X165139762Y-116495000D01*
X165282620Y-116447381D01*
X165377858Y-116447381D01*
X165520715Y-116495000D01*
X165568334Y-116542619D01*
X166520715Y-117447381D02*
X165949286Y-117447381D01*
X166235000Y-117447381D02*
X166235000Y-116447381D01*
X166139762Y-116590238D01*
X166044524Y-116685476D01*
X165949286Y-116733095D01*
X171283334Y-117352143D02*
X171235715Y-117399762D01*
X171092858Y-117447381D01*
X170997620Y-117447381D01*
X170854762Y-117399762D01*
X170759524Y-117304524D01*
X170711905Y-117209286D01*
X170664286Y-117018810D01*
X170664286Y-116875952D01*
X170711905Y-116685476D01*
X170759524Y-116590238D01*
X170854762Y-116495000D01*
X170997620Y-116447381D01*
X171092858Y-116447381D01*
X171235715Y-116495000D01*
X171283334Y-116542619D01*
X171664286Y-116542619D02*
X171711905Y-116495000D01*
X171807143Y-116447381D01*
X172045239Y-116447381D01*
X172140477Y-116495000D01*
X172188096Y-116542619D01*
X172235715Y-116637857D01*
X172235715Y-116733095D01*
X172188096Y-116875952D01*
X171616667Y-117447381D01*
X172235715Y-117447381D01*
X176363334Y-117352143D02*
X176315715Y-117399762D01*
X176172858Y-117447381D01*
X176077620Y-117447381D01*
X175934762Y-117399762D01*
X175839524Y-117304524D01*
X175791905Y-117209286D01*
X175744286Y-117018810D01*
X175744286Y-116875952D01*
X175791905Y-116685476D01*
X175839524Y-116590238D01*
X175934762Y-116495000D01*
X176077620Y-116447381D01*
X176172858Y-116447381D01*
X176315715Y-116495000D01*
X176363334Y-116542619D01*
X176696667Y-116447381D02*
X177315715Y-116447381D01*
X176982381Y-116828333D01*
X177125239Y-116828333D01*
X177220477Y-116875952D01*
X177268096Y-116923571D01*
X177315715Y-117018810D01*
X177315715Y-117256905D01*
X177268096Y-117352143D01*
X177220477Y-117399762D01*
X177125239Y-117447381D01*
X176839524Y-117447381D01*
X176744286Y-117399762D01*
X176696667Y-117352143D01*
X160488334Y-127837143D02*
X160440715Y-127884762D01*
X160297858Y-127932381D01*
X160202620Y-127932381D01*
X160059762Y-127884762D01*
X159964524Y-127789524D01*
X159916905Y-127694286D01*
X159869286Y-127503810D01*
X159869286Y-127360952D01*
X159916905Y-127170476D01*
X159964524Y-127075238D01*
X160059762Y-126980000D01*
X160202620Y-126932381D01*
X160297858Y-126932381D01*
X160440715Y-126980000D01*
X160488334Y-127027619D01*
X161345477Y-127265714D02*
X161345477Y-127932381D01*
X161107381Y-126884762D02*
X160869286Y-127599048D01*
X161488334Y-127599048D01*
X156043334Y-130377143D02*
X155995715Y-130424762D01*
X155852858Y-130472381D01*
X155757620Y-130472381D01*
X155614762Y-130424762D01*
X155519524Y-130329524D01*
X155471905Y-130234286D01*
X155424286Y-130043810D01*
X155424286Y-129900952D01*
X155471905Y-129710476D01*
X155519524Y-129615238D01*
X155614762Y-129520000D01*
X155757620Y-129472381D01*
X155852858Y-129472381D01*
X155995715Y-129520000D01*
X156043334Y-129567619D01*
X156948096Y-129472381D02*
X156471905Y-129472381D01*
X156424286Y-129948571D01*
X156471905Y-129900952D01*
X156567143Y-129853333D01*
X156805239Y-129853333D01*
X156900477Y-129900952D01*
X156948096Y-129948571D01*
X156995715Y-130043810D01*
X156995715Y-130281905D01*
X156948096Y-130377143D01*
X156900477Y-130424762D01*
X156805239Y-130472381D01*
X156567143Y-130472381D01*
X156471905Y-130424762D01*
X156424286Y-130377143D01*
X160488334Y-129417143D02*
X160440715Y-129464762D01*
X160297858Y-129512381D01*
X160202620Y-129512381D01*
X160059762Y-129464762D01*
X159964524Y-129369524D01*
X159916905Y-129274286D01*
X159869286Y-129083810D01*
X159869286Y-128940952D01*
X159916905Y-128750476D01*
X159964524Y-128655238D01*
X160059762Y-128560000D01*
X160202620Y-128512381D01*
X160297858Y-128512381D01*
X160440715Y-128560000D01*
X160488334Y-128607619D01*
X161345477Y-128512381D02*
X161155000Y-128512381D01*
X161059762Y-128560000D01*
X161012143Y-128607619D01*
X160916905Y-128750476D01*
X160869286Y-128940952D01*
X160869286Y-129321905D01*
X160916905Y-129417143D01*
X160964524Y-129464762D01*
X161059762Y-129512381D01*
X161250239Y-129512381D01*
X161345477Y-129464762D01*
X161393096Y-129417143D01*
X161440715Y-129321905D01*
X161440715Y-129083810D01*
X161393096Y-128988571D01*
X161345477Y-128940952D01*
X161250239Y-128893333D01*
X161059762Y-128893333D01*
X160964524Y-128940952D01*
X160916905Y-128988571D01*
X160869286Y-129083810D01*
X182078334Y-117352143D02*
X182030715Y-117399762D01*
X181887858Y-117447381D01*
X181792620Y-117447381D01*
X181649762Y-117399762D01*
X181554524Y-117304524D01*
X181506905Y-117209286D01*
X181459286Y-117018810D01*
X181459286Y-116875952D01*
X181506905Y-116685476D01*
X181554524Y-116590238D01*
X181649762Y-116495000D01*
X181792620Y-116447381D01*
X181887858Y-116447381D01*
X182030715Y-116495000D01*
X182078334Y-116542619D01*
X182411667Y-116447381D02*
X183078334Y-116447381D01*
X182649762Y-117447381D01*
X178903334Y-121162143D02*
X178855715Y-121209762D01*
X178712858Y-121257381D01*
X178617620Y-121257381D01*
X178474762Y-121209762D01*
X178379524Y-121114524D01*
X178331905Y-121019286D01*
X178284286Y-120828810D01*
X178284286Y-120685952D01*
X178331905Y-120495476D01*
X178379524Y-120400238D01*
X178474762Y-120305000D01*
X178617620Y-120257381D01*
X178712858Y-120257381D01*
X178855715Y-120305000D01*
X178903334Y-120352619D01*
X179474762Y-120685952D02*
X179379524Y-120638333D01*
X179331905Y-120590714D01*
X179284286Y-120495476D01*
X179284286Y-120447857D01*
X179331905Y-120352619D01*
X179379524Y-120305000D01*
X179474762Y-120257381D01*
X179665239Y-120257381D01*
X179760477Y-120305000D01*
X179808096Y-120352619D01*
X179855715Y-120447857D01*
X179855715Y-120495476D01*
X179808096Y-120590714D01*
X179760477Y-120638333D01*
X179665239Y-120685952D01*
X179474762Y-120685952D01*
X179379524Y-120733571D01*
X179331905Y-120781190D01*
X179284286Y-120876429D01*
X179284286Y-121066905D01*
X179331905Y-121162143D01*
X179379524Y-121209762D01*
X179474762Y-121257381D01*
X179665239Y-121257381D01*
X179760477Y-121209762D01*
X179808096Y-121162143D01*
X179855715Y-121066905D01*
X179855715Y-120876429D01*
X179808096Y-120781190D01*
X179760477Y-120733571D01*
X179665239Y-120685952D01*
X152868334Y-134822143D02*
X152820715Y-134869762D01*
X152677858Y-134917381D01*
X152582620Y-134917381D01*
X152439762Y-134869762D01*
X152344524Y-134774524D01*
X152296905Y-134679286D01*
X152249286Y-134488810D01*
X152249286Y-134345952D01*
X152296905Y-134155476D01*
X152344524Y-134060238D01*
X152439762Y-133965000D01*
X152582620Y-133917381D01*
X152677858Y-133917381D01*
X152820715Y-133965000D01*
X152868334Y-134012619D01*
X153344524Y-134917381D02*
X153535000Y-134917381D01*
X153630239Y-134869762D01*
X153677858Y-134822143D01*
X153773096Y-134679286D01*
X153820715Y-134488810D01*
X153820715Y-134107857D01*
X153773096Y-134012619D01*
X153725477Y-133965000D01*
X153630239Y-133917381D01*
X153439762Y-133917381D01*
X153344524Y-133965000D01*
X153296905Y-134012619D01*
X153249286Y-134107857D01*
X153249286Y-134345952D01*
X153296905Y-134441190D01*
X153344524Y-134488810D01*
X153439762Y-134536429D01*
X153630239Y-134536429D01*
X153725477Y-134488810D01*
X153773096Y-134441190D01*
X153820715Y-134345952D01*
D14*
X177596800Y-126285171D02*
X177596800Y-126720600D01*
X177567772Y-126807686D01*
X177509715Y-126865743D01*
X177422629Y-126894771D01*
X177364572Y-126894771D01*
X178206400Y-126894771D02*
X177858057Y-126894771D01*
X178032229Y-126894771D02*
X178032229Y-126285171D01*
X177974172Y-126372257D01*
X177916114Y-126430314D01*
X177858057Y-126459343D01*
X174781029Y-133397171D02*
X174781029Y-133832600D01*
X174752001Y-133919686D01*
X174693944Y-133977743D01*
X174606858Y-134006771D01*
X174548801Y-134006771D01*
X175042286Y-133977743D02*
X175129372Y-134006771D01*
X175274515Y-134006771D01*
X175332572Y-133977743D01*
X175361601Y-133948714D01*
X175390629Y-133890657D01*
X175390629Y-133832600D01*
X175361601Y-133774543D01*
X175332572Y-133745514D01*
X175274515Y-133716486D01*
X175158401Y-133687457D01*
X175100343Y-133658429D01*
X175071315Y-133629400D01*
X175042286Y-133571343D01*
X175042286Y-133513286D01*
X175071315Y-133455229D01*
X175100343Y-133426200D01*
X175158401Y-133397171D01*
X175303543Y-133397171D01*
X175390629Y-133426200D01*
X175564800Y-133397171D02*
X175913143Y-133397171D01*
X175738972Y-134006771D02*
X175738972Y-133397171D01*
X175971200Y-134064829D02*
X176435657Y-134064829D01*
X176551771Y-133455229D02*
X176580800Y-133426200D01*
X176638857Y-133397171D01*
X176784000Y-133397171D01*
X176842057Y-133426200D01*
X176871086Y-133455229D01*
X176900114Y-133513286D01*
X176900114Y-133571343D01*
X176871086Y-133658429D01*
X176522743Y-134006771D01*
X176900114Y-134006771D01*
X177161371Y-134006771D02*
X177161371Y-133397171D01*
X177364571Y-133832600D01*
X177567771Y-133397171D01*
X177567771Y-134006771D01*
X177858057Y-134006771D02*
X177858057Y-133397171D01*
X178061257Y-133832600D01*
X178264457Y-133397171D01*
X178264457Y-134006771D01*
X178409600Y-134064829D02*
X178874057Y-134064829D01*
X179019200Y-134006771D02*
X179019200Y-133397171D01*
X179222400Y-133832600D01*
X179425600Y-133397171D01*
X179425600Y-134006771D01*
X179686857Y-133832600D02*
X179977143Y-133832600D01*
X179628800Y-134006771D02*
X179832000Y-133397171D01*
X180035200Y-134006771D01*
X180528686Y-134006771D02*
X180238400Y-134006771D01*
X180238400Y-133397171D01*
X180731886Y-133687457D02*
X180935086Y-133687457D01*
X181022172Y-134006771D02*
X180731886Y-134006771D01*
X180731886Y-133397171D01*
X181022172Y-133397171D01*
X164896800Y-108886171D02*
X164896800Y-109321600D01*
X164867772Y-109408686D01*
X164809715Y-109466743D01*
X164722629Y-109495771D01*
X164664572Y-109495771D01*
X165158057Y-108944229D02*
X165187086Y-108915200D01*
X165245143Y-108886171D01*
X165390286Y-108886171D01*
X165448343Y-108915200D01*
X165477372Y-108944229D01*
X165506400Y-109002286D01*
X165506400Y-109060343D01*
X165477372Y-109147429D01*
X165129029Y-109495771D01*
X165506400Y-109495771D01*
X162342286Y-113247714D02*
X162313257Y-113276743D01*
X162226171Y-113305771D01*
X162168114Y-113305771D01*
X162081029Y-113276743D01*
X162022971Y-113218686D01*
X161993943Y-113160629D01*
X161964914Y-113044514D01*
X161964914Y-112957429D01*
X161993943Y-112841314D01*
X162022971Y-112783257D01*
X162081029Y-112725200D01*
X162168114Y-112696171D01*
X162226171Y-112696171D01*
X162313257Y-112725200D01*
X162342286Y-112754229D01*
X162719657Y-112696171D02*
X162835771Y-112696171D01*
X162893829Y-112725200D01*
X162951886Y-112783257D01*
X162980914Y-112899371D01*
X162980914Y-113102571D01*
X162951886Y-113218686D01*
X162893829Y-113276743D01*
X162835771Y-113305771D01*
X162719657Y-113305771D01*
X162661600Y-113276743D01*
X162603543Y-113218686D01*
X162574514Y-113102571D01*
X162574514Y-112899371D01*
X162603543Y-112783257D01*
X162661600Y-112725200D01*
X162719657Y-112696171D01*
X163242172Y-113305771D02*
X163242172Y-112696171D01*
X163590515Y-113305771D01*
X163590515Y-112696171D01*
X163880801Y-113305771D02*
X163880801Y-112696171D01*
X164229144Y-113305771D01*
X164229144Y-112696171D01*
X164374287Y-113363829D02*
X164838744Y-113363829D01*
X165100001Y-112696171D02*
X165158058Y-112696171D01*
X165216115Y-112725200D01*
X165245144Y-112754229D01*
X165274173Y-112812286D01*
X165303201Y-112928400D01*
X165303201Y-113073543D01*
X165274173Y-113189657D01*
X165245144Y-113247714D01*
X165216115Y-113276743D01*
X165158058Y-113305771D01*
X165100001Y-113305771D01*
X165041944Y-113276743D01*
X165012915Y-113247714D01*
X164983887Y-113189657D01*
X164954858Y-113073543D01*
X164954858Y-112928400D01*
X164983887Y-112812286D01*
X165012915Y-112754229D01*
X165041944Y-112725200D01*
X165100001Y-112696171D01*
X165651544Y-112957429D02*
X165593486Y-112928400D01*
X165564458Y-112899371D01*
X165535429Y-112841314D01*
X165535429Y-112812286D01*
X165564458Y-112754229D01*
X165593486Y-112725200D01*
X165651544Y-112696171D01*
X165767658Y-112696171D01*
X165825715Y-112725200D01*
X165854744Y-112754229D01*
X165883772Y-112812286D01*
X165883772Y-112841314D01*
X165854744Y-112899371D01*
X165825715Y-112928400D01*
X165767658Y-112957429D01*
X165651544Y-112957429D01*
X165593486Y-112986457D01*
X165564458Y-113015486D01*
X165535429Y-113073543D01*
X165535429Y-113189657D01*
X165564458Y-113247714D01*
X165593486Y-113276743D01*
X165651544Y-113305771D01*
X165767658Y-113305771D01*
X165825715Y-113276743D01*
X165854744Y-113247714D01*
X165883772Y-113189657D01*
X165883772Y-113073543D01*
X165854744Y-113015486D01*
X165825715Y-112986457D01*
X165767658Y-112957429D01*
X166435315Y-113305771D02*
X166145029Y-113305771D01*
X166145029Y-112696171D01*
X166754629Y-112696171D02*
X166870743Y-112696171D01*
X166928801Y-112725200D01*
X166986858Y-112783257D01*
X167015886Y-112899371D01*
X167015886Y-113102571D01*
X166986858Y-113218686D01*
X166928801Y-113276743D01*
X166870743Y-113305771D01*
X166754629Y-113305771D01*
X166696572Y-113276743D01*
X166638515Y-113218686D01*
X166609486Y-113102571D01*
X166609486Y-112899371D01*
X166638515Y-112783257D01*
X166696572Y-112725200D01*
X166754629Y-112696171D01*
X167625487Y-113247714D02*
X167596458Y-113276743D01*
X167509372Y-113305771D01*
X167451315Y-113305771D01*
X167364230Y-113276743D01*
X167306172Y-113218686D01*
X167277144Y-113160629D01*
X167248115Y-113044514D01*
X167248115Y-112957429D01*
X167277144Y-112841314D01*
X167306172Y-112783257D01*
X167364230Y-112725200D01*
X167451315Y-112696171D01*
X167509372Y-112696171D01*
X167596458Y-112725200D01*
X167625487Y-112754229D01*
X167886744Y-113305771D02*
X167886744Y-112696171D01*
X168235087Y-113305771D02*
X167973830Y-112957429D01*
X168235087Y-112696171D02*
X167886744Y-113044514D01*
X149656800Y-108886171D02*
X149656800Y-109321600D01*
X149627772Y-109408686D01*
X149569715Y-109466743D01*
X149482629Y-109495771D01*
X149424572Y-109495771D01*
X149889029Y-108886171D02*
X150266400Y-108886171D01*
X150063200Y-109118400D01*
X150150286Y-109118400D01*
X150208343Y-109147429D01*
X150237372Y-109176457D01*
X150266400Y-109234514D01*
X150266400Y-109379657D01*
X150237372Y-109437714D01*
X150208343Y-109466743D01*
X150150286Y-109495771D01*
X149976114Y-109495771D01*
X149918057Y-109466743D01*
X149889029Y-109437714D01*
X147102286Y-113247714D02*
X147073257Y-113276743D01*
X146986171Y-113305771D01*
X146928114Y-113305771D01*
X146841029Y-113276743D01*
X146782971Y-113218686D01*
X146753943Y-113160629D01*
X146724914Y-113044514D01*
X146724914Y-112957429D01*
X146753943Y-112841314D01*
X146782971Y-112783257D01*
X146841029Y-112725200D01*
X146928114Y-112696171D01*
X146986171Y-112696171D01*
X147073257Y-112725200D01*
X147102286Y-112754229D01*
X147479657Y-112696171D02*
X147595771Y-112696171D01*
X147653829Y-112725200D01*
X147711886Y-112783257D01*
X147740914Y-112899371D01*
X147740914Y-113102571D01*
X147711886Y-113218686D01*
X147653829Y-113276743D01*
X147595771Y-113305771D01*
X147479657Y-113305771D01*
X147421600Y-113276743D01*
X147363543Y-113218686D01*
X147334514Y-113102571D01*
X147334514Y-112899371D01*
X147363543Y-112783257D01*
X147421600Y-112725200D01*
X147479657Y-112696171D01*
X148002172Y-113305771D02*
X148002172Y-112696171D01*
X148350515Y-113305771D01*
X148350515Y-112696171D01*
X148640801Y-113305771D02*
X148640801Y-112696171D01*
X148989144Y-113305771D01*
X148989144Y-112696171D01*
X149134287Y-113363829D02*
X149598744Y-113363829D01*
X149860001Y-112696171D02*
X149918058Y-112696171D01*
X149976115Y-112725200D01*
X150005144Y-112754229D01*
X150034173Y-112812286D01*
X150063201Y-112928400D01*
X150063201Y-113073543D01*
X150034173Y-113189657D01*
X150005144Y-113247714D01*
X149976115Y-113276743D01*
X149918058Y-113305771D01*
X149860001Y-113305771D01*
X149801944Y-113276743D01*
X149772915Y-113247714D01*
X149743887Y-113189657D01*
X149714858Y-113073543D01*
X149714858Y-112928400D01*
X149743887Y-112812286D01*
X149772915Y-112754229D01*
X149801944Y-112725200D01*
X149860001Y-112696171D01*
X150585715Y-112696171D02*
X150469601Y-112696171D01*
X150411544Y-112725200D01*
X150382515Y-112754229D01*
X150324458Y-112841314D01*
X150295429Y-112957429D01*
X150295429Y-113189657D01*
X150324458Y-113247714D01*
X150353486Y-113276743D01*
X150411544Y-113305771D01*
X150527658Y-113305771D01*
X150585715Y-113276743D01*
X150614744Y-113247714D01*
X150643772Y-113189657D01*
X150643772Y-113044514D01*
X150614744Y-112986457D01*
X150585715Y-112957429D01*
X150527658Y-112928400D01*
X150411544Y-112928400D01*
X150353486Y-112957429D01*
X150324458Y-112986457D01*
X150295429Y-113044514D01*
X151195315Y-113305771D02*
X150905029Y-113305771D01*
X150905029Y-112696171D01*
X151514629Y-112696171D02*
X151630743Y-112696171D01*
X151688801Y-112725200D01*
X151746858Y-112783257D01*
X151775886Y-112899371D01*
X151775886Y-113102571D01*
X151746858Y-113218686D01*
X151688801Y-113276743D01*
X151630743Y-113305771D01*
X151514629Y-113305771D01*
X151456572Y-113276743D01*
X151398515Y-113218686D01*
X151369486Y-113102571D01*
X151369486Y-112899371D01*
X151398515Y-112783257D01*
X151456572Y-112725200D01*
X151514629Y-112696171D01*
X152385487Y-113247714D02*
X152356458Y-113276743D01*
X152269372Y-113305771D01*
X152211315Y-113305771D01*
X152124230Y-113276743D01*
X152066172Y-113218686D01*
X152037144Y-113160629D01*
X152008115Y-113044514D01*
X152008115Y-112957429D01*
X152037144Y-112841314D01*
X152066172Y-112783257D01*
X152124230Y-112725200D01*
X152211315Y-112696171D01*
X152269372Y-112696171D01*
X152356458Y-112725200D01*
X152385487Y-112754229D01*
X152646744Y-113305771D02*
X152646744Y-112696171D01*
X152995087Y-113305771D02*
X152733830Y-112957429D01*
X152995087Y-112696171D02*
X152646744Y-113044514D01*
X157276800Y-131746171D02*
X157276800Y-132181600D01*
X157247772Y-132268686D01*
X157189715Y-132326743D01*
X157102629Y-132355771D01*
X157044572Y-132355771D01*
X157828343Y-131949371D02*
X157828343Y-132355771D01*
X157683200Y-131717143D02*
X157538057Y-132152571D01*
X157915429Y-132152571D01*
X155897943Y-136107714D02*
X155868914Y-136136743D01*
X155781828Y-136165771D01*
X155723771Y-136165771D01*
X155636686Y-136136743D01*
X155578628Y-136078686D01*
X155549600Y-136020629D01*
X155520571Y-135904514D01*
X155520571Y-135817429D01*
X155549600Y-135701314D01*
X155578628Y-135643257D01*
X155636686Y-135585200D01*
X155723771Y-135556171D01*
X155781828Y-135556171D01*
X155868914Y-135585200D01*
X155897943Y-135614229D01*
X156275314Y-135556171D02*
X156391428Y-135556171D01*
X156449486Y-135585200D01*
X156507543Y-135643257D01*
X156536571Y-135759371D01*
X156536571Y-135962571D01*
X156507543Y-136078686D01*
X156449486Y-136136743D01*
X156391428Y-136165771D01*
X156275314Y-136165771D01*
X156217257Y-136136743D01*
X156159200Y-136078686D01*
X156130171Y-135962571D01*
X156130171Y-135759371D01*
X156159200Y-135643257D01*
X156217257Y-135585200D01*
X156275314Y-135556171D01*
X156797829Y-136165771D02*
X156797829Y-135556171D01*
X157146172Y-136165771D01*
X157146172Y-135556171D01*
X157436458Y-136165771D02*
X157436458Y-135556171D01*
X157784801Y-136165771D01*
X157784801Y-135556171D01*
X157929944Y-136223829D02*
X158394401Y-136223829D01*
X158655658Y-135556171D02*
X158713715Y-135556171D01*
X158771772Y-135585200D01*
X158800801Y-135614229D01*
X158829830Y-135672286D01*
X158858858Y-135788400D01*
X158858858Y-135933543D01*
X158829830Y-136049657D01*
X158800801Y-136107714D01*
X158771772Y-136136743D01*
X158713715Y-136165771D01*
X158655658Y-136165771D01*
X158597601Y-136136743D01*
X158568572Y-136107714D01*
X158539544Y-136049657D01*
X158510515Y-135933543D01*
X158510515Y-135788400D01*
X158539544Y-135672286D01*
X158568572Y-135614229D01*
X158597601Y-135585200D01*
X158655658Y-135556171D01*
X159381372Y-135759371D02*
X159381372Y-136165771D01*
X159236229Y-135527143D02*
X159091086Y-135962571D01*
X159468458Y-135962571D01*
D13*
X170648334Y-131067381D02*
X170172143Y-131067381D01*
X170172143Y-130067381D01*
X171505477Y-131067381D02*
X170934048Y-131067381D01*
X171219762Y-131067381D02*
X171219762Y-130067381D01*
X171124524Y-130210238D01*
X171029286Y-130305476D01*
X170934048Y-130353095D01*
X154773334Y-125342381D02*
X154440000Y-124866190D01*
X154201905Y-125342381D02*
X154201905Y-124342381D01*
X154582858Y-124342381D01*
X154678096Y-124390000D01*
X154725715Y-124437619D01*
X154773334Y-124532857D01*
X154773334Y-124675714D01*
X154725715Y-124770952D01*
X154678096Y-124818571D01*
X154582858Y-124866190D01*
X154201905Y-124866190D01*
X155725715Y-125342381D02*
X155154286Y-125342381D01*
X155440000Y-125342381D02*
X155440000Y-124342381D01*
X155344762Y-124485238D01*
X155249524Y-124580476D01*
X155154286Y-124628095D01*
X165568334Y-116452381D02*
X165235000Y-115976190D01*
X164996905Y-116452381D02*
X164996905Y-115452381D01*
X165377858Y-115452381D01*
X165473096Y-115500000D01*
X165520715Y-115547619D01*
X165568334Y-115642857D01*
X165568334Y-115785714D01*
X165520715Y-115880952D01*
X165473096Y-115928571D01*
X165377858Y-115976190D01*
X164996905Y-115976190D01*
X165949286Y-115547619D02*
X165996905Y-115500000D01*
X166092143Y-115452381D01*
X166330239Y-115452381D01*
X166425477Y-115500000D01*
X166473096Y-115547619D01*
X166520715Y-115642857D01*
X166520715Y-115738095D01*
X166473096Y-115880952D01*
X165901667Y-116452381D01*
X166520715Y-116452381D01*
X171283334Y-116452381D02*
X170950000Y-115976190D01*
X170711905Y-116452381D02*
X170711905Y-115452381D01*
X171092858Y-115452381D01*
X171188096Y-115500000D01*
X171235715Y-115547619D01*
X171283334Y-115642857D01*
X171283334Y-115785714D01*
X171235715Y-115880952D01*
X171188096Y-115928571D01*
X171092858Y-115976190D01*
X170711905Y-115976190D01*
X171616667Y-115452381D02*
X172235715Y-115452381D01*
X171902381Y-115833333D01*
X172045239Y-115833333D01*
X172140477Y-115880952D01*
X172188096Y-115928571D01*
X172235715Y-116023810D01*
X172235715Y-116261905D01*
X172188096Y-116357143D01*
X172140477Y-116404762D01*
X172045239Y-116452381D01*
X171759524Y-116452381D01*
X171664286Y-116404762D01*
X171616667Y-116357143D01*
X176363334Y-116452381D02*
X176030000Y-115976190D01*
X175791905Y-116452381D02*
X175791905Y-115452381D01*
X176172858Y-115452381D01*
X176268096Y-115500000D01*
X176315715Y-115547619D01*
X176363334Y-115642857D01*
X176363334Y-115785714D01*
X176315715Y-115880952D01*
X176268096Y-115928571D01*
X176172858Y-115976190D01*
X175791905Y-115976190D01*
X177220477Y-115785714D02*
X177220477Y-116452381D01*
X176982381Y-115404762D02*
X176744286Y-116119048D01*
X177363334Y-116119048D01*
X158362381Y-117641666D02*
X157886190Y-117975000D01*
X158362381Y-118213095D02*
X157362381Y-118213095D01*
X157362381Y-117832142D01*
X157410000Y-117736904D01*
X157457619Y-117689285D01*
X157552857Y-117641666D01*
X157695714Y-117641666D01*
X157790952Y-117689285D01*
X157838571Y-117736904D01*
X157886190Y-117832142D01*
X157886190Y-118213095D01*
X157362381Y-116736904D02*
X157362381Y-117213095D01*
X157838571Y-117260714D01*
X157790952Y-117213095D01*
X157743333Y-117117857D01*
X157743333Y-116879761D01*
X157790952Y-116784523D01*
X157838571Y-116736904D01*
X157933810Y-116689285D01*
X158171905Y-116689285D01*
X158267143Y-116736904D01*
X158314762Y-116784523D01*
X158362381Y-116879761D01*
X158362381Y-117117857D01*
X158314762Y-117213095D01*
X158267143Y-117260714D01*
X162172381Y-117641666D02*
X161696190Y-117975000D01*
X162172381Y-118213095D02*
X161172381Y-118213095D01*
X161172381Y-117832142D01*
X161220000Y-117736904D01*
X161267619Y-117689285D01*
X161362857Y-117641666D01*
X161505714Y-117641666D01*
X161600952Y-117689285D01*
X161648571Y-117736904D01*
X161696190Y-117832142D01*
X161696190Y-118213095D01*
X161172381Y-116784523D02*
X161172381Y-116975000D01*
X161220000Y-117070238D01*
X161267619Y-117117857D01*
X161410476Y-117213095D01*
X161600952Y-117260714D01*
X161981905Y-117260714D01*
X162077143Y-117213095D01*
X162124762Y-117165476D01*
X162172381Y-117070238D01*
X162172381Y-116879761D01*
X162124762Y-116784523D01*
X162077143Y-116736904D01*
X161981905Y-116689285D01*
X161743810Y-116689285D01*
X161648571Y-116736904D01*
X161600952Y-116784523D01*
X161553333Y-116879761D01*
X161553333Y-117070238D01*
X161600952Y-117165476D01*
X161648571Y-117213095D01*
X161743810Y-117260714D01*
X170053095Y-121372381D02*
X170053095Y-122181905D01*
X170100714Y-122277143D01*
X170148333Y-122324762D01*
X170243571Y-122372381D01*
X170434048Y-122372381D01*
X170529286Y-122324762D01*
X170576905Y-122277143D01*
X170624524Y-122181905D01*
X170624524Y-121372381D01*
X171624524Y-122372381D02*
X171053095Y-122372381D01*
X171338809Y-122372381D02*
X171338809Y-121372381D01*
X171243571Y-121515238D01*
X171148333Y-121610476D01*
X171053095Y-121658095D01*
M02*
