G04 #@! TF.FileFunction,Legend,Bot*
%FSLAX46Y46*%
G04 Gerber Fmt 4.6, Leading zero omitted, Abs format (unit mm)*
G04 Created by KiCad (PCBNEW 4.0.6) date Monday, December 04, 2017 'PMt' 08:22:42 PM*
%MOMM*%
%LPD*%
G01*
G04 APERTURE LIST*
%ADD10C,0.100000*%
%ADD11C,0.300000*%
G04 APERTURE END LIST*
D10*
D11*
X184463571Y-128294465D02*
X185749286Y-128133750D01*
X185892143Y-128044464D01*
X185963571Y-127892679D01*
X185963571Y-127821251D01*
X183963571Y-128356965D02*
X184035000Y-128276607D01*
X184106429Y-128339107D01*
X184035000Y-128419464D01*
X183963571Y-128356965D01*
X184106429Y-128339107D01*
X185463571Y-129526608D02*
X183963571Y-129714108D01*
X185392143Y-129535536D02*
X185463571Y-129383751D01*
X185463571Y-129098037D01*
X185392143Y-128964107D01*
X185320714Y-128901608D01*
X185177857Y-128848036D01*
X184749286Y-128901607D01*
X184606429Y-128990893D01*
X184535000Y-129071250D01*
X184463571Y-129223037D01*
X184463571Y-129508751D01*
X184535000Y-129642679D01*
X185392143Y-130178393D02*
X185463571Y-130312322D01*
X185463571Y-130598037D01*
X185392143Y-130749822D01*
X185249286Y-130839107D01*
X185177857Y-130848036D01*
X185035000Y-130794465D01*
X184963571Y-130660537D01*
X184963571Y-130446251D01*
X184892143Y-130312322D01*
X184749286Y-130258750D01*
X184677857Y-130267679D01*
X184535000Y-130356965D01*
X184463571Y-130508751D01*
X184463571Y-130723037D01*
X184535000Y-130856965D01*
X147758571Y-126872680D02*
X147758571Y-126586966D01*
X147830000Y-126435180D01*
X147901429Y-126354822D01*
X148115714Y-126185180D01*
X148401429Y-126078036D01*
X148972857Y-126006608D01*
X149115714Y-126060180D01*
X149187143Y-126122679D01*
X149258571Y-126256609D01*
X149258571Y-126542323D01*
X149187143Y-126694108D01*
X149115714Y-126774466D01*
X148972857Y-126863751D01*
X148615714Y-126908394D01*
X148472857Y-126854823D01*
X148401429Y-126792322D01*
X148330000Y-126658394D01*
X148330000Y-126372680D01*
X148401429Y-126220893D01*
X148472857Y-126140537D01*
X148615714Y-126051251D01*
X149115714Y-127488751D02*
X149187143Y-127551250D01*
X149258571Y-127470894D01*
X149187143Y-127408393D01*
X149115714Y-127488751D01*
X149258571Y-127470894D01*
X147758571Y-128658394D02*
X147758571Y-128801251D01*
X147830000Y-128935179D01*
X147901429Y-128997679D01*
X148044286Y-129051251D01*
X148330000Y-129086965D01*
X148687143Y-129042322D01*
X148972857Y-128935180D01*
X149115714Y-128845894D01*
X149187143Y-128765536D01*
X149258571Y-128613751D01*
X149258571Y-128470894D01*
X149187143Y-128336965D01*
X149115714Y-128274465D01*
X148972857Y-128220894D01*
X148687143Y-128185179D01*
X148330000Y-128229822D01*
X148044286Y-128336965D01*
X147901429Y-128426250D01*
X147830000Y-128506608D01*
X147758571Y-128658394D01*
X148401429Y-129935179D02*
X148330000Y-129801250D01*
X148258571Y-129738751D01*
X148115714Y-129685179D01*
X148044286Y-129694107D01*
X147901429Y-129783393D01*
X147830000Y-129863750D01*
X147758571Y-130015537D01*
X147758571Y-130301251D01*
X147830000Y-130435179D01*
X147901429Y-130497679D01*
X148044286Y-130551250D01*
X148115714Y-130542322D01*
X148258571Y-130453037D01*
X148330000Y-130372679D01*
X148401429Y-130220893D01*
X148401429Y-129935179D01*
X148472857Y-129783393D01*
X148544286Y-129703036D01*
X148687143Y-129613750D01*
X148972857Y-129578036D01*
X149115714Y-129631608D01*
X149187143Y-129694107D01*
X149258571Y-129828037D01*
X149258571Y-130113751D01*
X149187143Y-130265536D01*
X149115714Y-130345894D01*
X148972857Y-130435179D01*
X148687143Y-130470893D01*
X148544286Y-130417322D01*
X148472857Y-130354822D01*
X148401429Y-130220893D01*
X151808571Y-123078036D02*
X150308571Y-123265536D01*
X150308571Y-123836964D01*
X150380000Y-123970893D01*
X150451429Y-124033392D01*
X150594286Y-124086964D01*
X150808571Y-124060179D01*
X150951429Y-123970892D01*
X151022857Y-123890536D01*
X151094286Y-123738749D01*
X151094286Y-123167321D01*
X151808571Y-124792322D02*
X151737143Y-124658392D01*
X151665714Y-124595893D01*
X151522857Y-124542321D01*
X151094286Y-124595892D01*
X150951429Y-124685178D01*
X150880000Y-124765535D01*
X150808571Y-124917322D01*
X150808571Y-125131607D01*
X150880000Y-125265535D01*
X150951429Y-125328035D01*
X151094286Y-125381607D01*
X151522857Y-125328036D01*
X151665714Y-125238750D01*
X151737143Y-125158392D01*
X151808571Y-125006607D01*
X151808571Y-124792322D01*
X150808571Y-125917322D02*
X151808571Y-126078036D01*
X151094286Y-126453035D01*
X151808571Y-126649465D01*
X150808571Y-127060179D01*
X151022857Y-128104822D02*
X151094286Y-128310179D01*
X151165714Y-128372679D01*
X151308571Y-128426251D01*
X151522857Y-128399465D01*
X151665714Y-128310179D01*
X151737143Y-128229822D01*
X151808571Y-128078036D01*
X151808571Y-127506608D01*
X150308571Y-127694108D01*
X150308571Y-128194108D01*
X150380000Y-128328036D01*
X150451429Y-128390536D01*
X150594286Y-128444107D01*
X150737143Y-128426250D01*
X150880000Y-128336965D01*
X150951429Y-128256607D01*
X151022857Y-128104822D01*
X151022857Y-127604822D01*
X151808571Y-129220894D02*
X151737143Y-129086964D01*
X151665714Y-129024465D01*
X151522857Y-128970893D01*
X151094286Y-129024464D01*
X150951429Y-129113750D01*
X150880000Y-129194107D01*
X150808571Y-129345894D01*
X150808571Y-129560179D01*
X150880000Y-129694107D01*
X150951429Y-129756607D01*
X151094286Y-129810179D01*
X151522857Y-129756608D01*
X151665714Y-129667322D01*
X151737143Y-129586964D01*
X151808571Y-129435179D01*
X151808571Y-129220894D01*
X151808571Y-131006608D02*
X151022857Y-131104822D01*
X150880000Y-131051250D01*
X150808571Y-130917322D01*
X150808571Y-130631608D01*
X150880000Y-130479822D01*
X151737143Y-131015536D02*
X151808571Y-130863751D01*
X151808571Y-130506608D01*
X151737143Y-130372679D01*
X151594286Y-130319107D01*
X151451429Y-130336964D01*
X151308571Y-130426251D01*
X151237143Y-130578036D01*
X151237143Y-130935179D01*
X151165714Y-131086965D01*
X151808571Y-131720894D02*
X150808571Y-131845894D01*
X151094286Y-131810179D02*
X150951429Y-131899464D01*
X150880000Y-131979822D01*
X150808571Y-132131608D01*
X150808571Y-132274465D01*
X151808571Y-133292322D02*
X150308571Y-133479822D01*
X151737143Y-133301250D02*
X151808571Y-133149465D01*
X151808571Y-132863751D01*
X151737143Y-132729821D01*
X151665714Y-132667322D01*
X151522857Y-132613750D01*
X151094286Y-132667321D01*
X150951429Y-132756607D01*
X150880000Y-132836964D01*
X150808571Y-132988751D01*
X150808571Y-133274465D01*
X150880000Y-133408393D01*
X154358571Y-125792323D02*
X153644286Y-125381608D01*
X154358571Y-124935180D02*
X152858571Y-125122680D01*
X152858571Y-125694108D01*
X152930000Y-125828037D01*
X153001429Y-125890536D01*
X153144286Y-125944108D01*
X153358571Y-125917323D01*
X153501429Y-125828036D01*
X153572857Y-125747680D01*
X153644286Y-125595893D01*
X153644286Y-125024465D01*
X154287143Y-127015536D02*
X154358571Y-126863751D01*
X154358571Y-126578037D01*
X154287143Y-126444108D01*
X154144286Y-126390536D01*
X153572857Y-126461965D01*
X153430000Y-126551251D01*
X153358571Y-126703037D01*
X153358571Y-126988751D01*
X153430000Y-127122679D01*
X153572857Y-127176251D01*
X153715714Y-127158394D01*
X153858571Y-126426251D01*
X153358571Y-127703037D02*
X154358571Y-127935180D01*
X153358571Y-128417322D01*
X154215714Y-128881608D02*
X154287143Y-128944107D01*
X154358571Y-128863751D01*
X154287143Y-128801250D01*
X154215714Y-128881608D01*
X154358571Y-128863751D01*
X152858571Y-131194108D02*
X152858571Y-131336965D01*
X152930000Y-131470893D01*
X153001429Y-131533393D01*
X153144286Y-131586965D01*
X153430000Y-131622679D01*
X153787143Y-131578036D01*
X154072857Y-131470894D01*
X154215714Y-131381608D01*
X154287143Y-131301250D01*
X154358571Y-131149465D01*
X154358571Y-131006608D01*
X154287143Y-130872679D01*
X154215714Y-130810179D01*
X154072857Y-130756608D01*
X153787143Y-130720893D01*
X153430000Y-130765536D01*
X153144286Y-130872679D01*
X153001429Y-130961964D01*
X152930000Y-131042322D01*
X152858571Y-131194108D01*
X156658571Y-130437144D02*
X156658571Y-129722858D01*
X157372857Y-129651429D01*
X157301429Y-129722858D01*
X157230000Y-129865715D01*
X157230000Y-130222858D01*
X157301429Y-130365715D01*
X157372857Y-130437144D01*
X157515714Y-130508572D01*
X157872857Y-130508572D01*
X158015714Y-130437144D01*
X158087143Y-130365715D01*
X158158571Y-130222858D01*
X158158571Y-129865715D01*
X158087143Y-129722858D01*
X158015714Y-129651429D01*
X156658571Y-130937143D02*
X158158571Y-131437143D01*
X156658571Y-131937143D01*
X159198571Y-130437144D02*
X159198571Y-129722858D01*
X159912857Y-129651429D01*
X159841429Y-129722858D01*
X159770000Y-129865715D01*
X159770000Y-130222858D01*
X159841429Y-130365715D01*
X159912857Y-130437144D01*
X160055714Y-130508572D01*
X160412857Y-130508572D01*
X160555714Y-130437144D01*
X160627143Y-130365715D01*
X160698571Y-130222858D01*
X160698571Y-129865715D01*
X160627143Y-129722858D01*
X160555714Y-129651429D01*
X159198571Y-130937143D02*
X160698571Y-131437143D01*
X159198571Y-131937143D01*
X161810000Y-128651428D02*
X161738571Y-128508571D01*
X161738571Y-128294285D01*
X161810000Y-128080000D01*
X161952857Y-127937142D01*
X162095714Y-127865714D01*
X162381429Y-127794285D01*
X162595714Y-127794285D01*
X162881429Y-127865714D01*
X163024286Y-127937142D01*
X163167143Y-128080000D01*
X163238571Y-128294285D01*
X163238571Y-128437142D01*
X163167143Y-128651428D01*
X163095714Y-128722857D01*
X162595714Y-128722857D01*
X162595714Y-128437142D01*
X163238571Y-129365714D02*
X161738571Y-129365714D01*
X163238571Y-130222857D01*
X161738571Y-130222857D01*
X163238571Y-130937143D02*
X161738571Y-130937143D01*
X161738571Y-131294286D01*
X161810000Y-131508571D01*
X161952857Y-131651429D01*
X162095714Y-131722857D01*
X162381429Y-131794286D01*
X162595714Y-131794286D01*
X162881429Y-131722857D01*
X163024286Y-131651429D01*
X163167143Y-131508571D01*
X163238571Y-131294286D01*
X163238571Y-130937143D01*
X164350000Y-128651428D02*
X164278571Y-128508571D01*
X164278571Y-128294285D01*
X164350000Y-128080000D01*
X164492857Y-127937142D01*
X164635714Y-127865714D01*
X164921429Y-127794285D01*
X165135714Y-127794285D01*
X165421429Y-127865714D01*
X165564286Y-127937142D01*
X165707143Y-128080000D01*
X165778571Y-128294285D01*
X165778571Y-128437142D01*
X165707143Y-128651428D01*
X165635714Y-128722857D01*
X165135714Y-128722857D01*
X165135714Y-128437142D01*
X165778571Y-129365714D02*
X164278571Y-129365714D01*
X165778571Y-130222857D01*
X164278571Y-130222857D01*
X165778571Y-130937143D02*
X164278571Y-130937143D01*
X164278571Y-131294286D01*
X164350000Y-131508571D01*
X164492857Y-131651429D01*
X164635714Y-131722857D01*
X164921429Y-131794286D01*
X165135714Y-131794286D01*
X165421429Y-131722857D01*
X165564286Y-131651429D01*
X165707143Y-131508571D01*
X165778571Y-131294286D01*
X165778571Y-130937143D01*
X150538571Y-113999285D02*
X149038571Y-113999285D01*
X149038571Y-114570713D01*
X149110000Y-114713571D01*
X149181429Y-114784999D01*
X149324286Y-114856428D01*
X149538571Y-114856428D01*
X149681429Y-114784999D01*
X149752857Y-114713571D01*
X149824286Y-114570713D01*
X149824286Y-113999285D01*
X149110000Y-116284999D02*
X149038571Y-116142142D01*
X149038571Y-115927856D01*
X149110000Y-115713571D01*
X149252857Y-115570713D01*
X149395714Y-115499285D01*
X149681429Y-115427856D01*
X149895714Y-115427856D01*
X150181429Y-115499285D01*
X150324286Y-115570713D01*
X150467143Y-115713571D01*
X150538571Y-115927856D01*
X150538571Y-116070713D01*
X150467143Y-116284999D01*
X150395714Y-116356428D01*
X149895714Y-116356428D01*
X149895714Y-116070713D01*
X149038571Y-117284999D02*
X149038571Y-117570713D01*
X149110000Y-117713571D01*
X149252857Y-117856428D01*
X149538571Y-117927856D01*
X150038571Y-117927856D01*
X150324286Y-117856428D01*
X150467143Y-117713571D01*
X150538571Y-117570713D01*
X150538571Y-117284999D01*
X150467143Y-117142142D01*
X150324286Y-116999285D01*
X150038571Y-116927856D01*
X149538571Y-116927856D01*
X149252857Y-116999285D01*
X149110000Y-117142142D01*
X149038571Y-117284999D01*
X149038571Y-118856428D02*
X149038571Y-119142142D01*
X149110000Y-119285000D01*
X149252857Y-119427857D01*
X149538571Y-119499285D01*
X150038571Y-119499285D01*
X150324286Y-119427857D01*
X150467143Y-119285000D01*
X150538571Y-119142142D01*
X150538571Y-118856428D01*
X150467143Y-118713571D01*
X150324286Y-118570714D01*
X150038571Y-118499285D01*
X149538571Y-118499285D01*
X149252857Y-118570714D01*
X149110000Y-118713571D01*
X149038571Y-118856428D01*
X150538571Y-120142143D02*
X149038571Y-120142143D01*
X149038571Y-120499286D01*
X149110000Y-120713571D01*
X149252857Y-120856429D01*
X149395714Y-120927857D01*
X149681429Y-120999286D01*
X149895714Y-120999286D01*
X150181429Y-120927857D01*
X150324286Y-120856429D01*
X150467143Y-120713571D01*
X150538571Y-120499286D01*
X150538571Y-120142143D01*
X153078571Y-114403571D02*
X151578571Y-114403571D01*
X153078571Y-115117857D02*
X151578571Y-115117857D01*
X153078571Y-115975000D01*
X151578571Y-115975000D01*
X151578571Y-116475000D02*
X151578571Y-117332143D01*
X153078571Y-116903572D02*
X151578571Y-116903572D01*
X154832857Y-113872143D02*
X154904286Y-114086429D01*
X154975714Y-114157857D01*
X155118571Y-114229286D01*
X155332857Y-114229286D01*
X155475714Y-114157857D01*
X155547143Y-114086429D01*
X155618571Y-113943571D01*
X155618571Y-113372143D01*
X154118571Y-113372143D01*
X154118571Y-113872143D01*
X154190000Y-114015000D01*
X154261429Y-114086429D01*
X154404286Y-114157857D01*
X154547143Y-114157857D01*
X154690000Y-114086429D01*
X154761429Y-114015000D01*
X154832857Y-113872143D01*
X154832857Y-113372143D01*
X155190000Y-114800714D02*
X155190000Y-115515000D01*
X155618571Y-114657857D02*
X154118571Y-115157857D01*
X155618571Y-115657857D01*
X154118571Y-115943571D02*
X154118571Y-116800714D01*
X155618571Y-116372143D02*
X154118571Y-116372143D01*
X154118571Y-117586428D02*
X154118571Y-117872142D01*
X154190000Y-118015000D01*
X154332857Y-118157857D01*
X154618571Y-118229285D01*
X155118571Y-118229285D01*
X155404286Y-118157857D01*
X155547143Y-118015000D01*
X155618571Y-117872142D01*
X155618571Y-117586428D01*
X155547143Y-117443571D01*
X155404286Y-117300714D01*
X155118571Y-117229285D01*
X154618571Y-117229285D01*
X154332857Y-117300714D01*
X154190000Y-117443571D01*
X154118571Y-117586428D01*
X155618571Y-118872143D02*
X154118571Y-118872143D01*
X155618571Y-119729286D02*
X154761429Y-119086429D01*
X154118571Y-119729286D02*
X154975714Y-118872143D01*
X158087143Y-113546429D02*
X158158571Y-113760715D01*
X158158571Y-114117858D01*
X158087143Y-114260715D01*
X158015714Y-114332144D01*
X157872857Y-114403572D01*
X157730000Y-114403572D01*
X157587143Y-114332144D01*
X157515714Y-114260715D01*
X157444286Y-114117858D01*
X157372857Y-113832144D01*
X157301429Y-113689286D01*
X157230000Y-113617858D01*
X157087143Y-113546429D01*
X156944286Y-113546429D01*
X156801429Y-113617858D01*
X156730000Y-113689286D01*
X156658571Y-113832144D01*
X156658571Y-114189286D01*
X156730000Y-114403572D01*
X158158571Y-115046429D02*
X156658571Y-115046429D01*
X156658571Y-115403572D01*
X156730000Y-115617857D01*
X156872857Y-115760715D01*
X157015714Y-115832143D01*
X157301429Y-115903572D01*
X157515714Y-115903572D01*
X157801429Y-115832143D01*
X157944286Y-115760715D01*
X158087143Y-115617857D01*
X158158571Y-115403572D01*
X158158571Y-115046429D01*
X157730000Y-116475000D02*
X157730000Y-117189286D01*
X158158571Y-116332143D02*
X156658571Y-116832143D01*
X158158571Y-117332143D01*
X160627143Y-113617857D02*
X160698571Y-113832143D01*
X160698571Y-114189286D01*
X160627143Y-114332143D01*
X160555714Y-114403572D01*
X160412857Y-114475000D01*
X160270000Y-114475000D01*
X160127143Y-114403572D01*
X160055714Y-114332143D01*
X159984286Y-114189286D01*
X159912857Y-113903572D01*
X159841429Y-113760714D01*
X159770000Y-113689286D01*
X159627143Y-113617857D01*
X159484286Y-113617857D01*
X159341429Y-113689286D01*
X159270000Y-113760714D01*
X159198571Y-113903572D01*
X159198571Y-114260714D01*
X159270000Y-114475000D01*
X160555714Y-115975000D02*
X160627143Y-115903571D01*
X160698571Y-115689285D01*
X160698571Y-115546428D01*
X160627143Y-115332143D01*
X160484286Y-115189285D01*
X160341429Y-115117857D01*
X160055714Y-115046428D01*
X159841429Y-115046428D01*
X159555714Y-115117857D01*
X159412857Y-115189285D01*
X159270000Y-115332143D01*
X159198571Y-115546428D01*
X159198571Y-115689285D01*
X159270000Y-115903571D01*
X159341429Y-115975000D01*
X160698571Y-117332143D02*
X160698571Y-116617857D01*
X159198571Y-116617857D01*
X161810000Y-114046428D02*
X161738571Y-113903571D01*
X161738571Y-113689285D01*
X161810000Y-113475000D01*
X161952857Y-113332142D01*
X162095714Y-113260714D01*
X162381429Y-113189285D01*
X162595714Y-113189285D01*
X162881429Y-113260714D01*
X163024286Y-113332142D01*
X163167143Y-113475000D01*
X163238571Y-113689285D01*
X163238571Y-113832142D01*
X163167143Y-114046428D01*
X163095714Y-114117857D01*
X162595714Y-114117857D01*
X162595714Y-113832142D01*
X163238571Y-114760714D02*
X161738571Y-114760714D01*
X163238571Y-115617857D01*
X161738571Y-115617857D01*
X163238571Y-116332143D02*
X161738571Y-116332143D01*
X161738571Y-116689286D01*
X161810000Y-116903571D01*
X161952857Y-117046429D01*
X162095714Y-117117857D01*
X162381429Y-117189286D01*
X162595714Y-117189286D01*
X162881429Y-117117857D01*
X163024286Y-117046429D01*
X163167143Y-116903571D01*
X163238571Y-116689286D01*
X163238571Y-116332143D01*
X165778571Y-113451429D02*
X165778571Y-112737143D01*
X164278571Y-112737143D01*
X165778571Y-113951429D02*
X164278571Y-113951429D01*
X164278571Y-114308572D01*
X164350000Y-114522857D01*
X164492857Y-114665715D01*
X164635714Y-114737143D01*
X164921429Y-114808572D01*
X165135714Y-114808572D01*
X165421429Y-114737143D01*
X165564286Y-114665715D01*
X165707143Y-114522857D01*
X165778571Y-114308572D01*
X165778571Y-113951429D01*
X164278571Y-115737143D02*
X164278571Y-116022857D01*
X164350000Y-116165715D01*
X164492857Y-116308572D01*
X164778571Y-116380000D01*
X165278571Y-116380000D01*
X165564286Y-116308572D01*
X165707143Y-116165715D01*
X165778571Y-116022857D01*
X165778571Y-115737143D01*
X165707143Y-115594286D01*
X165564286Y-115451429D01*
X165278571Y-115380000D01*
X164778571Y-115380000D01*
X164492857Y-115451429D01*
X164350000Y-115594286D01*
X164278571Y-115737143D01*
X165778571Y-117808572D02*
X165778571Y-116951429D01*
X165778571Y-117380001D02*
X164278571Y-117380001D01*
X164492857Y-117237144D01*
X164635714Y-117094286D01*
X164707143Y-116951429D01*
X165350000Y-118380000D02*
X165350000Y-119094286D01*
X165778571Y-118237143D02*
X164278571Y-118737143D01*
X165778571Y-119237143D01*
X168318571Y-113237143D02*
X168318571Y-112522857D01*
X166818571Y-112522857D01*
X168318571Y-113737143D02*
X166818571Y-113737143D01*
X166818571Y-114094286D01*
X166890000Y-114308571D01*
X167032857Y-114451429D01*
X167175714Y-114522857D01*
X167461429Y-114594286D01*
X167675714Y-114594286D01*
X167961429Y-114522857D01*
X168104286Y-114451429D01*
X168247143Y-114308571D01*
X168318571Y-114094286D01*
X168318571Y-113737143D01*
X166818571Y-115522857D02*
X166818571Y-115808571D01*
X166890000Y-115951429D01*
X167032857Y-116094286D01*
X167318571Y-116165714D01*
X167818571Y-116165714D01*
X168104286Y-116094286D01*
X168247143Y-115951429D01*
X168318571Y-115808571D01*
X168318571Y-115522857D01*
X168247143Y-115380000D01*
X168104286Y-115237143D01*
X167818571Y-115165714D01*
X167318571Y-115165714D01*
X167032857Y-115237143D01*
X166890000Y-115380000D01*
X166818571Y-115522857D01*
X168318571Y-117594286D02*
X168318571Y-116737143D01*
X168318571Y-117165715D02*
X166818571Y-117165715D01*
X167032857Y-117022858D01*
X167175714Y-116880000D01*
X167247143Y-116737143D01*
X167532857Y-118737143D02*
X167604286Y-118951429D01*
X167675714Y-119022857D01*
X167818571Y-119094286D01*
X168032857Y-119094286D01*
X168175714Y-119022857D01*
X168247143Y-118951429D01*
X168318571Y-118808571D01*
X168318571Y-118237143D01*
X166818571Y-118237143D01*
X166818571Y-118737143D01*
X166890000Y-118880000D01*
X166961429Y-118951429D01*
X167104286Y-119022857D01*
X167247143Y-119022857D01*
X167390000Y-118951429D01*
X167461429Y-118880000D01*
X167532857Y-118737143D01*
X167532857Y-118237143D01*
X170858571Y-113451429D02*
X170858571Y-112737143D01*
X169358571Y-112737143D01*
X170858571Y-113951429D02*
X169358571Y-113951429D01*
X169358571Y-114308572D01*
X169430000Y-114522857D01*
X169572857Y-114665715D01*
X169715714Y-114737143D01*
X170001429Y-114808572D01*
X170215714Y-114808572D01*
X170501429Y-114737143D01*
X170644286Y-114665715D01*
X170787143Y-114522857D01*
X170858571Y-114308572D01*
X170858571Y-113951429D01*
X169358571Y-115737143D02*
X169358571Y-116022857D01*
X169430000Y-116165715D01*
X169572857Y-116308572D01*
X169858571Y-116380000D01*
X170358571Y-116380000D01*
X170644286Y-116308572D01*
X170787143Y-116165715D01*
X170858571Y-116022857D01*
X170858571Y-115737143D01*
X170787143Y-115594286D01*
X170644286Y-115451429D01*
X170358571Y-115380000D01*
X169858571Y-115380000D01*
X169572857Y-115451429D01*
X169430000Y-115594286D01*
X169358571Y-115737143D01*
X169501429Y-116951429D02*
X169430000Y-117022858D01*
X169358571Y-117165715D01*
X169358571Y-117522858D01*
X169430000Y-117665715D01*
X169501429Y-117737144D01*
X169644286Y-117808572D01*
X169787143Y-117808572D01*
X170001429Y-117737144D01*
X170858571Y-116880001D01*
X170858571Y-117808572D01*
X170430000Y-118380000D02*
X170430000Y-119094286D01*
X170858571Y-118237143D02*
X169358571Y-118737143D01*
X170858571Y-119237143D01*
X173398571Y-113872143D02*
X173398571Y-113157857D01*
X171898571Y-113157857D01*
X173398571Y-114372143D02*
X171898571Y-114372143D01*
X171898571Y-114729286D01*
X171970000Y-114943571D01*
X172112857Y-115086429D01*
X172255714Y-115157857D01*
X172541429Y-115229286D01*
X172755714Y-115229286D01*
X173041429Y-115157857D01*
X173184286Y-115086429D01*
X173327143Y-114943571D01*
X173398571Y-114729286D01*
X173398571Y-114372143D01*
X171898571Y-116157857D02*
X171898571Y-116443571D01*
X171970000Y-116586429D01*
X172112857Y-116729286D01*
X172398571Y-116800714D01*
X172898571Y-116800714D01*
X173184286Y-116729286D01*
X173327143Y-116586429D01*
X173398571Y-116443571D01*
X173398571Y-116157857D01*
X173327143Y-116015000D01*
X173184286Y-115872143D01*
X172898571Y-115800714D01*
X172398571Y-115800714D01*
X172112857Y-115872143D01*
X171970000Y-116015000D01*
X171898571Y-116157857D01*
X172041429Y-117372143D02*
X171970000Y-117443572D01*
X171898571Y-117586429D01*
X171898571Y-117943572D01*
X171970000Y-118086429D01*
X172041429Y-118157858D01*
X172184286Y-118229286D01*
X172327143Y-118229286D01*
X172541429Y-118157858D01*
X173398571Y-117300715D01*
X173398571Y-118229286D01*
X172612857Y-119372143D02*
X172684286Y-119586429D01*
X172755714Y-119657857D01*
X172898571Y-119729286D01*
X173112857Y-119729286D01*
X173255714Y-119657857D01*
X173327143Y-119586429D01*
X173398571Y-119443571D01*
X173398571Y-118872143D01*
X171898571Y-118872143D01*
X171898571Y-119372143D01*
X171970000Y-119515000D01*
X172041429Y-119586429D01*
X172184286Y-119657857D01*
X172327143Y-119657857D01*
X172470000Y-119586429D01*
X172541429Y-119515000D01*
X172612857Y-119372143D01*
X172612857Y-118872143D01*
X175938571Y-114086429D02*
X175938571Y-113372143D01*
X174438571Y-113372143D01*
X175938571Y-114586429D02*
X174438571Y-114586429D01*
X174438571Y-114943572D01*
X174510000Y-115157857D01*
X174652857Y-115300715D01*
X174795714Y-115372143D01*
X175081429Y-115443572D01*
X175295714Y-115443572D01*
X175581429Y-115372143D01*
X175724286Y-115300715D01*
X175867143Y-115157857D01*
X175938571Y-114943572D01*
X175938571Y-114586429D01*
X174438571Y-116372143D02*
X174438571Y-116657857D01*
X174510000Y-116800715D01*
X174652857Y-116943572D01*
X174938571Y-117015000D01*
X175438571Y-117015000D01*
X175724286Y-116943572D01*
X175867143Y-116800715D01*
X175938571Y-116657857D01*
X175938571Y-116372143D01*
X175867143Y-116229286D01*
X175724286Y-116086429D01*
X175438571Y-116015000D01*
X174938571Y-116015000D01*
X174652857Y-116086429D01*
X174510000Y-116229286D01*
X174438571Y-116372143D01*
X174438571Y-117515001D02*
X174438571Y-118443572D01*
X175010000Y-117943572D01*
X175010000Y-118157858D01*
X175081429Y-118300715D01*
X175152857Y-118372144D01*
X175295714Y-118443572D01*
X175652857Y-118443572D01*
X175795714Y-118372144D01*
X175867143Y-118300715D01*
X175938571Y-118157858D01*
X175938571Y-117729286D01*
X175867143Y-117586429D01*
X175795714Y-117515001D01*
X175510000Y-119015000D02*
X175510000Y-119729286D01*
X175938571Y-118872143D02*
X174438571Y-119372143D01*
X175938571Y-119872143D01*
X178478571Y-113872143D02*
X178478571Y-113157857D01*
X176978571Y-113157857D01*
X178478571Y-114372143D02*
X176978571Y-114372143D01*
X176978571Y-114729286D01*
X177050000Y-114943571D01*
X177192857Y-115086429D01*
X177335714Y-115157857D01*
X177621429Y-115229286D01*
X177835714Y-115229286D01*
X178121429Y-115157857D01*
X178264286Y-115086429D01*
X178407143Y-114943571D01*
X178478571Y-114729286D01*
X178478571Y-114372143D01*
X176978571Y-116157857D02*
X176978571Y-116443571D01*
X177050000Y-116586429D01*
X177192857Y-116729286D01*
X177478571Y-116800714D01*
X177978571Y-116800714D01*
X178264286Y-116729286D01*
X178407143Y-116586429D01*
X178478571Y-116443571D01*
X178478571Y-116157857D01*
X178407143Y-116015000D01*
X178264286Y-115872143D01*
X177978571Y-115800714D01*
X177478571Y-115800714D01*
X177192857Y-115872143D01*
X177050000Y-116015000D01*
X176978571Y-116157857D01*
X176978571Y-117300715D02*
X176978571Y-118229286D01*
X177550000Y-117729286D01*
X177550000Y-117943572D01*
X177621429Y-118086429D01*
X177692857Y-118157858D01*
X177835714Y-118229286D01*
X178192857Y-118229286D01*
X178335714Y-118157858D01*
X178407143Y-118086429D01*
X178478571Y-117943572D01*
X178478571Y-117515000D01*
X178407143Y-117372143D01*
X178335714Y-117300715D01*
X177692857Y-119372143D02*
X177764286Y-119586429D01*
X177835714Y-119657857D01*
X177978571Y-119729286D01*
X178192857Y-119729286D01*
X178335714Y-119657857D01*
X178407143Y-119586429D01*
X178478571Y-119443571D01*
X178478571Y-118872143D01*
X176978571Y-118872143D01*
X176978571Y-119372143D01*
X177050000Y-119515000D01*
X177121429Y-119586429D01*
X177264286Y-119657857D01*
X177407143Y-119657857D01*
X177550000Y-119586429D01*
X177621429Y-119515000D01*
X177692857Y-119372143D01*
X177692857Y-118872143D01*
X179590000Y-114046428D02*
X179518571Y-113903571D01*
X179518571Y-113689285D01*
X179590000Y-113475000D01*
X179732857Y-113332142D01*
X179875714Y-113260714D01*
X180161429Y-113189285D01*
X180375714Y-113189285D01*
X180661429Y-113260714D01*
X180804286Y-113332142D01*
X180947143Y-113475000D01*
X181018571Y-113689285D01*
X181018571Y-113832142D01*
X180947143Y-114046428D01*
X180875714Y-114117857D01*
X180375714Y-114117857D01*
X180375714Y-113832142D01*
X181018571Y-114760714D02*
X179518571Y-114760714D01*
X181018571Y-115617857D01*
X179518571Y-115617857D01*
X181018571Y-116332143D02*
X179518571Y-116332143D01*
X179518571Y-116689286D01*
X179590000Y-116903571D01*
X179732857Y-117046429D01*
X179875714Y-117117857D01*
X180161429Y-117189286D01*
X180375714Y-117189286D01*
X180661429Y-117117857D01*
X180804286Y-117046429D01*
X180947143Y-116903571D01*
X181018571Y-116689286D01*
X181018571Y-116332143D01*
X182130000Y-114046428D02*
X182058571Y-113903571D01*
X182058571Y-113689285D01*
X182130000Y-113475000D01*
X182272857Y-113332142D01*
X182415714Y-113260714D01*
X182701429Y-113189285D01*
X182915714Y-113189285D01*
X183201429Y-113260714D01*
X183344286Y-113332142D01*
X183487143Y-113475000D01*
X183558571Y-113689285D01*
X183558571Y-113832142D01*
X183487143Y-114046428D01*
X183415714Y-114117857D01*
X182915714Y-114117857D01*
X182915714Y-113832142D01*
X183558571Y-114760714D02*
X182058571Y-114760714D01*
X183558571Y-115617857D01*
X182058571Y-115617857D01*
X183558571Y-116332143D02*
X182058571Y-116332143D01*
X182058571Y-116689286D01*
X182130000Y-116903571D01*
X182272857Y-117046429D01*
X182415714Y-117117857D01*
X182701429Y-117189286D01*
X182915714Y-117189286D01*
X183201429Y-117117857D01*
X183344286Y-117046429D01*
X183487143Y-116903571D01*
X183558571Y-116689286D01*
X183558571Y-116332143D01*
M02*
