M48
INCH,TZ
T1C0.016
T2C0.028
T3C0.040
%
G90
G05
T1
X60000Y-49500
X62250Y-45250
X62750Y-50250
X64000Y-45750
X64000Y-47750
X64500Y-51000
X64750Y-49250
X65000Y-46250
X65500Y-50250
X65750Y-51000
X66000Y-45750
X66000Y-47500
X66000Y-51750
X66500Y-46750
X66945Y-49195
X66945Y-49805
X67250Y-47750
X67500Y-51000
X67555Y-49195
X67555Y-49805
X68000Y-51000
X68250Y-46000
X68250Y-48000
X68750Y-49000
X68750Y-49750
X69000Y-47500
X70250Y-46000
T2
X70000Y-50857
X70000Y-51643
T3
X59000Y-43750
X60000Y-43750
X61000Y-43750
X62000Y-43750
X62000Y-52750
X63000Y-43750
X63000Y-52750
X64000Y-43750
X64000Y-52750
X65000Y-43750
X65000Y-52750
X66000Y-43750
X67000Y-43750
X68000Y-43750
X69000Y-43750
X70000Y-43750
X71000Y-43750
X72000Y-43750
T0
M30
