G04 #@! TF.FileFunction,Copper,L2,Bot,Signal*
%FSLAX46Y46*%
G04 Gerber Fmt 4.6, Leading zero omitted, Abs format (unit mm)*
G04 Created by KiCad (PCBNEW 4.0.6) date Saturday, December 02, 2017 'PMt' 02:19:44 PM*
%MOMM*%
%LPD*%
G01*
G04 APERTURE LIST*
%ADD10C,0.100000*%
%ADD11C,1.879600*%
%ADD12C,1.500000*%
%ADD13C,0.500000*%
%ADD14C,1.000000*%
%ADD15C,0.254000*%
G04 APERTURE END LIST*
D10*
D11*
X173990000Y-95885000D03*
X171450000Y-95885000D03*
X168910000Y-95885000D03*
X166370000Y-95885000D03*
X163830000Y-95885000D03*
X161290000Y-95885000D03*
X158750000Y-95885000D03*
X156210000Y-95885000D03*
X125730000Y-95885000D03*
X128270000Y-95885000D03*
X130810000Y-95885000D03*
X133350000Y-95885000D03*
X135890000Y-95885000D03*
X138430000Y-95885000D03*
X146050000Y-118745000D03*
X148590000Y-118745000D03*
X151130000Y-118745000D03*
X153670000Y-118745000D03*
D12*
X178308000Y-106680000D03*
X153924000Y-104140000D03*
X131445000Y-118110000D03*
X137160000Y-116205000D03*
X149860000Y-100584000D03*
X169672000Y-102616000D03*
X146685000Y-112395000D03*
X149860000Y-95885000D03*
X148590000Y-112395000D03*
X135255000Y-111125000D03*
X152400000Y-111760000D03*
D13*
X156464000Y-106680000D02*
X178308000Y-106680000D01*
X153924000Y-104140000D02*
X156464000Y-106680000D01*
D14*
X135255000Y-118110000D02*
X131445000Y-118110000D01*
X137160000Y-116205000D02*
X135255000Y-118110000D01*
D13*
X151892000Y-102616000D02*
X169672000Y-102616000D01*
X149860000Y-100584000D02*
X151892000Y-102616000D01*
X146685000Y-99060000D02*
X146685000Y-112395000D01*
X149860000Y-95885000D02*
X146685000Y-99060000D01*
X146685000Y-114300000D02*
X148590000Y-112395000D01*
X138430000Y-114300000D02*
X146685000Y-114300000D01*
X135255000Y-111125000D02*
X138430000Y-114300000D01*
X152400000Y-111760000D02*
X146050000Y-118110000D01*
X146050000Y-118110000D02*
X146050000Y-118745000D01*
D15*
G36*
X179655000Y-106313167D02*
X179482831Y-105896485D01*
X179093564Y-105506539D01*
X178584702Y-105295241D01*
X178033715Y-105294760D01*
X177524485Y-105505169D01*
X177234148Y-105795000D01*
X156830579Y-105795000D01*
X155308884Y-104273304D01*
X155309240Y-103865715D01*
X155158543Y-103501000D01*
X168598477Y-103501000D01*
X168886436Y-103789461D01*
X169395298Y-104000759D01*
X169946285Y-104001240D01*
X170455515Y-103790831D01*
X170845461Y-103401564D01*
X171056759Y-102892702D01*
X171057240Y-102341715D01*
X170846831Y-101832485D01*
X170457564Y-101442539D01*
X169948702Y-101231241D01*
X169397715Y-101230760D01*
X168888485Y-101441169D01*
X168598148Y-101731000D01*
X152258579Y-101731000D01*
X151244884Y-100717305D01*
X151245240Y-100309715D01*
X151034831Y-99800485D01*
X150645564Y-99410539D01*
X150136702Y-99199241D01*
X149585715Y-99198760D01*
X149076485Y-99409169D01*
X148686539Y-99798436D01*
X148475241Y-100307298D01*
X148474760Y-100858285D01*
X148685169Y-101367515D01*
X149074436Y-101757461D01*
X149583298Y-101968759D01*
X149993538Y-101969117D01*
X151266208Y-103241787D01*
X151266210Y-103241790D01*
X151553325Y-103433633D01*
X151609516Y-103444810D01*
X151892000Y-103501001D01*
X151892005Y-103501000D01*
X152689680Y-103501000D01*
X152539241Y-103863298D01*
X152538760Y-104414285D01*
X152749169Y-104923515D01*
X153138436Y-105313461D01*
X153647298Y-105524759D01*
X154057537Y-105525117D01*
X155838208Y-107305787D01*
X155838210Y-107305790D01*
X156125325Y-107497633D01*
X156464000Y-107565000D01*
X177234477Y-107565000D01*
X177522436Y-107853461D01*
X178031298Y-108064759D01*
X178582285Y-108065240D01*
X179091515Y-107854831D01*
X179481461Y-107465564D01*
X179655000Y-107047636D01*
X179655000Y-121235000D01*
X121335000Y-121235000D01*
X121335000Y-111399285D01*
X133869760Y-111399285D01*
X134080169Y-111908515D01*
X134469436Y-112298461D01*
X134978298Y-112509759D01*
X135388537Y-112510117D01*
X137804208Y-114925787D01*
X137804210Y-114925790D01*
X138091325Y-115117633D01*
X138147516Y-115128810D01*
X138430000Y-115185001D01*
X138430005Y-115185000D01*
X146684995Y-115185000D01*
X146685000Y-115185001D01*
X146967484Y-115128810D01*
X147023675Y-115117633D01*
X147310790Y-114925790D01*
X147310791Y-114925789D01*
X148456695Y-113779884D01*
X148864285Y-113780240D01*
X149313998Y-113594423D01*
X145738493Y-117169927D01*
X145159113Y-117409171D01*
X144715728Y-117851783D01*
X144475474Y-118430379D01*
X144474927Y-119056873D01*
X144714171Y-119635887D01*
X145156783Y-120079272D01*
X145735379Y-120319526D01*
X146361873Y-120320073D01*
X146940887Y-120080829D01*
X147320273Y-119702104D01*
X147696783Y-120079272D01*
X148275379Y-120319526D01*
X148901873Y-120320073D01*
X149480887Y-120080829D01*
X149708144Y-119853968D01*
X150200637Y-119853968D01*
X150291923Y-120114580D01*
X150879833Y-120331045D01*
X151505828Y-120306049D01*
X151968077Y-120114580D01*
X152059363Y-119853968D01*
X152740637Y-119853968D01*
X152831923Y-120114580D01*
X153419833Y-120331045D01*
X154045828Y-120306049D01*
X154508077Y-120114580D01*
X154599363Y-119853968D01*
X153670000Y-118924605D01*
X152740637Y-119853968D01*
X152059363Y-119853968D01*
X151130000Y-118924605D01*
X150200637Y-119853968D01*
X149708144Y-119853968D01*
X149922601Y-119639885D01*
X150021032Y-119674363D01*
X150950395Y-118745000D01*
X151309605Y-118745000D01*
X152238968Y-119674363D01*
X152400000Y-119617957D01*
X152561032Y-119674363D01*
X153490395Y-118745000D01*
X153849605Y-118745000D01*
X154778968Y-119674363D01*
X155039580Y-119583077D01*
X155256045Y-118995167D01*
X155231049Y-118369172D01*
X155039580Y-117906923D01*
X154778968Y-117815637D01*
X153849605Y-118745000D01*
X153490395Y-118745000D01*
X152561032Y-117815637D01*
X152400000Y-117872043D01*
X152238968Y-117815637D01*
X151309605Y-118745000D01*
X150950395Y-118745000D01*
X150021032Y-117815637D01*
X149922036Y-117850313D01*
X149708129Y-117636032D01*
X150200637Y-117636032D01*
X151130000Y-118565395D01*
X152059363Y-117636032D01*
X152740637Y-117636032D01*
X153670000Y-118565395D01*
X154599363Y-117636032D01*
X154508077Y-117375420D01*
X153920167Y-117158955D01*
X153294172Y-117183951D01*
X152831923Y-117375420D01*
X152740637Y-117636032D01*
X152059363Y-117636032D01*
X151968077Y-117375420D01*
X151380167Y-117158955D01*
X150754172Y-117183951D01*
X150291923Y-117375420D01*
X150200637Y-117636032D01*
X149708129Y-117636032D01*
X149483217Y-117410728D01*
X148904621Y-117170474D01*
X148278127Y-117169927D01*
X148215970Y-117195610D01*
X152266695Y-113144884D01*
X152674285Y-113145240D01*
X153183515Y-112934831D01*
X153573461Y-112545564D01*
X153784759Y-112036702D01*
X153785240Y-111485715D01*
X153574831Y-110976485D01*
X153185564Y-110586539D01*
X152676702Y-110375241D01*
X152125715Y-110374760D01*
X151616485Y-110585169D01*
X151226539Y-110974436D01*
X151015241Y-111483298D01*
X151014883Y-111893538D01*
X149788743Y-113119677D01*
X149974759Y-112671702D01*
X149975240Y-112120715D01*
X149764831Y-111611485D01*
X149375564Y-111221539D01*
X148866702Y-111010241D01*
X148315715Y-111009760D01*
X147806485Y-111220169D01*
X147637547Y-111388813D01*
X147570000Y-111321148D01*
X147570000Y-99426580D01*
X149726695Y-97269884D01*
X150134285Y-97270240D01*
X150643515Y-97059831D01*
X150709492Y-96993968D01*
X155280637Y-96993968D01*
X155371923Y-97254580D01*
X155959833Y-97471045D01*
X156585828Y-97446049D01*
X157048077Y-97254580D01*
X157139363Y-96993968D01*
X157820637Y-96993968D01*
X157911923Y-97254580D01*
X158499833Y-97471045D01*
X159125828Y-97446049D01*
X159588077Y-97254580D01*
X159679363Y-96993968D01*
X158750000Y-96064605D01*
X157820637Y-96993968D01*
X157139363Y-96993968D01*
X156210000Y-96064605D01*
X155280637Y-96993968D01*
X150709492Y-96993968D01*
X151033461Y-96670564D01*
X151244759Y-96161702D01*
X151245218Y-95634833D01*
X154623955Y-95634833D01*
X154648951Y-96260828D01*
X154840420Y-96723077D01*
X155101032Y-96814363D01*
X156030395Y-95885000D01*
X156389605Y-95885000D01*
X157318968Y-96814363D01*
X157480000Y-96757957D01*
X157641032Y-96814363D01*
X158570395Y-95885000D01*
X158929605Y-95885000D01*
X159858968Y-96814363D01*
X159957964Y-96779687D01*
X160396783Y-97219272D01*
X160975379Y-97459526D01*
X161601873Y-97460073D01*
X162180887Y-97220829D01*
X162560273Y-96842104D01*
X162936783Y-97219272D01*
X163515379Y-97459526D01*
X164141873Y-97460073D01*
X164720887Y-97220829D01*
X165100273Y-96842104D01*
X165476783Y-97219272D01*
X166055379Y-97459526D01*
X166681873Y-97460073D01*
X167260887Y-97220829D01*
X167640273Y-96842104D01*
X168016783Y-97219272D01*
X168595379Y-97459526D01*
X169221873Y-97460073D01*
X169800887Y-97220829D01*
X170180273Y-96842104D01*
X170556783Y-97219272D01*
X171135379Y-97459526D01*
X171761873Y-97460073D01*
X172340887Y-97220829D01*
X172720273Y-96842104D01*
X173096783Y-97219272D01*
X173675379Y-97459526D01*
X174301873Y-97460073D01*
X174880887Y-97220829D01*
X175324272Y-96778217D01*
X175564526Y-96199621D01*
X175565073Y-95573127D01*
X175325829Y-94994113D01*
X174883217Y-94550728D01*
X174304621Y-94310474D01*
X173678127Y-94309927D01*
X173099113Y-94549171D01*
X172719727Y-94927896D01*
X172343217Y-94550728D01*
X171764621Y-94310474D01*
X171138127Y-94309927D01*
X170559113Y-94549171D01*
X170179727Y-94927896D01*
X169803217Y-94550728D01*
X169224621Y-94310474D01*
X168598127Y-94309927D01*
X168019113Y-94549171D01*
X167639727Y-94927896D01*
X167263217Y-94550728D01*
X166684621Y-94310474D01*
X166058127Y-94309927D01*
X165479113Y-94549171D01*
X165099727Y-94927896D01*
X164723217Y-94550728D01*
X164144621Y-94310474D01*
X163518127Y-94309927D01*
X162939113Y-94549171D01*
X162559727Y-94927896D01*
X162183217Y-94550728D01*
X161604621Y-94310474D01*
X160978127Y-94309927D01*
X160399113Y-94549171D01*
X159957399Y-94990115D01*
X159858968Y-94955637D01*
X158929605Y-95885000D01*
X158570395Y-95885000D01*
X157641032Y-94955637D01*
X157480000Y-95012043D01*
X157318968Y-94955637D01*
X156389605Y-95885000D01*
X156030395Y-95885000D01*
X155101032Y-94955637D01*
X154840420Y-95046923D01*
X154623955Y-95634833D01*
X151245218Y-95634833D01*
X151245240Y-95610715D01*
X151034831Y-95101485D01*
X150709945Y-94776032D01*
X155280637Y-94776032D01*
X156210000Y-95705395D01*
X157139363Y-94776032D01*
X157820637Y-94776032D01*
X158750000Y-95705395D01*
X159679363Y-94776032D01*
X159588077Y-94515420D01*
X159000167Y-94298955D01*
X158374172Y-94323951D01*
X157911923Y-94515420D01*
X157820637Y-94776032D01*
X157139363Y-94776032D01*
X157048077Y-94515420D01*
X156460167Y-94298955D01*
X155834172Y-94323951D01*
X155371923Y-94515420D01*
X155280637Y-94776032D01*
X150709945Y-94776032D01*
X150645564Y-94711539D01*
X150136702Y-94500241D01*
X149585715Y-94499760D01*
X149076485Y-94710169D01*
X148686539Y-95099436D01*
X148475241Y-95608298D01*
X148474883Y-96018538D01*
X146059210Y-98434210D01*
X145867367Y-98721325D01*
X145867367Y-98721326D01*
X145799999Y-99060000D01*
X145800000Y-99060005D01*
X145800000Y-111321477D01*
X145511539Y-111609436D01*
X145300241Y-112118298D01*
X145299760Y-112669285D01*
X145510169Y-113178515D01*
X145746242Y-113415000D01*
X138796579Y-113415000D01*
X136639884Y-111258304D01*
X136640240Y-110850715D01*
X136429831Y-110341485D01*
X136040564Y-109951539D01*
X135531702Y-109740241D01*
X134980715Y-109739760D01*
X134471485Y-109950169D01*
X134081539Y-110339436D01*
X133870241Y-110848298D01*
X133869760Y-111399285D01*
X121335000Y-111399285D01*
X121335000Y-96196873D01*
X124154927Y-96196873D01*
X124394171Y-96775887D01*
X124836783Y-97219272D01*
X125415379Y-97459526D01*
X126041873Y-97460073D01*
X126620887Y-97220829D01*
X127000273Y-96842104D01*
X127376783Y-97219272D01*
X127955379Y-97459526D01*
X128581873Y-97460073D01*
X129160887Y-97220829D01*
X129540273Y-96842104D01*
X129916783Y-97219272D01*
X130495379Y-97459526D01*
X131121873Y-97460073D01*
X131700887Y-97220829D01*
X132080273Y-96842104D01*
X132456783Y-97219272D01*
X133035379Y-97459526D01*
X133661873Y-97460073D01*
X134240887Y-97220829D01*
X134620273Y-96842104D01*
X134996783Y-97219272D01*
X135575379Y-97459526D01*
X136201873Y-97460073D01*
X136780887Y-97220829D01*
X137008144Y-96993968D01*
X137500637Y-96993968D01*
X137591923Y-97254580D01*
X138179833Y-97471045D01*
X138805828Y-97446049D01*
X139268077Y-97254580D01*
X139359363Y-96993968D01*
X138430000Y-96064605D01*
X137500637Y-96993968D01*
X137008144Y-96993968D01*
X137222601Y-96779885D01*
X137321032Y-96814363D01*
X138250395Y-95885000D01*
X138609605Y-95885000D01*
X139538968Y-96814363D01*
X139799580Y-96723077D01*
X140016045Y-96135167D01*
X139991049Y-95509172D01*
X139799580Y-95046923D01*
X139538968Y-94955637D01*
X138609605Y-95885000D01*
X138250395Y-95885000D01*
X137321032Y-94955637D01*
X137222036Y-94990313D01*
X137008129Y-94776032D01*
X137500637Y-94776032D01*
X138430000Y-95705395D01*
X139359363Y-94776032D01*
X139268077Y-94515420D01*
X138680167Y-94298955D01*
X138054172Y-94323951D01*
X137591923Y-94515420D01*
X137500637Y-94776032D01*
X137008129Y-94776032D01*
X136783217Y-94550728D01*
X136204621Y-94310474D01*
X135578127Y-94309927D01*
X134999113Y-94549171D01*
X134619727Y-94927896D01*
X134243217Y-94550728D01*
X133664621Y-94310474D01*
X133038127Y-94309927D01*
X132459113Y-94549171D01*
X132079727Y-94927896D01*
X131703217Y-94550728D01*
X131124621Y-94310474D01*
X130498127Y-94309927D01*
X129919113Y-94549171D01*
X129539727Y-94927896D01*
X129163217Y-94550728D01*
X128584621Y-94310474D01*
X127958127Y-94309927D01*
X127379113Y-94549171D01*
X126999727Y-94927896D01*
X126623217Y-94550728D01*
X126044621Y-94310474D01*
X125418127Y-94309927D01*
X124839113Y-94549171D01*
X124395728Y-94991783D01*
X124155474Y-95570379D01*
X124154927Y-96196873D01*
X121335000Y-96196873D01*
X121335000Y-89585000D01*
X179655000Y-89585000D01*
X179655000Y-106313167D01*
X179655000Y-106313167D01*
G37*
X179655000Y-106313167D02*
X179482831Y-105896485D01*
X179093564Y-105506539D01*
X178584702Y-105295241D01*
X178033715Y-105294760D01*
X177524485Y-105505169D01*
X177234148Y-105795000D01*
X156830579Y-105795000D01*
X155308884Y-104273304D01*
X155309240Y-103865715D01*
X155158543Y-103501000D01*
X168598477Y-103501000D01*
X168886436Y-103789461D01*
X169395298Y-104000759D01*
X169946285Y-104001240D01*
X170455515Y-103790831D01*
X170845461Y-103401564D01*
X171056759Y-102892702D01*
X171057240Y-102341715D01*
X170846831Y-101832485D01*
X170457564Y-101442539D01*
X169948702Y-101231241D01*
X169397715Y-101230760D01*
X168888485Y-101441169D01*
X168598148Y-101731000D01*
X152258579Y-101731000D01*
X151244884Y-100717305D01*
X151245240Y-100309715D01*
X151034831Y-99800485D01*
X150645564Y-99410539D01*
X150136702Y-99199241D01*
X149585715Y-99198760D01*
X149076485Y-99409169D01*
X148686539Y-99798436D01*
X148475241Y-100307298D01*
X148474760Y-100858285D01*
X148685169Y-101367515D01*
X149074436Y-101757461D01*
X149583298Y-101968759D01*
X149993538Y-101969117D01*
X151266208Y-103241787D01*
X151266210Y-103241790D01*
X151553325Y-103433633D01*
X151609516Y-103444810D01*
X151892000Y-103501001D01*
X151892005Y-103501000D01*
X152689680Y-103501000D01*
X152539241Y-103863298D01*
X152538760Y-104414285D01*
X152749169Y-104923515D01*
X153138436Y-105313461D01*
X153647298Y-105524759D01*
X154057537Y-105525117D01*
X155838208Y-107305787D01*
X155838210Y-107305790D01*
X156125325Y-107497633D01*
X156464000Y-107565000D01*
X177234477Y-107565000D01*
X177522436Y-107853461D01*
X178031298Y-108064759D01*
X178582285Y-108065240D01*
X179091515Y-107854831D01*
X179481461Y-107465564D01*
X179655000Y-107047636D01*
X179655000Y-121235000D01*
X121335000Y-121235000D01*
X121335000Y-111399285D01*
X133869760Y-111399285D01*
X134080169Y-111908515D01*
X134469436Y-112298461D01*
X134978298Y-112509759D01*
X135388537Y-112510117D01*
X137804208Y-114925787D01*
X137804210Y-114925790D01*
X138091325Y-115117633D01*
X138147516Y-115128810D01*
X138430000Y-115185001D01*
X138430005Y-115185000D01*
X146684995Y-115185000D01*
X146685000Y-115185001D01*
X146967484Y-115128810D01*
X147023675Y-115117633D01*
X147310790Y-114925790D01*
X147310791Y-114925789D01*
X148456695Y-113779884D01*
X148864285Y-113780240D01*
X149313998Y-113594423D01*
X145738493Y-117169927D01*
X145159113Y-117409171D01*
X144715728Y-117851783D01*
X144475474Y-118430379D01*
X144474927Y-119056873D01*
X144714171Y-119635887D01*
X145156783Y-120079272D01*
X145735379Y-120319526D01*
X146361873Y-120320073D01*
X146940887Y-120080829D01*
X147320273Y-119702104D01*
X147696783Y-120079272D01*
X148275379Y-120319526D01*
X148901873Y-120320073D01*
X149480887Y-120080829D01*
X149708144Y-119853968D01*
X150200637Y-119853968D01*
X150291923Y-120114580D01*
X150879833Y-120331045D01*
X151505828Y-120306049D01*
X151968077Y-120114580D01*
X152059363Y-119853968D01*
X152740637Y-119853968D01*
X152831923Y-120114580D01*
X153419833Y-120331045D01*
X154045828Y-120306049D01*
X154508077Y-120114580D01*
X154599363Y-119853968D01*
X153670000Y-118924605D01*
X152740637Y-119853968D01*
X152059363Y-119853968D01*
X151130000Y-118924605D01*
X150200637Y-119853968D01*
X149708144Y-119853968D01*
X149922601Y-119639885D01*
X150021032Y-119674363D01*
X150950395Y-118745000D01*
X151309605Y-118745000D01*
X152238968Y-119674363D01*
X152400000Y-119617957D01*
X152561032Y-119674363D01*
X153490395Y-118745000D01*
X153849605Y-118745000D01*
X154778968Y-119674363D01*
X155039580Y-119583077D01*
X155256045Y-118995167D01*
X155231049Y-118369172D01*
X155039580Y-117906923D01*
X154778968Y-117815637D01*
X153849605Y-118745000D01*
X153490395Y-118745000D01*
X152561032Y-117815637D01*
X152400000Y-117872043D01*
X152238968Y-117815637D01*
X151309605Y-118745000D01*
X150950395Y-118745000D01*
X150021032Y-117815637D01*
X149922036Y-117850313D01*
X149708129Y-117636032D01*
X150200637Y-117636032D01*
X151130000Y-118565395D01*
X152059363Y-117636032D01*
X152740637Y-117636032D01*
X153670000Y-118565395D01*
X154599363Y-117636032D01*
X154508077Y-117375420D01*
X153920167Y-117158955D01*
X153294172Y-117183951D01*
X152831923Y-117375420D01*
X152740637Y-117636032D01*
X152059363Y-117636032D01*
X151968077Y-117375420D01*
X151380167Y-117158955D01*
X150754172Y-117183951D01*
X150291923Y-117375420D01*
X150200637Y-117636032D01*
X149708129Y-117636032D01*
X149483217Y-117410728D01*
X148904621Y-117170474D01*
X148278127Y-117169927D01*
X148215970Y-117195610D01*
X152266695Y-113144884D01*
X152674285Y-113145240D01*
X153183515Y-112934831D01*
X153573461Y-112545564D01*
X153784759Y-112036702D01*
X153785240Y-111485715D01*
X153574831Y-110976485D01*
X153185564Y-110586539D01*
X152676702Y-110375241D01*
X152125715Y-110374760D01*
X151616485Y-110585169D01*
X151226539Y-110974436D01*
X151015241Y-111483298D01*
X151014883Y-111893538D01*
X149788743Y-113119677D01*
X149974759Y-112671702D01*
X149975240Y-112120715D01*
X149764831Y-111611485D01*
X149375564Y-111221539D01*
X148866702Y-111010241D01*
X148315715Y-111009760D01*
X147806485Y-111220169D01*
X147637547Y-111388813D01*
X147570000Y-111321148D01*
X147570000Y-99426580D01*
X149726695Y-97269884D01*
X150134285Y-97270240D01*
X150643515Y-97059831D01*
X150709492Y-96993968D01*
X155280637Y-96993968D01*
X155371923Y-97254580D01*
X155959833Y-97471045D01*
X156585828Y-97446049D01*
X157048077Y-97254580D01*
X157139363Y-96993968D01*
X157820637Y-96993968D01*
X157911923Y-97254580D01*
X158499833Y-97471045D01*
X159125828Y-97446049D01*
X159588077Y-97254580D01*
X159679363Y-96993968D01*
X158750000Y-96064605D01*
X157820637Y-96993968D01*
X157139363Y-96993968D01*
X156210000Y-96064605D01*
X155280637Y-96993968D01*
X150709492Y-96993968D01*
X151033461Y-96670564D01*
X151244759Y-96161702D01*
X151245218Y-95634833D01*
X154623955Y-95634833D01*
X154648951Y-96260828D01*
X154840420Y-96723077D01*
X155101032Y-96814363D01*
X156030395Y-95885000D01*
X156389605Y-95885000D01*
X157318968Y-96814363D01*
X157480000Y-96757957D01*
X157641032Y-96814363D01*
X158570395Y-95885000D01*
X158929605Y-95885000D01*
X159858968Y-96814363D01*
X159957964Y-96779687D01*
X160396783Y-97219272D01*
X160975379Y-97459526D01*
X161601873Y-97460073D01*
X162180887Y-97220829D01*
X162560273Y-96842104D01*
X162936783Y-97219272D01*
X163515379Y-97459526D01*
X164141873Y-97460073D01*
X164720887Y-97220829D01*
X165100273Y-96842104D01*
X165476783Y-97219272D01*
X166055379Y-97459526D01*
X166681873Y-97460073D01*
X167260887Y-97220829D01*
X167640273Y-96842104D01*
X168016783Y-97219272D01*
X168595379Y-97459526D01*
X169221873Y-97460073D01*
X169800887Y-97220829D01*
X170180273Y-96842104D01*
X170556783Y-97219272D01*
X171135379Y-97459526D01*
X171761873Y-97460073D01*
X172340887Y-97220829D01*
X172720273Y-96842104D01*
X173096783Y-97219272D01*
X173675379Y-97459526D01*
X174301873Y-97460073D01*
X174880887Y-97220829D01*
X175324272Y-96778217D01*
X175564526Y-96199621D01*
X175565073Y-95573127D01*
X175325829Y-94994113D01*
X174883217Y-94550728D01*
X174304621Y-94310474D01*
X173678127Y-94309927D01*
X173099113Y-94549171D01*
X172719727Y-94927896D01*
X172343217Y-94550728D01*
X171764621Y-94310474D01*
X171138127Y-94309927D01*
X170559113Y-94549171D01*
X170179727Y-94927896D01*
X169803217Y-94550728D01*
X169224621Y-94310474D01*
X168598127Y-94309927D01*
X168019113Y-94549171D01*
X167639727Y-94927896D01*
X167263217Y-94550728D01*
X166684621Y-94310474D01*
X166058127Y-94309927D01*
X165479113Y-94549171D01*
X165099727Y-94927896D01*
X164723217Y-94550728D01*
X164144621Y-94310474D01*
X163518127Y-94309927D01*
X162939113Y-94549171D01*
X162559727Y-94927896D01*
X162183217Y-94550728D01*
X161604621Y-94310474D01*
X160978127Y-94309927D01*
X160399113Y-94549171D01*
X159957399Y-94990115D01*
X159858968Y-94955637D01*
X158929605Y-95885000D01*
X158570395Y-95885000D01*
X157641032Y-94955637D01*
X157480000Y-95012043D01*
X157318968Y-94955637D01*
X156389605Y-95885000D01*
X156030395Y-95885000D01*
X155101032Y-94955637D01*
X154840420Y-95046923D01*
X154623955Y-95634833D01*
X151245218Y-95634833D01*
X151245240Y-95610715D01*
X151034831Y-95101485D01*
X150709945Y-94776032D01*
X155280637Y-94776032D01*
X156210000Y-95705395D01*
X157139363Y-94776032D01*
X157820637Y-94776032D01*
X158750000Y-95705395D01*
X159679363Y-94776032D01*
X159588077Y-94515420D01*
X159000167Y-94298955D01*
X158374172Y-94323951D01*
X157911923Y-94515420D01*
X157820637Y-94776032D01*
X157139363Y-94776032D01*
X157048077Y-94515420D01*
X156460167Y-94298955D01*
X155834172Y-94323951D01*
X155371923Y-94515420D01*
X155280637Y-94776032D01*
X150709945Y-94776032D01*
X150645564Y-94711539D01*
X150136702Y-94500241D01*
X149585715Y-94499760D01*
X149076485Y-94710169D01*
X148686539Y-95099436D01*
X148475241Y-95608298D01*
X148474883Y-96018538D01*
X146059210Y-98434210D01*
X145867367Y-98721325D01*
X145867367Y-98721326D01*
X145799999Y-99060000D01*
X145800000Y-99060005D01*
X145800000Y-111321477D01*
X145511539Y-111609436D01*
X145300241Y-112118298D01*
X145299760Y-112669285D01*
X145510169Y-113178515D01*
X145746242Y-113415000D01*
X138796579Y-113415000D01*
X136639884Y-111258304D01*
X136640240Y-110850715D01*
X136429831Y-110341485D01*
X136040564Y-109951539D01*
X135531702Y-109740241D01*
X134980715Y-109739760D01*
X134471485Y-109950169D01*
X134081539Y-110339436D01*
X133870241Y-110848298D01*
X133869760Y-111399285D01*
X121335000Y-111399285D01*
X121335000Y-96196873D01*
X124154927Y-96196873D01*
X124394171Y-96775887D01*
X124836783Y-97219272D01*
X125415379Y-97459526D01*
X126041873Y-97460073D01*
X126620887Y-97220829D01*
X127000273Y-96842104D01*
X127376783Y-97219272D01*
X127955379Y-97459526D01*
X128581873Y-97460073D01*
X129160887Y-97220829D01*
X129540273Y-96842104D01*
X129916783Y-97219272D01*
X130495379Y-97459526D01*
X131121873Y-97460073D01*
X131700887Y-97220829D01*
X132080273Y-96842104D01*
X132456783Y-97219272D01*
X133035379Y-97459526D01*
X133661873Y-97460073D01*
X134240887Y-97220829D01*
X134620273Y-96842104D01*
X134996783Y-97219272D01*
X135575379Y-97459526D01*
X136201873Y-97460073D01*
X136780887Y-97220829D01*
X137008144Y-96993968D01*
X137500637Y-96993968D01*
X137591923Y-97254580D01*
X138179833Y-97471045D01*
X138805828Y-97446049D01*
X139268077Y-97254580D01*
X139359363Y-96993968D01*
X138430000Y-96064605D01*
X137500637Y-96993968D01*
X137008144Y-96993968D01*
X137222601Y-96779885D01*
X137321032Y-96814363D01*
X138250395Y-95885000D01*
X138609605Y-95885000D01*
X139538968Y-96814363D01*
X139799580Y-96723077D01*
X140016045Y-96135167D01*
X139991049Y-95509172D01*
X139799580Y-95046923D01*
X139538968Y-94955637D01*
X138609605Y-95885000D01*
X138250395Y-95885000D01*
X137321032Y-94955637D01*
X137222036Y-94990313D01*
X137008129Y-94776032D01*
X137500637Y-94776032D01*
X138430000Y-95705395D01*
X139359363Y-94776032D01*
X139268077Y-94515420D01*
X138680167Y-94298955D01*
X138054172Y-94323951D01*
X137591923Y-94515420D01*
X137500637Y-94776032D01*
X137008129Y-94776032D01*
X136783217Y-94550728D01*
X136204621Y-94310474D01*
X135578127Y-94309927D01*
X134999113Y-94549171D01*
X134619727Y-94927896D01*
X134243217Y-94550728D01*
X133664621Y-94310474D01*
X133038127Y-94309927D01*
X132459113Y-94549171D01*
X132079727Y-94927896D01*
X131703217Y-94550728D01*
X131124621Y-94310474D01*
X130498127Y-94309927D01*
X129919113Y-94549171D01*
X129539727Y-94927896D01*
X129163217Y-94550728D01*
X128584621Y-94310474D01*
X127958127Y-94309927D01*
X127379113Y-94549171D01*
X126999727Y-94927896D01*
X126623217Y-94550728D01*
X126044621Y-94310474D01*
X125418127Y-94309927D01*
X124839113Y-94549171D01*
X124395728Y-94991783D01*
X124155474Y-95570379D01*
X124154927Y-96196873D01*
X121335000Y-96196873D01*
X121335000Y-89585000D01*
X179655000Y-89585000D01*
X179655000Y-106313167D01*
M02*
