G04 #@! TF.FileFunction,Copper,L1,Top,Signal*
%FSLAX46Y46*%
G04 Gerber Fmt 4.6, Leading zero omitted, Abs format (unit mm)*
G04 Created by KiCad (PCBNEW 4.0.6) date Saturday, December 02, 2017 'PMt' 02:19:44 PM*
%MOMM*%
%LPD*%
G01*
G04 APERTURE LIST*
%ADD10C,0.100000*%
%ADD11R,2.000000X1.600000*%
%ADD12R,1.600000X2.000000*%
%ADD13R,4.599940X0.998220*%
%ADD14R,3.398520X1.597660*%
%ADD15C,1.879600*%
%ADD16R,2.598420X1.198880*%
%ADD17R,2.600960X1.198880*%
%ADD18R,2.000000X1.700000*%
%ADD19R,1.700000X2.000000*%
%ADD20R,1.550000X1.550000*%
%ADD21R,0.600000X0.250000*%
%ADD22R,0.250000X0.600000*%
%ADD23C,1.500000*%
%ADD24C,0.500000*%
%ADD25C,0.250000*%
%ADD26C,1.000000*%
G04 APERTURE END LIST*
D10*
D11*
X176244000Y-104648000D03*
X172244000Y-104648000D03*
X174212000Y-115316000D03*
X170212000Y-115316000D03*
X163925000Y-105410000D03*
X159925000Y-105410000D03*
X140684000Y-106172000D03*
X136684000Y-106172000D03*
X141700000Y-114300000D03*
X137700000Y-114300000D03*
X141700000Y-109855000D03*
X137700000Y-109855000D03*
X149384000Y-97536000D03*
X153384000Y-97536000D03*
D12*
X156210000Y-104680000D03*
X156210000Y-108680000D03*
X157480000Y-112935000D03*
X157480000Y-116935000D03*
D13*
X129428240Y-114028220D03*
X129428240Y-112031780D03*
D14*
X124231400Y-116428520D03*
X124231400Y-109631480D03*
D15*
X173990000Y-95885000D03*
X171450000Y-95885000D03*
X168910000Y-95885000D03*
X166370000Y-95885000D03*
X163830000Y-95885000D03*
X161290000Y-95885000D03*
X158750000Y-95885000D03*
X156210000Y-95885000D03*
X125730000Y-95885000D03*
X128270000Y-95885000D03*
X130810000Y-95885000D03*
X133350000Y-95885000D03*
X135890000Y-95885000D03*
X138430000Y-95885000D03*
X146050000Y-118745000D03*
X148590000Y-118745000D03*
X151130000Y-118745000D03*
X153670000Y-118745000D03*
D16*
X148193760Y-114300000D03*
D17*
X152796240Y-114300000D03*
D18*
X170085000Y-100330000D03*
X174085000Y-100330000D03*
X170085000Y-110490000D03*
X174085000Y-110490000D03*
X159925000Y-100330000D03*
X163925000Y-100330000D03*
X135795000Y-91440000D03*
X139795000Y-91440000D03*
D19*
X144780000Y-98520000D03*
X144780000Y-94520000D03*
D20*
X149085000Y-108090000D03*
X149085000Y-106540000D03*
X150635000Y-106540000D03*
D21*
X147460000Y-105565000D03*
X147460000Y-106065000D03*
X147460000Y-106565000D03*
X147460000Y-107065000D03*
X147460000Y-107565000D03*
X147460000Y-108065000D03*
X147460000Y-108565000D03*
X147460000Y-109065000D03*
D22*
X148110000Y-109715000D03*
X148610000Y-109715000D03*
X149110000Y-109715000D03*
X149610000Y-109715000D03*
X150110000Y-109715000D03*
X150610000Y-109715000D03*
X151110000Y-109715000D03*
X151610000Y-109715000D03*
D21*
X152260000Y-109065000D03*
X152260000Y-108565000D03*
X152260000Y-108065000D03*
X152260000Y-107565000D03*
X152260000Y-107065000D03*
X152260000Y-106565000D03*
X152260000Y-106065000D03*
X152260000Y-105565000D03*
D22*
X151610000Y-104915000D03*
X151110000Y-104915000D03*
X150610000Y-104915000D03*
X150110000Y-104915000D03*
X149610000Y-104915000D03*
X149110000Y-104915000D03*
X148610000Y-104915000D03*
X148110000Y-104915000D03*
D20*
X150635000Y-108090000D03*
D23*
X178308000Y-106680000D03*
X153924000Y-104140000D03*
X131445000Y-118110000D03*
X137160000Y-116205000D03*
X149860000Y-100584000D03*
X169672000Y-102616000D03*
X146685000Y-112395000D03*
X149860000Y-95885000D03*
X148590000Y-112395000D03*
X135255000Y-111125000D03*
X152400000Y-111760000D03*
D24*
X152908000Y-104140000D02*
X153924000Y-104140000D01*
D25*
X152400000Y-104140000D02*
X152908000Y-104140000D01*
X151625000Y-104915000D02*
X152400000Y-104140000D01*
D24*
X177800000Y-104648000D02*
X176244000Y-104648000D01*
X178308000Y-105156000D02*
X177800000Y-104648000D01*
X178308000Y-106680000D02*
X178308000Y-105156000D01*
D25*
X151610000Y-104915000D02*
X151625000Y-104915000D01*
D24*
X174085000Y-100330000D02*
X176244000Y-104648000D01*
X174085000Y-100330000D02*
X174085000Y-95980000D01*
X174085000Y-95980000D02*
X173990000Y-95885000D01*
D25*
X149085000Y-108090000D02*
X149085000Y-106540000D01*
X147460000Y-108565000D02*
X148610000Y-108565000D01*
X148610000Y-108565000D02*
X149085000Y-108090000D01*
X149085000Y-108090000D02*
X150635000Y-108090000D01*
X150635000Y-108090000D02*
X150635000Y-106540000D01*
X152260000Y-108565000D02*
X151110000Y-108565000D01*
X151110000Y-108565000D02*
X150635000Y-108090000D01*
D26*
X124231400Y-109631480D02*
X124231400Y-116428520D01*
X124231400Y-116428520D02*
X129092960Y-116428520D01*
X129092960Y-116428520D02*
X129428240Y-116093240D01*
X137700000Y-114300000D02*
X137700000Y-115665000D01*
X129428240Y-116093240D02*
X129428240Y-114028220D01*
X131445000Y-118110000D02*
X129428240Y-116093240D01*
X137700000Y-115665000D02*
X137160000Y-116205000D01*
X124231400Y-109631480D02*
X124231400Y-109448600D01*
X124231400Y-109448600D02*
X127508000Y-106172000D01*
X127508000Y-106172000D02*
X136684000Y-106172000D01*
X151130000Y-118745000D02*
X153670000Y-118745000D01*
X159925000Y-105410000D02*
X159925000Y-107283000D01*
X158496000Y-108712000D02*
X158496000Y-108680000D01*
X159925000Y-107283000D02*
X158496000Y-108712000D01*
X156210000Y-108680000D02*
X158496000Y-108680000D01*
X158496000Y-108680000D02*
X158464000Y-108680000D01*
X158401000Y-117856000D02*
X157480000Y-116935000D01*
X158496000Y-117856000D02*
X158401000Y-117856000D01*
X163068000Y-113284000D02*
X158496000Y-117856000D01*
X158464000Y-108680000D02*
X163068000Y-113284000D01*
X170212000Y-115316000D02*
X168656000Y-115316000D01*
X168656000Y-115316000D02*
X166624000Y-117348000D01*
X172244000Y-104648000D02*
X172244000Y-106140000D01*
X172244000Y-106140000D02*
X172784000Y-106680000D01*
X172784000Y-106680000D02*
X175260000Y-106680000D01*
X175260000Y-106680000D02*
X176784000Y-108204000D01*
X176784000Y-108204000D02*
X176784000Y-116332000D01*
X176784000Y-116332000D02*
X175768000Y-117348000D01*
X175768000Y-117348000D02*
X166624000Y-117348000D01*
X166624000Y-117348000D02*
X157893000Y-117348000D01*
D24*
X157893000Y-117348000D02*
X157480000Y-116935000D01*
X153384000Y-97536000D02*
X154559000Y-97536000D01*
X154559000Y-97536000D02*
X156210000Y-95885000D01*
D26*
X153924000Y-108712000D02*
X154940000Y-109728000D01*
X154940000Y-109728000D02*
X155162000Y-109728000D01*
D25*
X152260000Y-108565000D02*
X153777000Y-108565000D01*
D26*
X153777000Y-108565000D02*
X153924000Y-108712000D01*
D24*
X152908000Y-109728000D02*
X155162000Y-109728000D01*
D25*
X151610000Y-110462000D02*
X151892000Y-110744000D01*
X151610000Y-109715000D02*
X151610000Y-110462000D01*
X152908000Y-109728000D02*
X151892000Y-110744000D01*
D24*
X155162000Y-109728000D02*
X156210000Y-108680000D01*
D26*
X157480000Y-116935000D02*
X155480000Y-116935000D01*
X155480000Y-116935000D02*
X153670000Y-118745000D01*
D25*
X150110000Y-103632000D02*
X150110000Y-101342000D01*
X150110000Y-101342000D02*
X149860000Y-101092000D01*
D24*
X149860000Y-100584000D02*
X149860000Y-101092000D01*
X169164000Y-103124000D02*
X167640000Y-103124000D01*
X169672000Y-102616000D02*
X169164000Y-103124000D01*
X174085000Y-110490000D02*
X174085000Y-115189000D01*
X174085000Y-115189000D02*
X174212000Y-115316000D01*
D25*
X150110000Y-104915000D02*
X150110000Y-103632000D01*
X150110000Y-103632000D02*
X150110000Y-103382000D01*
D24*
X172720000Y-107696000D02*
X169672000Y-107696000D01*
X174085000Y-109061000D02*
X172720000Y-107696000D01*
X174085000Y-110490000D02*
X174085000Y-109061000D01*
X167640000Y-105664000D02*
X167640000Y-103124000D01*
X169672000Y-107696000D02*
X167640000Y-105664000D01*
X167640000Y-97155000D02*
X168910000Y-95885000D01*
X167640000Y-103124000D02*
X167640000Y-97155000D01*
X147320000Y-97028000D02*
X147320000Y-95504000D01*
X161925000Y-93980000D02*
X163830000Y-95885000D01*
X148844000Y-93980000D02*
X161925000Y-93980000D01*
X147320000Y-95504000D02*
X148844000Y-93980000D01*
X149352000Y-102108000D02*
X147320000Y-100076000D01*
D25*
X149610000Y-102366000D02*
X149352000Y-102108000D01*
X149610000Y-104915000D02*
X149610000Y-102366000D01*
D24*
X146812000Y-96520000D02*
X145320000Y-93980000D01*
X147320000Y-97028000D02*
X146812000Y-96520000D01*
X147320000Y-100076000D02*
X147320000Y-97028000D01*
X145320000Y-93980000D02*
X144780000Y-94520000D01*
X163925000Y-100330000D02*
X163925000Y-105410000D01*
X163925000Y-100330000D02*
X163925000Y-95980000D01*
X163925000Y-95980000D02*
X163830000Y-95885000D01*
X144780000Y-94520000D02*
X139795000Y-91440000D01*
X145320000Y-93980000D02*
X144780000Y-94520000D01*
D25*
X147460000Y-107565000D02*
X143895000Y-107565000D01*
X143895000Y-107565000D02*
X143764000Y-107696000D01*
X147460000Y-107065000D02*
X144395000Y-107065000D01*
X144395000Y-107065000D02*
X143764000Y-107696000D01*
X143764000Y-107696000D02*
X143510000Y-107950000D01*
D24*
X129428240Y-112031780D02*
X132443220Y-112031780D01*
X142335000Y-106775000D02*
X140684000Y-106172000D01*
X143510000Y-107950000D02*
X142335000Y-106775000D01*
X136525000Y-107950000D02*
X143510000Y-107950000D01*
X132443220Y-112031780D02*
X136525000Y-107950000D01*
X145288000Y-110236000D02*
X145288000Y-113252000D01*
D25*
X146459000Y-109065000D02*
X145288000Y-110236000D01*
X147460000Y-109065000D02*
X146459000Y-109065000D01*
D24*
X145288000Y-113252000D02*
X141700000Y-114300000D01*
X149384000Y-97536000D02*
X149384000Y-96361000D01*
X146685000Y-112395000D02*
X148193760Y-113903760D01*
X149384000Y-96361000D02*
X149860000Y-95885000D01*
X148193760Y-113903760D02*
X148193760Y-114300000D01*
X148193760Y-114300000D02*
X146050000Y-114300000D01*
X142875000Y-111125000D02*
X142875000Y-109855000D01*
X142240000Y-111760000D02*
X142875000Y-111125000D01*
X136525000Y-111760000D02*
X142240000Y-111760000D01*
X134620000Y-113665000D02*
X136525000Y-111760000D01*
X134620000Y-117475000D02*
X134620000Y-113665000D01*
X135255000Y-118110000D02*
X134620000Y-117475000D01*
X142240000Y-118110000D02*
X135255000Y-118110000D01*
X146050000Y-114300000D02*
X142240000Y-118110000D01*
X151384000Y-102108000D02*
X152908000Y-100584000D01*
D25*
X150610000Y-104915000D02*
X150610000Y-102882000D01*
X150610000Y-102882000D02*
X150876000Y-102616000D01*
X151384000Y-102108000D02*
X150876000Y-102616000D01*
D24*
X149384000Y-98584000D02*
X149384000Y-97536000D01*
X149860000Y-99060000D02*
X149384000Y-98584000D01*
X151892000Y-99060000D02*
X149860000Y-99060000D01*
X152908000Y-100076000D02*
X151892000Y-99060000D01*
X152908000Y-100584000D02*
X152908000Y-100076000D01*
X145288000Y-108204000D02*
X144621000Y-108204000D01*
D25*
X145427000Y-108065000D02*
X145288000Y-108204000D01*
X147460000Y-108065000D02*
X145427000Y-108065000D01*
D24*
X144621000Y-108204000D02*
X141700000Y-109855000D01*
X137700000Y-109855000D02*
X136525000Y-109855000D01*
X147955000Y-111760000D02*
X147955000Y-110617000D01*
X148590000Y-112395000D02*
X147955000Y-111760000D01*
X136525000Y-109855000D02*
X135255000Y-111125000D01*
X137668000Y-109855000D02*
X137700000Y-109855000D01*
D25*
X148336000Y-110744000D02*
X147828000Y-110744000D01*
X148610000Y-110470000D02*
X148610000Y-109715000D01*
X148610000Y-110470000D02*
X148336000Y-110744000D01*
X147955000Y-110617000D02*
X147828000Y-110744000D01*
X148110000Y-110462000D02*
X147955000Y-110617000D01*
X148110000Y-109715000D02*
X148110000Y-110462000D01*
D24*
X154432000Y-100584000D02*
X156464000Y-98552000D01*
D25*
X151110000Y-103906000D02*
X154432000Y-100584000D01*
X151110000Y-104915000D02*
X151110000Y-103906000D01*
D24*
X157988000Y-102902000D02*
X156210000Y-104680000D01*
X157988000Y-100076000D02*
X157988000Y-102902000D01*
X157480000Y-99568000D02*
X157988000Y-100076000D01*
X156464000Y-98552000D02*
X157480000Y-99568000D01*
X152400000Y-111760000D02*
X156305000Y-111760000D01*
X156305000Y-111760000D02*
X157480000Y-112935000D01*
X146050000Y-118745000D02*
X148590000Y-118745000D01*
X150368000Y-111252000D02*
X150876000Y-111252000D01*
X151384000Y-111760000D02*
X152400000Y-111760000D01*
X150876000Y-111252000D02*
X151384000Y-111760000D01*
D25*
X150610000Y-109715000D02*
X150610000Y-111010000D01*
X150110000Y-110994000D02*
X150368000Y-111252000D01*
X150110000Y-110994000D02*
X150110000Y-109715000D01*
X150610000Y-111010000D02*
X150368000Y-111252000D01*
D24*
X170085000Y-100330000D02*
X170085000Y-98647000D01*
X171450000Y-97282000D02*
X171450000Y-95885000D01*
X170085000Y-98647000D02*
X171450000Y-97282000D01*
X170085000Y-110490000D02*
X170085000Y-110141000D01*
X170085000Y-110141000D02*
X166370000Y-106426000D01*
X166370000Y-106426000D02*
X166370000Y-95885000D01*
X159925000Y-100330000D02*
X159925000Y-98647000D01*
X161290000Y-97282000D02*
X161290000Y-95885000D01*
X159925000Y-98647000D02*
X161290000Y-97282000D01*
X142748000Y-104648000D02*
X134493000Y-104648000D01*
D25*
X144165000Y-106065000D02*
X142748000Y-104648000D01*
X147460000Y-106065000D02*
X144165000Y-106065000D01*
D24*
X134493000Y-104648000D02*
X125730000Y-95885000D01*
X143256000Y-103632000D02*
X136017000Y-103632000D01*
D25*
X145189000Y-105565000D02*
X143256000Y-103632000D01*
X147460000Y-105565000D02*
X145189000Y-105565000D01*
D24*
X136017000Y-103632000D02*
X128270000Y-95885000D01*
D25*
X145415000Y-104140000D02*
X147955000Y-104140000D01*
D24*
X143510000Y-102235000D02*
X145415000Y-104140000D01*
X130810000Y-96520000D02*
X136525000Y-102235000D01*
X136525000Y-102235000D02*
X142875000Y-102235000D01*
X142875000Y-102235000D02*
X143510000Y-102235000D01*
D25*
X148110000Y-104295000D02*
X148110000Y-104915000D01*
X147955000Y-104140000D02*
X148110000Y-104295000D01*
D24*
X130810000Y-95885000D02*
X130810000Y-96520000D01*
D25*
X145415000Y-102870000D02*
X147320000Y-102870000D01*
D24*
X143510000Y-100965000D02*
X145415000Y-102870000D01*
X133350000Y-96520000D02*
X137795000Y-100965000D01*
X137795000Y-100965000D02*
X142875000Y-100965000D01*
X142875000Y-100965000D02*
X143510000Y-100965000D01*
D25*
X148590000Y-104140000D02*
X148590000Y-104895000D01*
X147320000Y-102870000D02*
X148590000Y-104140000D01*
X148590000Y-104895000D02*
X148610000Y-104915000D01*
D24*
X133350000Y-95885000D02*
X133350000Y-96520000D01*
X135795000Y-91440000D02*
X135795000Y-93440000D01*
X135795000Y-93440000D02*
X133350000Y-95885000D01*
X144780000Y-98520000D02*
X139224000Y-99536000D01*
X139224000Y-99536000D02*
X135890000Y-96202000D01*
X135890000Y-96202000D02*
X135890000Y-95885000D01*
X148844000Y-103124000D02*
X148749000Y-103124000D01*
D25*
X149110000Y-103390000D02*
X148844000Y-103124000D01*
X149110000Y-104915000D02*
X149110000Y-103390000D01*
D24*
X148749000Y-103124000D02*
X144780000Y-98520000D01*
X150368000Y-112268000D02*
X151384000Y-113284000D01*
X149352000Y-111252000D02*
X150368000Y-112268000D01*
X151780240Y-113284000D02*
X152796240Y-114300000D01*
X151384000Y-113284000D02*
X151780240Y-113284000D01*
D25*
X149610000Y-109715000D02*
X149610000Y-110994000D01*
X149110000Y-111010000D02*
X149352000Y-111252000D01*
X149110000Y-111010000D02*
X149110000Y-109715000D01*
X149610000Y-110994000D02*
X149352000Y-111252000D01*
M02*
