M48
;DRILL file {KiCad 4.0.6} date Saturday, December 02, 2017 'PMt' 02:20:20 PM
;FORMAT={-:-/ absolute / inch / decimal}
FMAT,2
INCH,TZ
T1C0.039
T2C0.040
%
G90
G05
M72
T1
X5.175Y-4.65
X5.325Y-4.375
X5.4Y-4.575
X5.775Y-4.425
X5.85Y-4.425
X5.9Y-3.775
X5.9Y-3.96
X6.Y-4.4
X6.06Y-4.1
X6.68Y-4.04
X7.02Y-4.2
T2
X4.95Y-3.775
X5.05Y-3.775
X5.15Y-3.775
X5.25Y-3.775
X5.35Y-3.775
X5.45Y-3.775
X5.75Y-4.675
X5.85Y-4.675
X5.95Y-4.675
X6.05Y-4.675
X6.15Y-3.775
X6.25Y-3.775
X6.35Y-3.775
X6.45Y-3.775
X6.55Y-3.775
X6.65Y-3.775
X6.75Y-3.775
X6.85Y-3.775
T0
M30
