G04 #@! TF.FileFunction,Copper,L1,Top,Signal*
%FSLAX46Y46*%
G04 Gerber Fmt 4.6, Leading zero omitted, Abs format (unit mm)*
G04 Created by KiCad (PCBNEW 4.0.6) date Monday, December 04, 2017 'PMt' 08:22:42 PM*
%MOMM*%
%LPD*%
G01*
G04 APERTURE LIST*
%ADD10C,0.100000*%
%ADD11R,1.500000X1.250000*%
%ADD12C,1.597660*%
%ADD13C,1.879600*%
%ADD14R,1.500000X1.300000*%
%ADD15R,1.300000X1.500000*%
%ADD16R,1.550000X1.550000*%
%ADD17R,0.600000X0.250000*%
%ADD18R,0.250000X0.600000*%
%ADD19C,0.600000*%
%ADD20C,0.250000*%
G04 APERTURE END LIST*
D10*
D11*
X164485000Y-118745000D03*
X166985000Y-118745000D03*
X170200000Y-118745000D03*
X172700000Y-118745000D03*
X175280000Y-118745000D03*
X177780000Y-118745000D03*
X161905000Y-125730000D03*
X159405000Y-125730000D03*
X157460000Y-128270000D03*
X154960000Y-128270000D03*
X159405000Y-130810000D03*
X161905000Y-130810000D03*
X180995000Y-118745000D03*
X183495000Y-118745000D03*
X177820000Y-122555000D03*
X180320000Y-122555000D03*
X154285000Y-132715000D03*
X151785000Y-132715000D03*
D12*
X177800000Y-129176780D03*
X177800000Y-131173220D03*
D13*
X165100000Y-111125000D03*
X167640000Y-111125000D03*
X170180000Y-111125000D03*
X172720000Y-111125000D03*
X175260000Y-111125000D03*
X177800000Y-111125000D03*
X180340000Y-111125000D03*
X182880000Y-111125000D03*
X149860000Y-111125000D03*
X152400000Y-111125000D03*
X154940000Y-111125000D03*
X157480000Y-111125000D03*
X160020000Y-111125000D03*
X162560000Y-111125000D03*
X157480000Y-133985000D03*
X160020000Y-133985000D03*
X162560000Y-133985000D03*
X165100000Y-133985000D03*
D14*
X169465000Y-132715000D03*
X172165000Y-132715000D03*
X156290000Y-123190000D03*
X153590000Y-123190000D03*
X167085000Y-114300000D03*
X164385000Y-114300000D03*
X172800000Y-114300000D03*
X170100000Y-114300000D03*
X177880000Y-114300000D03*
X175180000Y-114300000D03*
D15*
X156210000Y-116125000D03*
X156210000Y-118825000D03*
X160020000Y-116125000D03*
X160020000Y-118825000D03*
D16*
X170040000Y-126505000D03*
X170040000Y-124955000D03*
X171590000Y-124955000D03*
D17*
X168415000Y-123980000D03*
X168415000Y-124480000D03*
X168415000Y-124980000D03*
X168415000Y-125480000D03*
X168415000Y-125980000D03*
X168415000Y-126480000D03*
X168415000Y-126980000D03*
X168415000Y-127480000D03*
D18*
X169065000Y-128130000D03*
X169565000Y-128130000D03*
X170065000Y-128130000D03*
X170565000Y-128130000D03*
X171065000Y-128130000D03*
X171565000Y-128130000D03*
X172065000Y-128130000D03*
X172565000Y-128130000D03*
D17*
X173215000Y-127480000D03*
X173215000Y-126980000D03*
X173215000Y-126480000D03*
X173215000Y-125980000D03*
X173215000Y-125480000D03*
X173215000Y-124980000D03*
X173215000Y-124480000D03*
X173215000Y-123980000D03*
D18*
X172565000Y-123330000D03*
X172065000Y-123330000D03*
X171565000Y-123330000D03*
X171065000Y-123330000D03*
X170565000Y-123330000D03*
X170065000Y-123330000D03*
X169565000Y-123330000D03*
X169065000Y-123330000D03*
D16*
X171590000Y-126505000D03*
D19*
X165100000Y-117475000D03*
X173355000Y-121920000D03*
X152400000Y-125730000D03*
X172720000Y-129540000D03*
X170040000Y-126505000D03*
X170040000Y-124955000D03*
X171590000Y-124955000D03*
X171590000Y-126505000D03*
X178435000Y-116840000D03*
X173355000Y-116840000D03*
X167640000Y-116205000D03*
X168910000Y-118745000D03*
X170815000Y-121285000D03*
X164465000Y-125095000D03*
X174625000Y-124460000D03*
X159385000Y-127635000D03*
X166370000Y-127635000D03*
X167640000Y-131445000D03*
X175260000Y-120650000D03*
X174625000Y-126365000D03*
X163830000Y-129540000D03*
X167005000Y-129540000D03*
X171450000Y-129540000D03*
X158115000Y-114935000D03*
X162560000Y-121285000D03*
X162560000Y-116205000D03*
X167640000Y-120650000D03*
D20*
X172565000Y-123330000D02*
X172565000Y-122710000D01*
X165100000Y-117475000D02*
X164485000Y-117475000D01*
X172565000Y-122710000D02*
X173355000Y-121920000D01*
X164485000Y-117475000D02*
X164465000Y-117475000D01*
X164465000Y-117475000D02*
X164485000Y-117475000D01*
X164485000Y-118745000D02*
X164485000Y-117475000D01*
X164485000Y-117475000D02*
X164485000Y-114400000D01*
X164485000Y-114400000D02*
X164385000Y-114300000D01*
X164385000Y-114300000D02*
X164385000Y-111840000D01*
X164385000Y-111840000D02*
X165100000Y-111125000D01*
X180320000Y-122555000D02*
X182245000Y-122555000D01*
X183495000Y-121305000D02*
X183495000Y-118745000D01*
X182245000Y-122555000D02*
X183495000Y-121305000D01*
X183495000Y-118745000D02*
X183495000Y-111740000D01*
X183495000Y-111740000D02*
X182880000Y-111125000D01*
X153670000Y-125730000D02*
X152400000Y-125730000D01*
X151785000Y-132715000D02*
X151785000Y-128250000D01*
X151785000Y-128250000D02*
X153987500Y-126047500D01*
X154960000Y-128270000D02*
X154960000Y-127020000D01*
X154960000Y-127020000D02*
X153987500Y-126047500D01*
X153987500Y-126047500D02*
X153670000Y-125730000D01*
X159405000Y-125730000D02*
X153670000Y-125730000D01*
X153590000Y-125650000D02*
X153590000Y-123190000D01*
X153670000Y-125730000D02*
X153590000Y-125650000D01*
X173215000Y-126980000D02*
X173970000Y-126980000D01*
X176166780Y-129176780D02*
X177800000Y-129176780D01*
X173970000Y-126980000D02*
X176166780Y-129176780D01*
X172565000Y-128130000D02*
X172565000Y-129385000D01*
X172565000Y-129385000D02*
X172720000Y-129540000D01*
X168415000Y-126980000D02*
X169565000Y-126980000D01*
X169565000Y-126980000D02*
X170040000Y-126505000D01*
X172065000Y-126980000D02*
X171590000Y-126505000D01*
X173215000Y-126980000D02*
X172065000Y-126980000D01*
X177780000Y-118745000D02*
X177780000Y-117495000D01*
X177780000Y-117495000D02*
X178435000Y-116840000D01*
X172700000Y-118745000D02*
X172700000Y-117495000D01*
X172700000Y-117495000D02*
X173355000Y-116840000D01*
X166985000Y-118745000D02*
X166985000Y-116860000D01*
X166985000Y-116860000D02*
X167640000Y-116205000D01*
X171065000Y-123330000D02*
X171065000Y-121535000D01*
X168910000Y-118745000D02*
X170200000Y-118745000D01*
X171065000Y-121535000D02*
X170815000Y-121285000D01*
X170200000Y-118745000D02*
X170200000Y-114400000D01*
X170200000Y-114400000D02*
X170180000Y-114380000D01*
X170180000Y-114380000D02*
X170180000Y-111125000D01*
X156210000Y-118825000D02*
X160020000Y-118825000D01*
X169545000Y-121285000D02*
X168275000Y-120015000D01*
X161210000Y-120015000D02*
X160020000Y-118825000D01*
X168275000Y-120015000D02*
X161210000Y-120015000D01*
X170565000Y-123330000D02*
X170565000Y-122305000D01*
X174625000Y-120015000D02*
X175280000Y-119360000D01*
X170180000Y-120015000D02*
X174625000Y-120015000D01*
X169545000Y-120650000D02*
X170180000Y-120015000D01*
X169545000Y-121285000D02*
X169545000Y-120650000D01*
X170565000Y-122305000D02*
X169545000Y-121285000D01*
X175280000Y-119360000D02*
X175280000Y-118745000D01*
X175260000Y-111125000D02*
X175260000Y-114220000D01*
X175260000Y-114220000D02*
X175180000Y-114300000D01*
X175280000Y-118745000D02*
X175280000Y-114400000D01*
X175280000Y-114400000D02*
X175180000Y-114300000D01*
X168415000Y-125480000D02*
X168415000Y-125980000D01*
X168415000Y-125480000D02*
X166620000Y-125480000D01*
X166370000Y-125730000D02*
X163830000Y-125730000D01*
X166620000Y-125480000D02*
X166370000Y-125730000D01*
X177800000Y-131173220D02*
X178706780Y-131173220D01*
X163580000Y-125980000D02*
X163445000Y-125980000D01*
X164465000Y-125095000D02*
X163830000Y-125730000D01*
X163830000Y-125730000D02*
X163580000Y-125980000D01*
X177800000Y-124460000D02*
X174625000Y-124460000D01*
X179705000Y-126365000D02*
X177800000Y-124460000D01*
X179705000Y-130175000D02*
X179705000Y-126365000D01*
X178706780Y-131173220D02*
X179705000Y-130175000D01*
X168415000Y-125980000D02*
X162155000Y-125980000D01*
X162155000Y-125980000D02*
X161905000Y-125730000D01*
X168415000Y-127480000D02*
X166525000Y-127480000D01*
X158750000Y-128270000D02*
X157460000Y-128270000D01*
X159385000Y-127635000D02*
X158750000Y-128270000D01*
X166525000Y-127480000D02*
X166370000Y-127635000D01*
X159405000Y-130810000D02*
X159405000Y-129520000D01*
X161290000Y-127635000D02*
X165100000Y-127635000D01*
X159405000Y-129520000D02*
X161290000Y-127635000D01*
X175260000Y-120650000D02*
X179705000Y-120650000D01*
X179705000Y-120650000D02*
X180995000Y-119360000D01*
X180995000Y-119360000D02*
X180995000Y-118745000D01*
X167005000Y-132080000D02*
X167640000Y-131445000D01*
X168415000Y-126480000D02*
X165620000Y-126480000D01*
X167640000Y-132715000D02*
X169465000Y-132715000D01*
X165100000Y-130175000D02*
X167005000Y-132080000D01*
X167005000Y-132080000D02*
X167640000Y-132715000D01*
X165100000Y-127000000D02*
X165100000Y-127635000D01*
X165100000Y-127635000D02*
X165100000Y-130175000D01*
X165620000Y-126480000D02*
X165100000Y-127000000D01*
X171565000Y-123330000D02*
X171565000Y-121805000D01*
X172720000Y-120650000D02*
X175260000Y-120650000D01*
X171565000Y-121805000D02*
X172720000Y-120650000D01*
X174510000Y-126480000D02*
X173215000Y-126480000D01*
X174625000Y-126365000D02*
X174510000Y-126480000D01*
X169565000Y-128130000D02*
X169565000Y-128250000D01*
X169565000Y-128250000D02*
X168910000Y-128905000D01*
X161905000Y-130810000D02*
X162560000Y-130810000D01*
X162560000Y-130810000D02*
X163830000Y-129540000D01*
X167005000Y-129540000D02*
X168910000Y-129540000D01*
X168910000Y-129540000D02*
X169065000Y-129385000D01*
X169065000Y-129385000D02*
X169065000Y-128130000D01*
X172065000Y-123330000D02*
X172065000Y-121940000D01*
X176530000Y-121285000D02*
X177800000Y-122555000D01*
X172720000Y-121285000D02*
X176530000Y-121285000D01*
X172065000Y-121940000D02*
X172720000Y-121285000D01*
X177800000Y-122555000D02*
X177820000Y-122555000D01*
X154285000Y-132715000D02*
X156210000Y-132715000D01*
X156210000Y-132715000D02*
X157480000Y-133985000D01*
X160020000Y-133985000D02*
X157480000Y-133985000D01*
X171450000Y-128905000D02*
X171450000Y-129540000D01*
X171565000Y-128130000D02*
X171565000Y-128790000D01*
X171065000Y-128520000D02*
X171450000Y-128905000D01*
X171065000Y-128520000D02*
X171065000Y-128130000D01*
X171565000Y-128790000D02*
X171450000Y-128905000D01*
X167085000Y-114300000D02*
X167085000Y-111680000D01*
X167085000Y-111680000D02*
X167640000Y-111125000D01*
X172800000Y-114300000D02*
X172800000Y-111205000D01*
X172800000Y-111205000D02*
X172720000Y-111125000D01*
X177880000Y-114300000D02*
X177880000Y-111205000D01*
X177880000Y-111205000D02*
X177800000Y-111125000D01*
X168415000Y-124480000D02*
X167025000Y-124480000D01*
X149860000Y-118110000D02*
X149860000Y-111125000D01*
X153670000Y-121920000D02*
X149860000Y-118110000D01*
X158115000Y-121920000D02*
X153670000Y-121920000D01*
X159385000Y-123190000D02*
X158115000Y-121920000D01*
X165735000Y-123190000D02*
X159385000Y-123190000D01*
X167025000Y-124480000D02*
X165735000Y-123190000D01*
X168415000Y-123980000D02*
X167795000Y-123980000D01*
X152400000Y-119380000D02*
X152400000Y-111125000D01*
X154305000Y-121285000D02*
X152400000Y-119380000D01*
X158750000Y-121285000D02*
X154305000Y-121285000D01*
X160020000Y-122555000D02*
X158750000Y-121285000D01*
X166370000Y-122555000D02*
X160020000Y-122555000D01*
X167795000Y-123980000D02*
X166370000Y-122555000D01*
X169065000Y-123330000D02*
X169065000Y-122710000D01*
X154305000Y-120015000D02*
X154305000Y-111760000D01*
X154940000Y-120650000D02*
X154305000Y-120015000D01*
X159385000Y-120650000D02*
X154940000Y-120650000D01*
X160655000Y-121920000D02*
X159385000Y-120650000D01*
X168275000Y-121920000D02*
X160655000Y-121920000D01*
X169065000Y-122710000D02*
X168275000Y-121920000D01*
X154305000Y-111760000D02*
X154940000Y-111125000D01*
X169565000Y-123330000D02*
X169565000Y-122575000D01*
X157480000Y-114300000D02*
X157480000Y-113665000D01*
X158115000Y-114935000D02*
X157480000Y-114300000D01*
X168275000Y-121285000D02*
X162560000Y-121285000D01*
X169565000Y-122575000D02*
X168275000Y-121285000D01*
X156210000Y-116125000D02*
X156210000Y-114935000D01*
X157480000Y-113665000D02*
X157480000Y-111125000D01*
X156210000Y-114935000D02*
X157480000Y-113665000D01*
X170065000Y-123330000D02*
X170065000Y-122440000D01*
X162480000Y-116125000D02*
X160020000Y-116125000D01*
X162560000Y-116205000D02*
X162480000Y-116125000D01*
X168275000Y-120650000D02*
X167640000Y-120650000D01*
X170065000Y-122440000D02*
X168275000Y-120650000D01*
X160020000Y-116125000D02*
X160020000Y-111125000D01*
X170065000Y-129425000D02*
X170815000Y-130175000D01*
X172165000Y-130890000D02*
X172165000Y-132715000D01*
X171450000Y-130175000D02*
X172165000Y-130890000D01*
X170815000Y-130175000D02*
X171450000Y-130175000D01*
X170065000Y-128130000D02*
X170065000Y-129425000D01*
X170565000Y-128925000D02*
X170565000Y-128130000D01*
X170065000Y-129425000D02*
X170565000Y-128925000D01*
X168415000Y-124980000D02*
X166255000Y-124980000D01*
X157480000Y-123190000D02*
X156290000Y-123190000D01*
X158115000Y-123825000D02*
X157480000Y-123190000D01*
X165100000Y-123825000D02*
X158115000Y-123825000D01*
X166255000Y-124980000D02*
X165100000Y-123825000D01*
M02*
