M48
INCH,TZ
T1C0.016
T2C0.028
T3C0.040
%
G90
G05
T1
X56500Y-40500
X57750Y-36000
X57750Y-39750
X58000Y-38000
X58750Y-38250
X58750Y-39500
X59000Y-41000
X61000Y-39000
X61250Y-37250
X61250Y-38250
X61250Y-40500
X61500Y-39000
X61750Y-37750
X62250Y-36750
X62500Y-37250
X62750Y-36500
X62910Y-38410
X62910Y-39090
X63590Y-38410
X63590Y-39090
X64000Y-36500
X64250Y-36250
X64250Y-40250
X64750Y-39750
X65750Y-41500
X67000Y-36250
X68000Y-38250
X68750Y-38250
X69500Y-38000
X70000Y-40000
X71000Y-40000
T2
X58250Y-41357
X58250Y-42143
T3
X60250Y-35000
X61250Y-35000
X62250Y-35000
X63250Y-35000
X64250Y-35000
X65250Y-35000
X65250Y-43000
X66250Y-35000
X66250Y-43000
X67250Y-35000
X67250Y-43000
X68250Y-35000
X68250Y-43000
X69250Y-43000
X70250Y-43000
X71250Y-43000
X72250Y-43000
X73250Y-43000
T0
M30
