G04 #@! TF.FileFunction,Copper,L2,Bot,Signal*
%FSLAX46Y46*%
G04 Gerber Fmt 4.6, Leading zero omitted, Abs format (unit mm)*
G04 Created by KiCad (PCBNEW 4.0.6) date Sunday, December 17, 2017 'PMt' 09:14:31 PM*
%MOMM*%
%LPD*%
G01*
G04 APERTURE LIST*
%ADD10C,0.100000*%
%ADD11C,1.597660*%
%ADD12C,1.879600*%
%ADD13C,0.600000*%
%ADD14C,0.250000*%
%ADD15C,0.254000*%
G04 APERTURE END LIST*
D10*
D11*
X147955000Y-107043220D03*
X147955000Y-105046780D03*
D12*
X186055000Y-109220000D03*
X183515000Y-109220000D03*
X180975000Y-109220000D03*
X178435000Y-109220000D03*
X175895000Y-109220000D03*
X173355000Y-109220000D03*
X170815000Y-109220000D03*
X168275000Y-109220000D03*
X165735000Y-109220000D03*
X153035000Y-88900000D03*
X155575000Y-88900000D03*
X158115000Y-88900000D03*
X160655000Y-88900000D03*
X163195000Y-88900000D03*
X165735000Y-88900000D03*
X168275000Y-88900000D03*
X170815000Y-88900000D03*
X173355000Y-88900000D03*
D13*
X143510000Y-102870000D03*
X167005000Y-105410000D03*
X170180000Y-92075000D03*
X149225000Y-97155000D03*
X163195000Y-102235000D03*
X159792500Y-99287500D03*
X161517500Y-99287500D03*
X161517500Y-97562500D03*
X159792500Y-97562500D03*
X149225000Y-100330000D03*
X177800000Y-101600000D03*
X172720000Y-97155000D03*
X163195000Y-92075000D03*
X174625000Y-97155000D03*
X149860000Y-104140000D03*
X154940000Y-99060000D03*
X162560000Y-92710000D03*
X164465000Y-100965000D03*
X155575000Y-102870000D03*
X156210000Y-99060000D03*
X155575000Y-94615000D03*
X146685000Y-91440000D03*
X156845000Y-95885000D03*
X158115000Y-93345000D03*
X158750000Y-94615000D03*
X147320000Y-96520000D03*
X159385000Y-92710000D03*
X155575000Y-97155000D03*
X146685000Y-100965000D03*
X180340000Y-101600000D03*
X176530000Y-96520000D03*
D14*
X159792500Y-99287500D02*
X160020000Y-99060000D01*
X161517500Y-99287500D02*
X161290000Y-99060000D01*
X161517500Y-97562500D02*
X161290000Y-97790000D01*
X159792500Y-97562500D02*
X160020000Y-97790000D01*
X178435000Y-102235000D02*
X178435000Y-109220000D01*
X177800000Y-101600000D02*
X178435000Y-102235000D01*
X168275000Y-97155000D02*
X172720000Y-97155000D01*
X163195000Y-92075000D02*
X168275000Y-97155000D01*
X174625000Y-107315000D02*
X173355000Y-108585000D01*
X174625000Y-97155000D02*
X174625000Y-107315000D01*
X173355000Y-108585000D02*
X173355000Y-109220000D01*
X154940000Y-99060000D02*
X149860000Y-104140000D01*
X164465000Y-94615000D02*
X164465000Y-100965000D01*
X162560000Y-92710000D02*
X164465000Y-94615000D01*
X164465000Y-100965000D02*
X155575000Y-100965000D01*
X155575000Y-99695000D02*
X155575000Y-100965000D01*
X155575000Y-100965000D02*
X155575000Y-102870000D01*
X156210000Y-99060000D02*
X155575000Y-99695000D01*
X153035000Y-92075000D02*
X153035000Y-88900000D01*
X155575000Y-94615000D02*
X153035000Y-92075000D01*
X156845000Y-95885000D02*
X156210000Y-95250000D01*
X149225000Y-91440000D02*
X146685000Y-91440000D01*
X153035000Y-95250000D02*
X149225000Y-91440000D01*
X156210000Y-95250000D02*
X153035000Y-95250000D01*
X156845000Y-90170000D02*
X155575000Y-88900000D01*
X156845000Y-95885000D02*
X156845000Y-90170000D01*
X158115000Y-93345000D02*
X158115000Y-88900000D01*
X156845000Y-97155000D02*
X155575000Y-95885000D01*
X158750000Y-92075000D02*
X158750000Y-94615000D01*
X158750000Y-94615000D02*
X158750000Y-95885000D01*
X158750000Y-95885000D02*
X157480000Y-97155000D01*
X157480000Y-97155000D02*
X156845000Y-97155000D01*
X159385000Y-91440000D02*
X158750000Y-92075000D01*
X147955000Y-95885000D02*
X147320000Y-96520000D01*
X155575000Y-95885000D02*
X147955000Y-95885000D01*
X160655000Y-90170000D02*
X160655000Y-88900000D01*
X159385000Y-91440000D02*
X160655000Y-90170000D01*
X159385000Y-92710000D02*
X163195000Y-88900000D01*
X155575000Y-97155000D02*
X153670000Y-99060000D01*
X153670000Y-99060000D02*
X148590000Y-99060000D01*
X148590000Y-99060000D02*
X146685000Y-100965000D01*
X180975000Y-102235000D02*
X180975000Y-109220000D01*
X180340000Y-101600000D02*
X180975000Y-102235000D01*
X175895000Y-97155000D02*
X175895000Y-109220000D01*
X176530000Y-96520000D02*
X175895000Y-97155000D01*
D15*
G36*
X188545000Y-111075000D02*
X141655000Y-111075000D01*
X141655000Y-109531873D01*
X164159927Y-109531873D01*
X164399171Y-110110887D01*
X164841783Y-110554272D01*
X165420379Y-110794526D01*
X166046873Y-110795073D01*
X166625887Y-110555829D01*
X166853144Y-110328968D01*
X167345637Y-110328968D01*
X167436923Y-110589580D01*
X168024833Y-110806045D01*
X168650828Y-110781049D01*
X169113077Y-110589580D01*
X169204363Y-110328968D01*
X169885637Y-110328968D01*
X169976923Y-110589580D01*
X170564833Y-110806045D01*
X171190828Y-110781049D01*
X171653077Y-110589580D01*
X171744363Y-110328968D01*
X170815000Y-109399605D01*
X169885637Y-110328968D01*
X169204363Y-110328968D01*
X168275000Y-109399605D01*
X167345637Y-110328968D01*
X166853144Y-110328968D01*
X167067601Y-110114885D01*
X167166032Y-110149363D01*
X168095395Y-109220000D01*
X168454605Y-109220000D01*
X169383968Y-110149363D01*
X169545000Y-110092957D01*
X169706032Y-110149363D01*
X170635395Y-109220000D01*
X170994605Y-109220000D01*
X171923968Y-110149363D01*
X172022964Y-110114687D01*
X172461783Y-110554272D01*
X173040379Y-110794526D01*
X173666873Y-110795073D01*
X174245887Y-110555829D01*
X174625273Y-110177104D01*
X175001783Y-110554272D01*
X175580379Y-110794526D01*
X176206873Y-110795073D01*
X176785887Y-110555829D01*
X177165273Y-110177104D01*
X177541783Y-110554272D01*
X178120379Y-110794526D01*
X178746873Y-110795073D01*
X179325887Y-110555829D01*
X179705273Y-110177104D01*
X180081783Y-110554272D01*
X180660379Y-110794526D01*
X181286873Y-110795073D01*
X181865887Y-110555829D01*
X182245273Y-110177104D01*
X182621783Y-110554272D01*
X183200379Y-110794526D01*
X183826873Y-110795073D01*
X184405887Y-110555829D01*
X184785273Y-110177104D01*
X185161783Y-110554272D01*
X185740379Y-110794526D01*
X186366873Y-110795073D01*
X186945887Y-110555829D01*
X187389272Y-110113217D01*
X187629526Y-109534621D01*
X187630073Y-108908127D01*
X187390829Y-108329113D01*
X186948217Y-107885728D01*
X186369621Y-107645474D01*
X185743127Y-107644927D01*
X185164113Y-107884171D01*
X184784727Y-108262896D01*
X184408217Y-107885728D01*
X183829621Y-107645474D01*
X183203127Y-107644927D01*
X182624113Y-107884171D01*
X182244727Y-108262896D01*
X181868217Y-107885728D01*
X181735000Y-107830411D01*
X181735000Y-102235000D01*
X181677148Y-101944161D01*
X181512401Y-101697599D01*
X181275122Y-101460320D01*
X181275162Y-101414833D01*
X181133117Y-101071057D01*
X180870327Y-100807808D01*
X180526799Y-100665162D01*
X180154833Y-100664838D01*
X179811057Y-100806883D01*
X179547808Y-101069673D01*
X179405162Y-101413201D01*
X179404838Y-101785167D01*
X179546883Y-102128943D01*
X179809673Y-102392192D01*
X180153201Y-102534838D01*
X180200077Y-102534879D01*
X180215000Y-102549802D01*
X180215000Y-107830090D01*
X180084113Y-107884171D01*
X179704727Y-108262896D01*
X179328217Y-107885728D01*
X179195000Y-107830411D01*
X179195000Y-102235000D01*
X179137148Y-101944161D01*
X178972401Y-101697599D01*
X178735122Y-101460320D01*
X178735162Y-101414833D01*
X178593117Y-101071057D01*
X178330327Y-100807808D01*
X177986799Y-100665162D01*
X177614833Y-100664838D01*
X177271057Y-100806883D01*
X177007808Y-101069673D01*
X176865162Y-101413201D01*
X176864838Y-101785167D01*
X177006883Y-102128943D01*
X177269673Y-102392192D01*
X177613201Y-102534838D01*
X177660077Y-102534879D01*
X177675000Y-102549802D01*
X177675000Y-107830090D01*
X177544113Y-107884171D01*
X177164727Y-108262896D01*
X176788217Y-107885728D01*
X176655000Y-107830411D01*
X176655000Y-97469802D01*
X176669680Y-97455122D01*
X176715167Y-97455162D01*
X177058943Y-97313117D01*
X177322192Y-97050327D01*
X177464838Y-96706799D01*
X177465162Y-96334833D01*
X177323117Y-95991057D01*
X177060327Y-95727808D01*
X176716799Y-95585162D01*
X176344833Y-95584838D01*
X176001057Y-95726883D01*
X175737808Y-95989673D01*
X175595162Y-96333201D01*
X175595121Y-96380077D01*
X175383659Y-96591539D01*
X175155327Y-96362808D01*
X174811799Y-96220162D01*
X174439833Y-96219838D01*
X174096057Y-96361883D01*
X173832808Y-96624673D01*
X173690162Y-96968201D01*
X173689838Y-97340167D01*
X173831883Y-97683943D01*
X173865000Y-97717118D01*
X173865000Y-107000198D01*
X173220116Y-107645082D01*
X173043127Y-107644927D01*
X172464113Y-107884171D01*
X172022399Y-108325115D01*
X171923968Y-108290637D01*
X170994605Y-109220000D01*
X170635395Y-109220000D01*
X169706032Y-108290637D01*
X169545000Y-108347043D01*
X169383968Y-108290637D01*
X168454605Y-109220000D01*
X168095395Y-109220000D01*
X167166032Y-108290637D01*
X167067036Y-108325313D01*
X166853129Y-108111032D01*
X167345637Y-108111032D01*
X168275000Y-109040395D01*
X169204363Y-108111032D01*
X169885637Y-108111032D01*
X170815000Y-109040395D01*
X171744363Y-108111032D01*
X171653077Y-107850420D01*
X171065167Y-107633955D01*
X170439172Y-107658951D01*
X169976923Y-107850420D01*
X169885637Y-108111032D01*
X169204363Y-108111032D01*
X169113077Y-107850420D01*
X168525167Y-107633955D01*
X167899172Y-107658951D01*
X167436923Y-107850420D01*
X167345637Y-108111032D01*
X166853129Y-108111032D01*
X166628217Y-107885728D01*
X166049621Y-107645474D01*
X165423127Y-107644927D01*
X164844113Y-107884171D01*
X164400728Y-108326783D01*
X164160474Y-108905379D01*
X164159927Y-109531873D01*
X141655000Y-109531873D01*
X141655000Y-108050117D01*
X147127708Y-108050117D01*
X147201699Y-108296115D01*
X147738502Y-108489020D01*
X148308266Y-108461816D01*
X148708301Y-108296115D01*
X148782292Y-108050117D01*
X147955000Y-107222825D01*
X147127708Y-108050117D01*
X141655000Y-108050117D01*
X141655000Y-91625167D01*
X145749838Y-91625167D01*
X145891883Y-91968943D01*
X146154673Y-92232192D01*
X146498201Y-92374838D01*
X146870167Y-92375162D01*
X147213943Y-92233117D01*
X147247118Y-92200000D01*
X148910198Y-92200000D01*
X151835198Y-95125000D01*
X147955000Y-95125000D01*
X147664161Y-95182852D01*
X147417599Y-95347599D01*
X147180320Y-95584878D01*
X147134833Y-95584838D01*
X146791057Y-95726883D01*
X146527808Y-95989673D01*
X146385162Y-96333201D01*
X146384838Y-96705167D01*
X146526883Y-97048943D01*
X146789673Y-97312192D01*
X147133201Y-97454838D01*
X147505167Y-97455162D01*
X147848943Y-97313117D01*
X148112192Y-97050327D01*
X148254838Y-96706799D01*
X148254879Y-96659923D01*
X148269802Y-96645000D01*
X154774367Y-96645000D01*
X154640162Y-96968201D01*
X154640121Y-97015077D01*
X153355198Y-98300000D01*
X148590000Y-98300000D01*
X148299161Y-98357852D01*
X148052599Y-98522599D01*
X146545320Y-100029878D01*
X146499833Y-100029838D01*
X146156057Y-100171883D01*
X145892808Y-100434673D01*
X145750162Y-100778201D01*
X145749838Y-101150167D01*
X145891883Y-101493943D01*
X146154673Y-101757192D01*
X146498201Y-101899838D01*
X146870167Y-101900162D01*
X147213943Y-101758117D01*
X147477192Y-101495327D01*
X147619838Y-101151799D01*
X147619879Y-101104923D01*
X148904802Y-99820000D01*
X153105198Y-99820000D01*
X149720320Y-103204878D01*
X149674833Y-103204838D01*
X149331057Y-103346883D01*
X149067808Y-103609673D01*
X148925162Y-103953201D01*
X148925131Y-103989092D01*
X148768260Y-103831947D01*
X148241458Y-103613200D01*
X147671045Y-103612702D01*
X147143862Y-103830530D01*
X146740167Y-104233520D01*
X146521420Y-104760322D01*
X146520922Y-105330735D01*
X146738750Y-105857918D01*
X146907404Y-106026868D01*
X146833222Y-106101050D01*
X146948101Y-106215929D01*
X146702105Y-106289919D01*
X146509200Y-106826722D01*
X146536404Y-107396486D01*
X146702105Y-107796521D01*
X146948103Y-107870512D01*
X147775395Y-107043220D01*
X147761253Y-107029078D01*
X147940858Y-106849473D01*
X147955000Y-106863615D01*
X147969143Y-106849473D01*
X148148748Y-107029078D01*
X148134605Y-107043220D01*
X148961897Y-107870512D01*
X149207895Y-107796521D01*
X149400800Y-107259718D01*
X149373596Y-106689954D01*
X149207895Y-106289919D01*
X148961899Y-106215929D01*
X149076778Y-106101050D01*
X149002655Y-106026927D01*
X149169833Y-105860040D01*
X149388580Y-105333238D01*
X149388909Y-104956789D01*
X149673201Y-105074838D01*
X150045167Y-105075162D01*
X150388943Y-104933117D01*
X150652192Y-104670327D01*
X150794838Y-104326799D01*
X150794879Y-104279923D01*
X154815000Y-100259802D01*
X154815000Y-102307537D01*
X154782808Y-102339673D01*
X154640162Y-102683201D01*
X154639838Y-103055167D01*
X154781883Y-103398943D01*
X155044673Y-103662192D01*
X155388201Y-103804838D01*
X155760167Y-103805162D01*
X156103943Y-103663117D01*
X156367192Y-103400327D01*
X156509838Y-103056799D01*
X156510162Y-102684833D01*
X156368117Y-102341057D01*
X156335000Y-102307882D01*
X156335000Y-101725000D01*
X163902537Y-101725000D01*
X163934673Y-101757192D01*
X164278201Y-101899838D01*
X164650167Y-101900162D01*
X164993943Y-101758117D01*
X165257192Y-101495327D01*
X165399838Y-101151799D01*
X165400162Y-100779833D01*
X165258117Y-100436057D01*
X165225000Y-100402882D01*
X165225000Y-95179802D01*
X167737599Y-97692401D01*
X167984161Y-97857148D01*
X168275000Y-97915000D01*
X172157537Y-97915000D01*
X172189673Y-97947192D01*
X172533201Y-98089838D01*
X172905167Y-98090162D01*
X173248943Y-97948117D01*
X173512192Y-97685327D01*
X173654838Y-97341799D01*
X173655162Y-96969833D01*
X173513117Y-96626057D01*
X173250327Y-96362808D01*
X172906799Y-96220162D01*
X172534833Y-96219838D01*
X172191057Y-96361883D01*
X172157882Y-96395000D01*
X168589802Y-96395000D01*
X164130122Y-91935320D01*
X164130162Y-91889833D01*
X163988117Y-91546057D01*
X163725327Y-91282808D01*
X163381799Y-91140162D01*
X163009833Y-91139838D01*
X162666057Y-91281883D01*
X162402808Y-91544673D01*
X162293235Y-91808554D01*
X162031057Y-91916883D01*
X161767808Y-92179673D01*
X161625162Y-92523201D01*
X161624838Y-92895167D01*
X161766883Y-93238943D01*
X162029673Y-93502192D01*
X162373201Y-93644838D01*
X162420077Y-93644879D01*
X163705000Y-94929802D01*
X163705000Y-100205000D01*
X156335000Y-100205000D01*
X156335000Y-100009802D01*
X156349680Y-99995122D01*
X156395167Y-99995162D01*
X156738943Y-99853117D01*
X157002192Y-99590327D01*
X157144838Y-99246799D01*
X157145162Y-98874833D01*
X157003117Y-98531057D01*
X156740327Y-98267808D01*
X156396799Y-98125162D01*
X156024833Y-98124838D01*
X155681057Y-98266883D01*
X155575046Y-98372710D01*
X155503631Y-98301171D01*
X155714680Y-98090122D01*
X155760167Y-98090162D01*
X156103943Y-97948117D01*
X156339052Y-97713418D01*
X156554160Y-97857148D01*
X156845000Y-97915000D01*
X157480000Y-97915000D01*
X157770839Y-97857148D01*
X158017401Y-97692401D01*
X159287401Y-96422401D01*
X159452148Y-96175840D01*
X159510000Y-95885000D01*
X159510000Y-95177463D01*
X159542192Y-95145327D01*
X159684838Y-94801799D01*
X159685162Y-94429833D01*
X159543117Y-94086057D01*
X159510000Y-94052882D01*
X159510000Y-93645110D01*
X159570167Y-93645162D01*
X159913943Y-93503117D01*
X160177192Y-93240327D01*
X160319838Y-92896799D01*
X160319879Y-92849923D01*
X162749586Y-90420216D01*
X162880379Y-90474526D01*
X163506873Y-90475073D01*
X164085887Y-90235829D01*
X164313144Y-90008968D01*
X164805637Y-90008968D01*
X164896923Y-90269580D01*
X165484833Y-90486045D01*
X166110828Y-90461049D01*
X166573077Y-90269580D01*
X166664363Y-90008968D01*
X165735000Y-89079605D01*
X164805637Y-90008968D01*
X164313144Y-90008968D01*
X164527601Y-89794885D01*
X164626032Y-89829363D01*
X165555395Y-88900000D01*
X165914605Y-88900000D01*
X166843968Y-89829363D01*
X166942964Y-89794687D01*
X167381783Y-90234272D01*
X167960379Y-90474526D01*
X168586873Y-90475073D01*
X169165887Y-90235829D01*
X169545273Y-89857104D01*
X169921783Y-90234272D01*
X170500379Y-90474526D01*
X171126873Y-90475073D01*
X171705887Y-90235829D01*
X172085273Y-89857104D01*
X172461783Y-90234272D01*
X173040379Y-90474526D01*
X173666873Y-90475073D01*
X174245887Y-90235829D01*
X174689272Y-89793217D01*
X174929526Y-89214621D01*
X174930073Y-88588127D01*
X174690829Y-88009113D01*
X174248217Y-87565728D01*
X173669621Y-87325474D01*
X173043127Y-87324927D01*
X172464113Y-87564171D01*
X172084727Y-87942896D01*
X171708217Y-87565728D01*
X171129621Y-87325474D01*
X170503127Y-87324927D01*
X169924113Y-87564171D01*
X169544727Y-87942896D01*
X169168217Y-87565728D01*
X168589621Y-87325474D01*
X167963127Y-87324927D01*
X167384113Y-87564171D01*
X166942399Y-88005115D01*
X166843968Y-87970637D01*
X165914605Y-88900000D01*
X165555395Y-88900000D01*
X164626032Y-87970637D01*
X164527036Y-88005313D01*
X164313129Y-87791032D01*
X164805637Y-87791032D01*
X165735000Y-88720395D01*
X166664363Y-87791032D01*
X166573077Y-87530420D01*
X165985167Y-87313955D01*
X165359172Y-87338951D01*
X164896923Y-87530420D01*
X164805637Y-87791032D01*
X164313129Y-87791032D01*
X164088217Y-87565728D01*
X163509621Y-87325474D01*
X162883127Y-87324927D01*
X162304113Y-87564171D01*
X161924727Y-87942896D01*
X161548217Y-87565728D01*
X160969621Y-87325474D01*
X160343127Y-87324927D01*
X159764113Y-87564171D01*
X159384727Y-87942896D01*
X159008217Y-87565728D01*
X158429621Y-87325474D01*
X157803127Y-87324927D01*
X157224113Y-87564171D01*
X156844727Y-87942896D01*
X156468217Y-87565728D01*
X155889621Y-87325474D01*
X155263127Y-87324927D01*
X154684113Y-87564171D01*
X154304727Y-87942896D01*
X153928217Y-87565728D01*
X153349621Y-87325474D01*
X152723127Y-87324927D01*
X152144113Y-87564171D01*
X151700728Y-88006783D01*
X151460474Y-88585379D01*
X151459927Y-89211873D01*
X151699171Y-89790887D01*
X152141783Y-90234272D01*
X152275000Y-90289589D01*
X152275000Y-92075000D01*
X152332852Y-92365839D01*
X152497599Y-92612401D01*
X154375198Y-94490000D01*
X153349802Y-94490000D01*
X149762401Y-90902599D01*
X149515839Y-90737852D01*
X149225000Y-90680000D01*
X147247463Y-90680000D01*
X147215327Y-90647808D01*
X146871799Y-90505162D01*
X146499833Y-90504838D01*
X146156057Y-90646883D01*
X145892808Y-90909673D01*
X145750162Y-91253201D01*
X145749838Y-91625167D01*
X141655000Y-91625167D01*
X141655000Y-87045000D01*
X188545000Y-87045000D01*
X188545000Y-111075000D01*
X188545000Y-111075000D01*
G37*
X188545000Y-111075000D02*
X141655000Y-111075000D01*
X141655000Y-109531873D01*
X164159927Y-109531873D01*
X164399171Y-110110887D01*
X164841783Y-110554272D01*
X165420379Y-110794526D01*
X166046873Y-110795073D01*
X166625887Y-110555829D01*
X166853144Y-110328968D01*
X167345637Y-110328968D01*
X167436923Y-110589580D01*
X168024833Y-110806045D01*
X168650828Y-110781049D01*
X169113077Y-110589580D01*
X169204363Y-110328968D01*
X169885637Y-110328968D01*
X169976923Y-110589580D01*
X170564833Y-110806045D01*
X171190828Y-110781049D01*
X171653077Y-110589580D01*
X171744363Y-110328968D01*
X170815000Y-109399605D01*
X169885637Y-110328968D01*
X169204363Y-110328968D01*
X168275000Y-109399605D01*
X167345637Y-110328968D01*
X166853144Y-110328968D01*
X167067601Y-110114885D01*
X167166032Y-110149363D01*
X168095395Y-109220000D01*
X168454605Y-109220000D01*
X169383968Y-110149363D01*
X169545000Y-110092957D01*
X169706032Y-110149363D01*
X170635395Y-109220000D01*
X170994605Y-109220000D01*
X171923968Y-110149363D01*
X172022964Y-110114687D01*
X172461783Y-110554272D01*
X173040379Y-110794526D01*
X173666873Y-110795073D01*
X174245887Y-110555829D01*
X174625273Y-110177104D01*
X175001783Y-110554272D01*
X175580379Y-110794526D01*
X176206873Y-110795073D01*
X176785887Y-110555829D01*
X177165273Y-110177104D01*
X177541783Y-110554272D01*
X178120379Y-110794526D01*
X178746873Y-110795073D01*
X179325887Y-110555829D01*
X179705273Y-110177104D01*
X180081783Y-110554272D01*
X180660379Y-110794526D01*
X181286873Y-110795073D01*
X181865887Y-110555829D01*
X182245273Y-110177104D01*
X182621783Y-110554272D01*
X183200379Y-110794526D01*
X183826873Y-110795073D01*
X184405887Y-110555829D01*
X184785273Y-110177104D01*
X185161783Y-110554272D01*
X185740379Y-110794526D01*
X186366873Y-110795073D01*
X186945887Y-110555829D01*
X187389272Y-110113217D01*
X187629526Y-109534621D01*
X187630073Y-108908127D01*
X187390829Y-108329113D01*
X186948217Y-107885728D01*
X186369621Y-107645474D01*
X185743127Y-107644927D01*
X185164113Y-107884171D01*
X184784727Y-108262896D01*
X184408217Y-107885728D01*
X183829621Y-107645474D01*
X183203127Y-107644927D01*
X182624113Y-107884171D01*
X182244727Y-108262896D01*
X181868217Y-107885728D01*
X181735000Y-107830411D01*
X181735000Y-102235000D01*
X181677148Y-101944161D01*
X181512401Y-101697599D01*
X181275122Y-101460320D01*
X181275162Y-101414833D01*
X181133117Y-101071057D01*
X180870327Y-100807808D01*
X180526799Y-100665162D01*
X180154833Y-100664838D01*
X179811057Y-100806883D01*
X179547808Y-101069673D01*
X179405162Y-101413201D01*
X179404838Y-101785167D01*
X179546883Y-102128943D01*
X179809673Y-102392192D01*
X180153201Y-102534838D01*
X180200077Y-102534879D01*
X180215000Y-102549802D01*
X180215000Y-107830090D01*
X180084113Y-107884171D01*
X179704727Y-108262896D01*
X179328217Y-107885728D01*
X179195000Y-107830411D01*
X179195000Y-102235000D01*
X179137148Y-101944161D01*
X178972401Y-101697599D01*
X178735122Y-101460320D01*
X178735162Y-101414833D01*
X178593117Y-101071057D01*
X178330327Y-100807808D01*
X177986799Y-100665162D01*
X177614833Y-100664838D01*
X177271057Y-100806883D01*
X177007808Y-101069673D01*
X176865162Y-101413201D01*
X176864838Y-101785167D01*
X177006883Y-102128943D01*
X177269673Y-102392192D01*
X177613201Y-102534838D01*
X177660077Y-102534879D01*
X177675000Y-102549802D01*
X177675000Y-107830090D01*
X177544113Y-107884171D01*
X177164727Y-108262896D01*
X176788217Y-107885728D01*
X176655000Y-107830411D01*
X176655000Y-97469802D01*
X176669680Y-97455122D01*
X176715167Y-97455162D01*
X177058943Y-97313117D01*
X177322192Y-97050327D01*
X177464838Y-96706799D01*
X177465162Y-96334833D01*
X177323117Y-95991057D01*
X177060327Y-95727808D01*
X176716799Y-95585162D01*
X176344833Y-95584838D01*
X176001057Y-95726883D01*
X175737808Y-95989673D01*
X175595162Y-96333201D01*
X175595121Y-96380077D01*
X175383659Y-96591539D01*
X175155327Y-96362808D01*
X174811799Y-96220162D01*
X174439833Y-96219838D01*
X174096057Y-96361883D01*
X173832808Y-96624673D01*
X173690162Y-96968201D01*
X173689838Y-97340167D01*
X173831883Y-97683943D01*
X173865000Y-97717118D01*
X173865000Y-107000198D01*
X173220116Y-107645082D01*
X173043127Y-107644927D01*
X172464113Y-107884171D01*
X172022399Y-108325115D01*
X171923968Y-108290637D01*
X170994605Y-109220000D01*
X170635395Y-109220000D01*
X169706032Y-108290637D01*
X169545000Y-108347043D01*
X169383968Y-108290637D01*
X168454605Y-109220000D01*
X168095395Y-109220000D01*
X167166032Y-108290637D01*
X167067036Y-108325313D01*
X166853129Y-108111032D01*
X167345637Y-108111032D01*
X168275000Y-109040395D01*
X169204363Y-108111032D01*
X169885637Y-108111032D01*
X170815000Y-109040395D01*
X171744363Y-108111032D01*
X171653077Y-107850420D01*
X171065167Y-107633955D01*
X170439172Y-107658951D01*
X169976923Y-107850420D01*
X169885637Y-108111032D01*
X169204363Y-108111032D01*
X169113077Y-107850420D01*
X168525167Y-107633955D01*
X167899172Y-107658951D01*
X167436923Y-107850420D01*
X167345637Y-108111032D01*
X166853129Y-108111032D01*
X166628217Y-107885728D01*
X166049621Y-107645474D01*
X165423127Y-107644927D01*
X164844113Y-107884171D01*
X164400728Y-108326783D01*
X164160474Y-108905379D01*
X164159927Y-109531873D01*
X141655000Y-109531873D01*
X141655000Y-108050117D01*
X147127708Y-108050117D01*
X147201699Y-108296115D01*
X147738502Y-108489020D01*
X148308266Y-108461816D01*
X148708301Y-108296115D01*
X148782292Y-108050117D01*
X147955000Y-107222825D01*
X147127708Y-108050117D01*
X141655000Y-108050117D01*
X141655000Y-91625167D01*
X145749838Y-91625167D01*
X145891883Y-91968943D01*
X146154673Y-92232192D01*
X146498201Y-92374838D01*
X146870167Y-92375162D01*
X147213943Y-92233117D01*
X147247118Y-92200000D01*
X148910198Y-92200000D01*
X151835198Y-95125000D01*
X147955000Y-95125000D01*
X147664161Y-95182852D01*
X147417599Y-95347599D01*
X147180320Y-95584878D01*
X147134833Y-95584838D01*
X146791057Y-95726883D01*
X146527808Y-95989673D01*
X146385162Y-96333201D01*
X146384838Y-96705167D01*
X146526883Y-97048943D01*
X146789673Y-97312192D01*
X147133201Y-97454838D01*
X147505167Y-97455162D01*
X147848943Y-97313117D01*
X148112192Y-97050327D01*
X148254838Y-96706799D01*
X148254879Y-96659923D01*
X148269802Y-96645000D01*
X154774367Y-96645000D01*
X154640162Y-96968201D01*
X154640121Y-97015077D01*
X153355198Y-98300000D01*
X148590000Y-98300000D01*
X148299161Y-98357852D01*
X148052599Y-98522599D01*
X146545320Y-100029878D01*
X146499833Y-100029838D01*
X146156057Y-100171883D01*
X145892808Y-100434673D01*
X145750162Y-100778201D01*
X145749838Y-101150167D01*
X145891883Y-101493943D01*
X146154673Y-101757192D01*
X146498201Y-101899838D01*
X146870167Y-101900162D01*
X147213943Y-101758117D01*
X147477192Y-101495327D01*
X147619838Y-101151799D01*
X147619879Y-101104923D01*
X148904802Y-99820000D01*
X153105198Y-99820000D01*
X149720320Y-103204878D01*
X149674833Y-103204838D01*
X149331057Y-103346883D01*
X149067808Y-103609673D01*
X148925162Y-103953201D01*
X148925131Y-103989092D01*
X148768260Y-103831947D01*
X148241458Y-103613200D01*
X147671045Y-103612702D01*
X147143862Y-103830530D01*
X146740167Y-104233520D01*
X146521420Y-104760322D01*
X146520922Y-105330735D01*
X146738750Y-105857918D01*
X146907404Y-106026868D01*
X146833222Y-106101050D01*
X146948101Y-106215929D01*
X146702105Y-106289919D01*
X146509200Y-106826722D01*
X146536404Y-107396486D01*
X146702105Y-107796521D01*
X146948103Y-107870512D01*
X147775395Y-107043220D01*
X147761253Y-107029078D01*
X147940858Y-106849473D01*
X147955000Y-106863615D01*
X147969143Y-106849473D01*
X148148748Y-107029078D01*
X148134605Y-107043220D01*
X148961897Y-107870512D01*
X149207895Y-107796521D01*
X149400800Y-107259718D01*
X149373596Y-106689954D01*
X149207895Y-106289919D01*
X148961899Y-106215929D01*
X149076778Y-106101050D01*
X149002655Y-106026927D01*
X149169833Y-105860040D01*
X149388580Y-105333238D01*
X149388909Y-104956789D01*
X149673201Y-105074838D01*
X150045167Y-105075162D01*
X150388943Y-104933117D01*
X150652192Y-104670327D01*
X150794838Y-104326799D01*
X150794879Y-104279923D01*
X154815000Y-100259802D01*
X154815000Y-102307537D01*
X154782808Y-102339673D01*
X154640162Y-102683201D01*
X154639838Y-103055167D01*
X154781883Y-103398943D01*
X155044673Y-103662192D01*
X155388201Y-103804838D01*
X155760167Y-103805162D01*
X156103943Y-103663117D01*
X156367192Y-103400327D01*
X156509838Y-103056799D01*
X156510162Y-102684833D01*
X156368117Y-102341057D01*
X156335000Y-102307882D01*
X156335000Y-101725000D01*
X163902537Y-101725000D01*
X163934673Y-101757192D01*
X164278201Y-101899838D01*
X164650167Y-101900162D01*
X164993943Y-101758117D01*
X165257192Y-101495327D01*
X165399838Y-101151799D01*
X165400162Y-100779833D01*
X165258117Y-100436057D01*
X165225000Y-100402882D01*
X165225000Y-95179802D01*
X167737599Y-97692401D01*
X167984161Y-97857148D01*
X168275000Y-97915000D01*
X172157537Y-97915000D01*
X172189673Y-97947192D01*
X172533201Y-98089838D01*
X172905167Y-98090162D01*
X173248943Y-97948117D01*
X173512192Y-97685327D01*
X173654838Y-97341799D01*
X173655162Y-96969833D01*
X173513117Y-96626057D01*
X173250327Y-96362808D01*
X172906799Y-96220162D01*
X172534833Y-96219838D01*
X172191057Y-96361883D01*
X172157882Y-96395000D01*
X168589802Y-96395000D01*
X164130122Y-91935320D01*
X164130162Y-91889833D01*
X163988117Y-91546057D01*
X163725327Y-91282808D01*
X163381799Y-91140162D01*
X163009833Y-91139838D01*
X162666057Y-91281883D01*
X162402808Y-91544673D01*
X162293235Y-91808554D01*
X162031057Y-91916883D01*
X161767808Y-92179673D01*
X161625162Y-92523201D01*
X161624838Y-92895167D01*
X161766883Y-93238943D01*
X162029673Y-93502192D01*
X162373201Y-93644838D01*
X162420077Y-93644879D01*
X163705000Y-94929802D01*
X163705000Y-100205000D01*
X156335000Y-100205000D01*
X156335000Y-100009802D01*
X156349680Y-99995122D01*
X156395167Y-99995162D01*
X156738943Y-99853117D01*
X157002192Y-99590327D01*
X157144838Y-99246799D01*
X157145162Y-98874833D01*
X157003117Y-98531057D01*
X156740327Y-98267808D01*
X156396799Y-98125162D01*
X156024833Y-98124838D01*
X155681057Y-98266883D01*
X155575046Y-98372710D01*
X155503631Y-98301171D01*
X155714680Y-98090122D01*
X155760167Y-98090162D01*
X156103943Y-97948117D01*
X156339052Y-97713418D01*
X156554160Y-97857148D01*
X156845000Y-97915000D01*
X157480000Y-97915000D01*
X157770839Y-97857148D01*
X158017401Y-97692401D01*
X159287401Y-96422401D01*
X159452148Y-96175840D01*
X159510000Y-95885000D01*
X159510000Y-95177463D01*
X159542192Y-95145327D01*
X159684838Y-94801799D01*
X159685162Y-94429833D01*
X159543117Y-94086057D01*
X159510000Y-94052882D01*
X159510000Y-93645110D01*
X159570167Y-93645162D01*
X159913943Y-93503117D01*
X160177192Y-93240327D01*
X160319838Y-92896799D01*
X160319879Y-92849923D01*
X162749586Y-90420216D01*
X162880379Y-90474526D01*
X163506873Y-90475073D01*
X164085887Y-90235829D01*
X164313144Y-90008968D01*
X164805637Y-90008968D01*
X164896923Y-90269580D01*
X165484833Y-90486045D01*
X166110828Y-90461049D01*
X166573077Y-90269580D01*
X166664363Y-90008968D01*
X165735000Y-89079605D01*
X164805637Y-90008968D01*
X164313144Y-90008968D01*
X164527601Y-89794885D01*
X164626032Y-89829363D01*
X165555395Y-88900000D01*
X165914605Y-88900000D01*
X166843968Y-89829363D01*
X166942964Y-89794687D01*
X167381783Y-90234272D01*
X167960379Y-90474526D01*
X168586873Y-90475073D01*
X169165887Y-90235829D01*
X169545273Y-89857104D01*
X169921783Y-90234272D01*
X170500379Y-90474526D01*
X171126873Y-90475073D01*
X171705887Y-90235829D01*
X172085273Y-89857104D01*
X172461783Y-90234272D01*
X173040379Y-90474526D01*
X173666873Y-90475073D01*
X174245887Y-90235829D01*
X174689272Y-89793217D01*
X174929526Y-89214621D01*
X174930073Y-88588127D01*
X174690829Y-88009113D01*
X174248217Y-87565728D01*
X173669621Y-87325474D01*
X173043127Y-87324927D01*
X172464113Y-87564171D01*
X172084727Y-87942896D01*
X171708217Y-87565728D01*
X171129621Y-87325474D01*
X170503127Y-87324927D01*
X169924113Y-87564171D01*
X169544727Y-87942896D01*
X169168217Y-87565728D01*
X168589621Y-87325474D01*
X167963127Y-87324927D01*
X167384113Y-87564171D01*
X166942399Y-88005115D01*
X166843968Y-87970637D01*
X165914605Y-88900000D01*
X165555395Y-88900000D01*
X164626032Y-87970637D01*
X164527036Y-88005313D01*
X164313129Y-87791032D01*
X164805637Y-87791032D01*
X165735000Y-88720395D01*
X166664363Y-87791032D01*
X166573077Y-87530420D01*
X165985167Y-87313955D01*
X165359172Y-87338951D01*
X164896923Y-87530420D01*
X164805637Y-87791032D01*
X164313129Y-87791032D01*
X164088217Y-87565728D01*
X163509621Y-87325474D01*
X162883127Y-87324927D01*
X162304113Y-87564171D01*
X161924727Y-87942896D01*
X161548217Y-87565728D01*
X160969621Y-87325474D01*
X160343127Y-87324927D01*
X159764113Y-87564171D01*
X159384727Y-87942896D01*
X159008217Y-87565728D01*
X158429621Y-87325474D01*
X157803127Y-87324927D01*
X157224113Y-87564171D01*
X156844727Y-87942896D01*
X156468217Y-87565728D01*
X155889621Y-87325474D01*
X155263127Y-87324927D01*
X154684113Y-87564171D01*
X154304727Y-87942896D01*
X153928217Y-87565728D01*
X153349621Y-87325474D01*
X152723127Y-87324927D01*
X152144113Y-87564171D01*
X151700728Y-88006783D01*
X151460474Y-88585379D01*
X151459927Y-89211873D01*
X151699171Y-89790887D01*
X152141783Y-90234272D01*
X152275000Y-90289589D01*
X152275000Y-92075000D01*
X152332852Y-92365839D01*
X152497599Y-92612401D01*
X154375198Y-94490000D01*
X153349802Y-94490000D01*
X149762401Y-90902599D01*
X149515839Y-90737852D01*
X149225000Y-90680000D01*
X147247463Y-90680000D01*
X147215327Y-90647808D01*
X146871799Y-90505162D01*
X146499833Y-90504838D01*
X146156057Y-90646883D01*
X145892808Y-90909673D01*
X145750162Y-91253201D01*
X145749838Y-91625167D01*
X141655000Y-91625167D01*
X141655000Y-87045000D01*
X188545000Y-87045000D01*
X188545000Y-111075000D01*
M02*
